<svg xmlns="http://www.w3.org/2000/svg" width="25" height="24" fill="currentColor" viewBox="0 0 25 24">
  <path fill-rule="evenodd" d="M10.418 6.522c-1.595 0-2.98 1.259-3.264 3.002a.761.761 0 0 1-.645.636c-1.6.218-2.905 1.722-2.905 3.623 0 2.065.424 3.65 3.316 3.65l10.346.016c2.503 0 3.316-1.587 3.316-3.652 0-1.92-1.33-3.434-2.95-3.63a.76.76 0 0 1-.651-.603c-.19-.92-.93-1.544-1.745-1.544a1.65 1.65 0 0 0-.984.329.756.756 0 0 1-1.084-.216c-.606-.987-1.621-1.611-2.75-1.611Zm6.848 12.462c3.316 0 4.827-2.37 4.827-5.187 0-2.444-1.588-4.546-3.78-5.065-.474-1.294-1.65-2.25-3.077-2.25a3.1 3.1 0 0 0-1.21.246c-.877-1.06-2.162-1.743-3.608-1.743-2.235 0-4.07 1.616-4.641 3.757-2.142.557-3.684 2.632-3.684 5.04 0 2.804 1.51 5.2 4.827 5.2l10.346.002Z" clip-rule="evenodd"/>
  <path fill-rule="evenodd" d="M10.418 6.522c-1.595 0-2.98 1.259-3.264 3.002a.761.761 0 0 1-.645.636c-1.6.218-2.905 1.722-2.905 3.623 0 2.065.424 3.65 3.316 3.65l10.346.016c2.503 0 3.316-1.587 3.316-3.652 0-1.92-1.33-3.434-2.95-3.63a.76.76 0 0 1-.651-.603c-.19-.92-.93-1.544-1.745-1.544a1.65 1.65 0 0 0-.984.329.756.756 0 0 1-1.084-.216c-.606-.987-1.621-1.611-2.75-1.611Zm6.848 12.462c3.316 0 4.827-2.37 4.827-5.187 0-2.444-1.588-4.546-3.78-5.065-.474-1.294-1.65-2.25-3.077-2.25a3.1 3.1 0 0 0-1.21.246c-.877-1.06-2.162-1.743-3.608-1.743-2.235 0-4.07 1.616-4.641 3.757-2.142.557-3.684 2.632-3.684 5.04 0 2.804 1.51 5.2 4.827 5.2l10.346.002Z" clip-rule="evenodd"/>
  <path fill-rule="evenodd" d="M14.594 6.075c0-1.09.885-1.976 1.976-1.976h.087c.956 0 1.747.71 1.873 1.632 0 .536.435.972.97.972h.725c.822 0 1.488.666 1.488 1.487v.093c0 .51-.273.955-.68 1.2-.356.211-.715.531-.715.945 0 .414.34.76.742.654a2.896 2.896 0 0 0 2.153-2.799V8.19a2.987 2.987 0 0 0-2.988-2.987.365.365 0 0 1-.342-.26A3.39 3.39 0 0 0 16.657 2.6h-.087a3.476 3.476 0 0 0-3.476 3.476V6.6a.75.75 0 1 0 1.5 0v-.525Z" clip-rule="evenodd"/>
</svg>
