<svg xmlns="http://www.w3.org/2000/svg" width="25" height="24" fill="currentColor" viewBox="0 0 25 24">
  <path fill-rule="evenodd" d="M9.354 17.36a.75.75 0 0 1 .215 1.04l-1 1.525a.75.75 0 1 1-1.255-.823l1-1.525a.75.75 0 0 1 1.04-.216Zm8.206 0a.75.75 0 0 1 .216 1.04l-1.001 1.525a.749.749 0 0 1-1.366-.551.75.75 0 0 1 .112-.272l1-1.525a.75.75 0 0 1 1.039-.216Zm-4.35 1.48a.75.75 0 0 1 .34 1.006l-.756 1.525a.75.75 0 0 1-1.344-.666l.756-1.525a.752.752 0 0 1 1.005-.34ZM10.824 3.537c-1.594 0-2.98 1.258-3.264 3.002a.761.761 0 0 1-.645.636c-1.6.217-2.904 1.722-2.904 3.623 0 2.064.423 3.651 3.316 3.651l10.346.014c2.503 0 3.316-1.587 3.316-3.65 0-1.921-1.33-3.435-2.951-3.63a.76.76 0 0 1-.65-.604c-.191-.919-.929-1.545-1.745-1.545-.362 0-.7.12-.985.33a.755.755 0 0 1-1.083-.216c-.606-.987-1.623-1.611-2.751-1.611Zm6.85 12.462V16c3.315-.002 4.826-2.37 4.826-5.188 0-2.445-1.588-4.547-3.78-5.066-.474-1.294-1.65-2.248-3.077-2.248-.428 0-.836.087-1.21.244C13.556 2.682 12.271 2 10.824 2 8.59 2 6.756 3.615 6.184 5.756 4.04 6.314 2.5 8.39 2.5 10.798c0 2.802 1.51 5.2 4.827 5.2h10.346l.001.001Z" clip-rule="evenodd"/>
  <path fill-rule="evenodd" d="M10.824 3.537c-1.594 0-2.98 1.258-3.264 3.002a.761.761 0 0 1-.645.636c-1.6.217-2.904 1.722-2.904 3.623 0 2.064.423 3.651 3.316 3.651l10.346.014c2.503 0 3.316-1.587 3.316-3.65 0-1.921-1.33-3.435-2.951-3.63a.76.76 0 0 1-.65-.604c-.191-.919-.929-1.545-1.745-1.545-.362 0-.7.12-.985.33a.755.755 0 0 1-1.083-.216c-.606-.987-1.623-1.611-2.751-1.611Zm6.85 12.462V16c3.315-.002 4.826-2.37 4.826-5.188 0-2.445-1.588-4.547-3.78-5.066-.474-1.294-1.65-2.248-3.077-2.248-.428 0-.836.087-1.21.244C13.556 2.682 12.271 2 10.824 2 8.59 2 6.756 3.615 6.184 5.756 4.04 6.314 2.5 8.39 2.5 10.798c0 2.802 1.51 5.2 4.827 5.2h10.346l.001.001Z" clip-rule="evenodd"/>
</svg>
