<svg xmlns="http://www.w3.org/2000/svg" width="25" height="24" fill="currentColor" viewBox="0 0 25 24">
  <path fill-rule="evenodd" d="M12.54 8.69a3.25 3.25 0 1 0 0 6.5 3.25 3.25 0 0 0 0-6.5Zm-4.75 3.25a4.75 4.75 0 1 1 9.5 0 4.75 4.75 0 0 1-9.5 0Zm4.68-9.898a.75.75 0 0 1 .75.75v2.795a.75.75 0 0 1-1.5 0V2.792a.75.75 0 0 1 .75-.75Zm-9.906 9.821a.75.75 0 0 1 .75-.75h2.795a.75.75 0 1 1 0 1.5H3.314a.75.75 0 0 1-.75-.75Zm15.642.08a.75.75 0 0 1 .75-.75h2.796a.75.75 0 0 1 0 1.5h-2.796a.75.75 0 0 1-.75-.75ZM4.648 21.386a.75.75 0 0 1 .75-.75h15.195a.75.75 0 0 1 0 1.5H5.398a.75.75 0 0 1-.75-.75Zm2.756-2.931a.75.75 0 0 1 .75-.75h9.183a.75.75 0 0 1 0 1.5H8.154a.75.75 0 0 1-.75-.75ZM5.474 4.91a.75.75 0 0 1 1.06-.016l2.06 2A.75.75 0 0 1 7.55 7.97l-2.06-2a.75.75 0 0 1-.016-1.06Zm14.124.068a.75.75 0 0 0-1.061-.015l-2.06 2a.75.75 0 1 0 1.046 1.077l2.06-2.001a.75.75 0 0 0 .015-1.061Z" clip-rule="evenodd"/>
</svg>
