<svg xmlns="http://www.w3.org/2000/svg" width="25" height="24" fill="currentColor" viewBox="0 0 25 24">
  <path fill-rule="evenodd" d="M12.526 1.209a.75.75 0 0 1 .752.748l.005 2.31 1.27-1.27a.75.75 0 0 1 1.06 1.06l-2.326 2.327.008 3.991 3.645-2.094.852-3.178a.75.75 0 1 1 1.449.388l-.465 1.736 2.003-1.151a.75.75 0 0 1 .747 1.3L19.502 8.54l1.816.487a.75.75 0 0 1-.39 1.449l-3.256-.873-.013-.004-4.547 2.613a.748.748 0 0 1-.652.25.746.746 0 0 1-.414-.1L7.454 9.724l-.014.004-3.257.873a.75.75 0 0 1-.388-1.45l1.816-.486-2.025-1.163a.75.75 0 0 1 .748-1.3l2.003 1.15-.465-1.735a.75.75 0 1 1 1.449-.388l.85 3.178 3.625 2.082-.01-4.067-.01-.01-2.383-2.385a.75.75 0 1 1 1.06-1.06l1.33 1.329-.005-2.334a.75.75 0 0 1 .748-.752v-.001Z" clip-rule="evenodd"/>
  <path fill-rule="evenodd" d="M12.46 22.886a.75.75 0 0 1-.75-.75l-.005-2.31-1.27 1.27a.75.75 0 1 1-1.061-1.06L11.7 17.71l-.008-3.99-3.645 2.093-.851 3.179a.75.75 0 0 1-1.45-.39l.466-1.734-2.003 1.15a.75.75 0 1 1-.747-1.3l2.024-1.163-1.816-.486a.75.75 0 0 1 .388-1.45l3.258.874.013.003 4.547-2.612a.748.748 0 0 1 .652-.25.746.746 0 0 1 .413.1l4.593 2.638.013-.004 3.258-.873a.75.75 0 1 1 .388 1.45l-1.816.486 2.024 1.162a.75.75 0 1 1-.747 1.3l-2.003-1.15.465 1.736a.75.75 0 0 1-1.45.388l-.85-3.178-3.624-2.082.008 4.067.01.01 2.385 2.384a.75.75 0 0 1-1.06 1.06l-1.33-1.33.005 2.336a.75.75 0 0 1-.75.752Z" clip-rule="evenodd"/>
</svg>
