<svg xmlns="http://www.w3.org/2000/svg" width="25" height="24" fill="currentColor" viewBox="0 0 25 24">
  <path fill-rule="evenodd" d="M9.205 6.46c0-1.354 1.012-2.453 2.26-2.453h.14c1.328 0 2.403 1.167 2.403 2.607v.133c0 1.514-1.13 2.74-2.524 2.74H4.549v-1.5h6.935c.63 0 1.142-.555 1.142-1.24v-.133c0-.611-.456-1.107-1.02-1.107h-.14c-.486 0-.88.427-.88.954L9.205 6.46Z" clip-rule="evenodd"/>
  <path fill-rule="evenodd" d="M14.95 9.762c0-1.467 1.245-2.657 2.782-2.657h1.163c1.614 0 2.923 1.25 2.923 2.791s-1.31 2.79-2.923 2.79H4.523v-1.5h14.372c.746 0 1.352-.577 1.352-1.29 0-.713-.606-1.29-1.352-1.29h-1.163c-.67 0-1.212.517-1.212 1.156h-1.57Zm.07 7.595a2.756 2.756 0 0 0 2.756 2.756h1.145a2.897 2.897 0 1 0 0-5.794H4.559v1.5h14.36a1.397 1.397 0 1 1 0 2.794h-1.144a1.256 1.256 0 0 1-1.256-1.256h-1.5Z" clip-rule="evenodd"/>
</svg>
