<svg xmlns="http://www.w3.org/2000/svg" width="25" height="24" fill="currentColor" viewBox="0 0 25 24">
  <path fill-rule="evenodd" d="M10.764 3.44c-1.583 0-2.959 1.23-3.24 2.93a.75.75 0 0 1-.64.622C5.293 7.205 4 8.672 4 10.53c0 2.015 1.519 3.564 3.292 3.564v.018h10.272v-.004c1.773 0 3.292-1.55 3.292-3.564 0-1.874-1.32-3.352-2.93-3.543a.75.75 0 0 1-.646-.59c-.19-.896-.922-1.507-1.732-1.507a1.66 1.66 0 0 0-.978.32.75.75 0 0 1-1.076-.21c-.6-.962-1.609-1.573-2.73-1.573Zm6.8 12.165v.002c2.692 0 4.792-2.314 4.792-5.064 0-2.387-1.577-4.438-3.754-4.945-.47-1.263-1.638-2.195-3.054-2.195-.425 0-.83.085-1.201.24-.87-1.036-2.147-1.702-3.583-1.702-2.218 0-4.04 1.577-4.607 3.667-2.127.544-3.657 2.57-3.657 4.92 0 2.736 2.077 5.04 4.749 5.065v.012h10.315Z" clip-rule="evenodd"/>
  <path fill-rule="evenodd" d="M10.764 3.44c-1.583 0-2.959 1.23-3.24 2.93a.75.75 0 0 1-.64.622C5.293 7.205 4 8.672 4 10.53c0 2.015 1.519 3.564 3.292 3.564v.018h10.272v-.004c1.773 0 3.292-1.55 3.292-3.564 0-1.874-1.32-3.352-2.93-3.543a.75.75 0 0 1-.646-.59c-.19-.896-.922-1.507-1.732-1.507a1.66 1.66 0 0 0-.978.32.75.75 0 0 1-1.076-.21c-.6-.962-1.609-1.573-2.73-1.573Zm6.8 12.165v.002c2.692 0 4.792-2.314 4.792-5.064 0-2.387-1.577-4.438-3.754-4.945-.47-1.263-1.638-2.195-3.054-2.195-.425 0-.83.085-1.201.24-.87-1.036-2.147-1.702-3.583-1.702-2.218 0-4.04 1.577-4.607 3.667-2.127.544-3.657 2.57-3.657 4.92 0 2.736 2.077 5.04 4.749 5.065v.012h10.315Z" clip-rule="evenodd"/>
  <path fill-rule="evenodd" d="M9.312 16.525a.75.75 0 0 1 .282 1.022l-1.79 3.15a.75.75 0 0 1-1.304-.742l1.79-3.15a.75.75 0 0 1 1.022-.28Zm3.798.165a.748.748 0 0 1 .281 1.023l-1.789 3.15a.75.75 0 1 1-1.304-.742l1.789-3.15a.75.75 0 0 1 1.023-.281Zm3.777.333a.75.75 0 0 1 .282 1.022l-1.79 3.15a.75.75 0 1 1-1.304-.742l1.79-3.15a.75.75 0 0 1 1.022-.28ZM12.615 5.73a.75.75 0 0 1 .322 1.01l-1.06 2.053h2.282a.75.75 0 0 1 .694 1.033L13.7 12.659a.748.748 0 0 1-1.222.25.748.748 0 0 1-.168-.816l.733-1.8h-2.398A.75.75 0 0 1 9.98 9.2l1.626-3.147a.75.75 0 0 1 1.01-.322h-.001Z" clip-rule="evenodd"/>
</svg>
