<?xml version="1.0" standalone="no"?>
<!DOCTYPE svg PUBLIC "-//W3C//DTD SVG 1.1//EN" "http://www.w3.org/Graphics/SVG/1.1/DTD/svg11.dtd" >
<svg xmlns="http://www.w3.org/2000/svg">
<metadata>Generated by IcoMoon</metadata>
<defs>
<font id="us-icon" horiz-adv-x="1024">
<font-face units-per-em="1024" ascent="960" descent="-64" />
<missing-glyph horiz-adv-x="1024" />
<glyph unicode="&#x20;" horiz-adv-x="512" d="" />
<glyph unicode="&#xe900;" glyph-name="us-cloudy" horiz-adv-x="1067" d="M444.501 681.685c48.171 0 91.477-26.581 117.333-68.693l0.079-0.135c5.692-9.105 15.806-15.162 27.335-15.162 7.074 0 13.615 2.28 18.836 6.081l-0.178-0.129c11.735 8.854 26.329 14.12 42.162 14.166 34.816 0 66.347-26.667 74.453-65.877l0.036-0.21c2.779-13.403 13.831-23.777 27.74-25.561 69.12-8.32 125.867-72.917 125.867-154.837 0-88.107-34.688-155.819-141.483-155.819l-441.429 0.64c-123.392 0-141.483 67.669-141.483 155.776 0 81.109 55.68 145.28 123.947 154.581l0.176 0.021c13.987 2.044 25.080 13.006 27.344 27.115 12.117 74.368 71.211 128.085 139.264 128.085zM736.683 150.016v-0.043c141.483 0.043 205.952 101.12 205.952 221.355 0 104.277-67.755 193.963-161.28 216.107-20.224 55.211-70.4 95.957-131.285 95.957-18.261 0-35.669-3.712-51.627-10.453-37.419 45.227-92.245 74.368-153.941 74.368-95.36 0-173.611-68.949-198.016-160.299-91.392-23.765-157.184-112.299-157.184-215.083 0-119.595 64.469-221.867 205.952-221.867h441.429zM622.677 700.8c0 46.549 37.76 84.309 84.309 84.309h3.712c40.789 0 74.539-30.293 79.915-69.632 0-22.869 18.56-41.472 41.429-41.472h30.891c35.072 0 63.488-28.416 63.488-63.445v-3.968c0-21.76-11.648-40.747-29.013-51.157-15.189-9.045-30.507-22.699-30.507-40.363s14.549-32.427 31.659-27.904c53.306 14.492 91.86 62.455 91.861 119.424v0 3.968c-0.024 70.391-57.093 127.445-127.488 127.445v0c-6.872 0.148-12.637 4.724-14.563 10.983l-0.029 0.11c-19.436 58.513-73.677 99.968-137.6 99.968-0.015 0-0.030 0-0.045 0h-3.71c-81.909 0-148.309-66.4-148.309-148.309v-22.357c0-17.673 14.327-32 32-32s32 14.327 32 32v0 22.4z" />
<glyph unicode="&#xe901;" glyph-name="us-drizzle" horiz-adv-x="1067" d="M399.104 219.264c8.748-5.805 14.436-15.613 14.436-26.749 0-6.545-1.965-12.63-5.336-17.699l0.074 0.118-42.667-65.067c-5.807-8.761-15.625-14.459-26.773-14.459-17.682 0-32.017 14.334-32.017 32.017 0 6.534 1.957 12.61 5.317 17.676l-0.074-0.118 42.709 65.067c5.803 8.765 15.62 14.466 26.769 14.466 6.536 0 12.615-1.96 17.68-5.324l-0.118 0.074zM749.227 219.264c8.765-5.803 14.466-15.62 14.466-26.769 0-6.536-1.96-12.615-5.324-17.68l0.074 0.118-42.709-65.067c-5.785-8.878-15.666-14.665-26.898-14.665-17.673 0-32 14.327-32 32 0 6.628 2.015 12.785 5.466 17.893l-0.072-0.113 42.667 65.067c5.803 8.765 15.62 14.466 26.769 14.466 6.536 0 12.615-1.96 17.68-5.324l-0.118 0.074zM563.669 156.16c10.637-5.349 17.808-16.178 17.808-28.681 0-5.189-1.235-10.090-3.428-14.425l0.084 0.183-32.256-65.067c-5.388-10.519-16.155-17.593-28.574-17.593-17.673 0-32 14.327-32 32 0 5.098 1.192 9.918 3.313 14.196l-0.084-0.187 32.256 65.067c5.346 10.647 16.179 17.825 28.689 17.825 5.169 0 10.052-1.226 14.374-3.402l-0.184 0.084zM461.867 809.088c48.128 0 91.477-26.624 117.333-68.736l0.079-0.135c5.694-9.094 15.802-15.141 27.322-15.141 7.061 0 13.591 2.272 18.807 6.060 12.16 8.96 26.581 14.080 42.027 14.080 34.816 0 66.304-26.709 74.453-65.92l0.036-0.21c2.774-13.391 13.806-23.76 27.697-25.561 69.163-8.32 125.909-72.917 125.909-154.88 0-88.021-34.688-155.733-141.483-155.733l-441.429 0.597c-123.435 0-141.483 67.712-141.483 155.776 0 81.109 55.637 145.323 123.904 154.581l0.176 0.021c13.987 2.044 25.080 13.006 27.344 27.115 12.117 74.411 71.253 128.085 139.264 128.085zM754.091 277.376v-0.043c141.44 0.085 205.909 101.12 205.909 221.355 0 104.32-67.755 194.005-161.28 216.149-20.224 55.211-70.4 95.915-131.285 95.915-18.261 0-35.669-3.712-51.627-10.411-37.419 45.227-92.245 74.325-153.984 74.325-95.317 0-173.568-68.907-197.973-160.256-91.477-23.808-157.184-112.384-157.184-215.125 0-119.552 64.427-221.867 205.952-221.867h441.429z" />
<glyph unicode="&#xe902;" glyph-name="us-morning" horiz-adv-x="1067" d="M535.040 589.227c-76.583 0-138.667-62.083-138.667-138.667s62.083-138.667 138.667-138.667v0c76.583 0 138.667 62.083 138.667 138.667s-62.083 138.667-138.667 138.667v0zM332.373 450.56c0 111.93 90.737 202.667 202.667 202.667s202.667-90.737 202.667-202.667v0c0-111.93-90.737-202.667-202.667-202.667s-202.667 90.737-202.667 202.667v0zM532.053 872.875c17.673 0 32-14.327 32-32v0-119.253c0-17.673-14.327-32-32-32s-32 14.327-32 32v0 119.253c0 17.673 14.327 32 32 32v0zM535.040 25.259c17.673 0 32 14.327 32 32v0 119.253c0 17.673-14.327 32-32 32s-32-14.327-32-32v0-119.253c0-17.664 14.293-32 32-32zM109.397 453.845c0 17.673 14.327 32 32 32v0h119.253c17.673 0 32-14.327 32-32s-14.327-32-32-32v0h-119.253c-17.673 0-32 14.327-32 32v0zM776.789 450.432c0 17.673 14.327 32 32 32v0h119.296c17.673 0 32-14.327 32-32s-14.327-32-32-32v0h-119.296c-17.673 0-32 14.327-32 32v0zM233.557 750.507c5.822 5.989 13.954 9.705 22.955 9.705 8.661 0 16.518-3.441 22.28-9.030l-0.008 0.008 87.893-85.333c5.566-5.75 8.996-13.597 8.996-22.244 0-17.673-14.327-32-32-32-8.308 0-15.876 3.166-21.565 8.357l0.025-0.023-87.893 85.333c-5.976 5.82-9.683 13.944-9.683 22.934 0 8.671 3.449 16.537 9.050 22.301l-0.007-0.008zM194.347 111.531c5.82-5.976 13.944-9.683 22.934-9.683 8.671 0 16.537 3.449 22.301 9.050l-0.008-0.007 87.893 85.333c5.861 5.802 9.491 13.85 9.491 22.745 0 17.673-14.327 32-32 32-8.566 0-16.346-3.366-22.090-8.848l0.013 0.012-87.893-85.333c-5.976-5.82-9.683-13.944-9.683-22.934 0-8.671 3.449-16.537 9.050-22.301l-0.007 0.008zM836.181 747.605c-5.822 5.989-13.954 9.704-22.954 9.704-8.682 0-16.557-3.458-22.322-9.071l0.007 0.007-87.893-85.333c-5.995-5.827-9.714-13.967-9.714-22.976 0-17.689 14.34-32.029 32.029-32.029 8.68 0 16.554 3.453 22.322 9.060l-0.008-0.007 87.893 85.376c5.976 5.82 9.683 13.944 9.683 22.934 0 8.671-3.449 16.537-9.050 22.301l0.007-0.008zM875.691 111.531c-5.82-5.976-13.944-9.683-22.934-9.683-8.671 0-16.537 3.449-22.301 9.050l0.008-0.007-87.893 85.333c-5.861 5.802-9.491 13.85-9.491 22.745 0 17.673 14.327 32 32 32 8.566 0 16.346-3.366 22.090-8.848l-0.013 0.012 87.893-85.333c5.976-5.82 9.683-13.944 9.683-22.934 0-8.671-3.449-16.537-9.050-22.301l0.007 0.008z" />
<glyph unicode="&#xe903;" glyph-name="us-nuit" horiz-adv-x="1067" d="M535.040 589.227c-76.583 0-138.667-62.083-138.667-138.667s62.083-138.667 138.667-138.667v0c76.583 0 138.667 62.083 138.667 138.667s-62.083 138.667-138.667 138.667v0zM332.373 450.56c0 111.93 90.737 202.667 202.667 202.667s202.667-90.737 202.667-202.667v0c0-111.93-90.737-202.667-202.667-202.667s-202.667 90.737-202.667 202.667v0zM532.053 872.875c17.673 0 32-14.327 32-32v0-119.253c0-17.673-14.327-32-32-32s-32 14.327-32 32v0 119.253c0 17.673 14.327 32 32 32v0zM109.397 453.845c0 17.673 14.327 32 32 32v0h119.253c17.673 0 32-14.327 32-32s-14.327-32-32-32v0h-119.253c-17.673 0-32 14.327-32 32v0zM776.789 450.432c0 17.673 14.327 32 32 32v0h119.296c17.673 0 32-14.327 32-32s-14.327-32-32-32v0h-119.296c-17.673 0-32 14.327-32 32v0zM198.315 47.531c0 17.673 14.327 32 32 32v0h648.32c17.673 0 32-14.327 32-32s-14.327-32-32-32v0h-648.32c-17.673 0-32 14.327-32 32v0zM315.904 172.587c0 17.673 14.327 32 32 32v0h391.808c17.673 0 32-14.327 32-32s-14.327-32-32-32v0h-391.808c-17.673 0-32 14.327-32 32v0zM233.557 750.507c5.822 5.989 13.954 9.705 22.955 9.705 8.661 0 16.518-3.441 22.28-9.030l-0.008 0.008 87.893-85.333c5.566-5.75 8.996-13.597 8.996-22.244 0-17.673-14.327-32-32-32-8.308 0-15.876 3.166-21.565 8.357l0.025-0.023-87.893 85.333c-5.976 5.82-9.683 13.944-9.683 22.934 0 8.671 3.449 16.537 9.050 22.301l-0.007-0.008zM836.181 747.605c-5.822 5.989-13.954 9.704-22.954 9.704-8.682 0-16.557-3.458-22.322-9.071l0.007 0.007-87.893-85.333c-5.995-5.827-9.714-13.967-9.714-22.976 0-17.689 14.34-32.029 32.029-32.029 8.68 0 16.554 3.453 22.322 9.060l-0.008-0.007 87.893 85.376c5.976 5.82 9.683 13.944 9.683 22.934 0 8.671-3.449 16.537-9.050 22.301l0.007-0.008z" />
<glyph unicode="&#xe904;" glyph-name="us-overcast" horiz-adv-x="1067" d="M461.867 809.088c48.128 0 91.477-26.624 117.333-68.736l0.079-0.135c5.694-9.094 15.802-15.141 27.322-15.141 7.061 0 13.591 2.272 18.807 6.060 12.16 8.96 26.581 14.080 42.027 14.080 34.816 0 66.304-26.709 74.453-65.92l0.036-0.21c2.774-13.391 13.806-23.76 27.697-25.561 69.163-8.32 125.909-72.917 125.909-154.88 0-88.021-34.688-155.733-141.483-155.733l-441.429 0.597c-123.435 0-141.483 67.712-141.483 155.776 0 81.109 55.637 145.323 123.904 154.581l0.176 0.021c13.987 2.044 25.080 13.006 27.344 27.115 12.117 74.411 71.253 128.085 139.264 128.085zM754.091 277.376v-0.043c141.44 0.085 205.909 101.12 205.909 221.355 0 104.32-67.755 194.005-161.28 216.149-20.224 55.211-70.4 95.915-131.285 95.915-18.261 0-35.669-3.712-51.627-10.411-37.419 45.227-92.245 74.325-153.984 74.325-95.317 0-173.568-68.907-197.973-160.256-91.477-23.808-157.184-112.384-157.184-215.125 0-119.552 64.427-221.867 205.952-221.867h441.429zM198.315 47.531c0 17.673 14.327 32 32 32v0h648.32c17.673 0 32-14.327 32-32s-14.327-32-32-32v0h-648.32c-17.673 0-32 14.327-32 32v0zM315.904 172.587c0 17.673 14.327 32 32 32v0h391.808c17.673 0 32-14.327 32-32s-14.327-32-32-32v0h-391.808c-17.673 0-32 14.327-32 32v0z" />
<glyph unicode="&#xe905;" glyph-name="us-rain" horiz-adv-x="1067" d="M459.264 813.141c47.829 0 90.88-26.027 116.48-67.115l0.078-0.131c5.671-8.962 15.671-14.913 27.061-14.913 7.053 0 13.572 2.282 18.771 6.084l-0.193-0.136c11.726 8.667 26.221 13.801 41.921 13.832 34.56 0 65.792-26.069 73.899-64.299l0.038-0.211c2.855-13.158 13.803-23.298 27.524-24.962 68.693-8.149 125.013-71.211 125.013-151.168 0-85.931-64.811-152.064-140.459-152.064l-438.272-0.171v0.768c-75.648 0-140.459 66.091-140.459 152.064 0 79.232 55.168 141.867 123.051 150.955l0.168 0.019c13.8 1.912 24.787 12.625 27.139 26.477 11.989 72.576 70.699 125.013 138.24 125.013zM749.397 294.187v-0.085c114.859 0 204.459 98.731 204.459 216.064 0 101.845-67.285 189.355-160.171 210.987-20.053 53.888-69.888 93.653-130.304 93.653-18.133 0-35.413-3.627-51.243-10.24-37.12 44.203-91.605 72.619-152.875 72.619-94.635 0-172.373-67.285-196.565-156.459-90.752-23.211-156.032-109.653-156.032-209.963 0-116.693 88.619-215.040 202.624-216.064v-0.512h440.107zM395.904 254.293c9.723-5.614 16.162-15.958 16.162-27.806 0-5.81-1.548-11.258-4.255-15.955l0.082 0.155-76.331-134.357c-5.55-9.973-16.028-16.608-28.055-16.608-17.673 0-32 14.327-32 32 0 5.982 1.642 11.581 4.499 16.371l-0.081-0.147 76.331 134.357c5.607 9.752 15.966 16.212 27.834 16.212 5.816 0 11.269-1.551 15.968-4.263l-0.155 0.082zM559.36 247.893c9.734-5.612 16.18-15.961 16.18-27.816 0-5.823-1.555-11.283-4.273-15.986l0.082 0.154-76.331-134.4c-5.614-9.732-15.963-16.178-27.819-16.178-17.677 0-32.007 14.33-32.007 32.007 0 5.822 1.554 11.28 4.271 15.984l-0.082-0.154 76.331 134.357c5.612 9.734 15.961 16.18 27.816 16.18 5.823 0 11.283-1.555 15.986-4.273l-0.154 0.082zM720.512 233.685c9.741-5.61 16.194-15.963 16.194-27.824 0-5.802-1.544-11.244-4.244-15.937l0.082 0.155-76.373-134.4c-5.614-9.732-15.963-16.178-27.819-16.178-17.677 0-32.007 14.33-32.007 32.007 0 5.822 1.554 11.28 4.271 15.984l-0.082-0.154 76.373 134.357c5.614 9.723 15.958 16.162 27.806 16.162 5.81 0 11.258-1.548 15.955-4.255l-0.155 0.082z" />
<glyph unicode="&#xe906;" glyph-name="us-snow" horiz-adv-x="1067" d="M534.443 908.416c0.025 0 0.055 0 0.085 0 17.643 0 31.951-14.278 32-31.91v-0.005l0.213-98.56 54.187 54.187c5.699 5.321 13.376 8.588 21.815 8.588 17.673 0 32-14.327 32-32 0-8.44-3.267-16.116-8.606-21.834l0.017 0.019-99.243-99.285 0.341-170.283 155.52 89.344 36.352 135.595c3.777 13.772 16.182 23.724 30.912 23.724 17.674 0 32.001-14.327 32.001-32.001 0-2.944-0.397-5.795-1.142-8.502l0.053 0.225-19.84-74.069 85.461 49.109c4.372 2.388 9.577 3.792 15.111 3.792 17.673 0 32-14.327 32-32 0-11.47-6.035-21.531-15.103-27.18l-0.135-0.079-86.357-49.664 77.483-20.779c13.764-3.784 23.708-16.187 23.708-30.912 0-17.677-14.33-32.007-32.007-32.007-2.952 0-5.81 0.4-8.523 1.147l0.225-0.053-139.52 37.419-194.005-111.488c-5.88-6.693-14.456-10.894-24.014-10.894-1.341 0-2.662 0.083-3.96 0.243l0.155-0.016c-0.499-0.028-1.082-0.044-1.67-0.044-5.892 0-11.41 1.601-16.143 4.392l0.149-0.081-195.925 112.555-0.597-0.171-138.965-37.248c-2.483-0.691-5.334-1.088-8.277-1.088-17.685 0-32.022 14.337-32.022 32.022 0 14.741 9.961 27.156 23.52 30.881l0.225 0.053 77.483 20.736-86.4 49.621c-9.425 5.683-15.631 15.865-15.631 27.496 0 17.673 14.327 32 32 32 5.707 0 11.066-1.494 15.705-4.113l-0.16 0.083 85.461-49.067-19.84 74.027c-0.692 2.483-1.089 5.334-1.089 8.277 0 17.674 14.327 32.001 32.001 32.001 14.73 0 27.135-9.952 30.859-23.499l0.053-0.225 36.309-135.595 154.624-88.832-0.384 173.525-102.144 102.187c-6.274 5.858-10.185 14.178-10.185 23.412 0 17.673 14.327 32 32 32 9.234 0 17.554-3.911 23.394-10.166l0.017-0.019 56.747-56.704-0.213 99.584c0 0.025 0 0.055 0 0.085 0 17.643 14.278 31.951 31.91 32h0.005zM531.669-16.469c-0.013 0-0.028 0-0.043 0-17.658 0-31.976 14.303-32 31.955v0.002l-0.213 98.56-54.187-54.187c-5.828-6.034-13.99-9.78-23.028-9.78-17.673 0-32 14.327-32 32 0 9.027 3.738 17.18 9.749 22.998l0.009 0.008 99.243 99.285-0.341 170.24-155.52-89.301-36.309-135.637c-3.784-13.764-16.187-23.708-30.912-23.708-17.677 0-32.007 14.33-32.007 32.007 0 2.952 0.4 5.81 1.147 8.523l-0.053-0.225 19.84 74.027-85.461-49.067c-4.768-2.976-10.559-4.741-16.761-4.741-17.673 0-32 14.327-32 32 0 12.14 6.76 22.701 16.721 28.124l0.168 0.084 86.357 49.621-77.483 20.736c-13.772 3.777-23.724 16.182-23.724 30.912 0 17.674 14.327 32.001 32.001 32.001 2.944 0 5.795-0.397 8.502-1.142l-0.225 0.053 139.563-37.376 194.005 111.445c5.88 6.693 14.456 10.894 24.014 10.894 1.341 0 2.662-0.083 3.96-0.243l-0.155 0.016c0.484 0.026 1.050 0.041 1.62 0.041 5.894 0 11.414-1.6 16.15-4.389l-0.149 0.081 195.968-112.555 0.555 0.171 139.008 37.248c2.483 0.691 5.334 1.088 8.277 1.088 17.685 0 32.022-14.337 32.022-32.022 0-14.741-9.961-27.156-23.52-30.881l-0.225-0.053-77.483-20.736 86.357-49.579c9.671-5.628 16.068-15.944 16.068-27.755 0-17.676-14.329-32.004-32.004-32.004-5.865 0-11.362 1.578-16.088 4.332l0.152-0.082-85.461 49.067 19.84-74.027c0.691-2.483 1.088-5.334 1.088-8.277 0-17.685-14.337-32.022-32.022-32.022-14.741 0-27.156 9.961-30.881 23.52l-0.053 0.225-36.267 135.595-154.624 88.832 0.341-173.525 102.187-102.144c5.564-5.75 8.993-13.595 8.993-22.242 0-17.673-14.327-32-32-32-8.636 0-16.473 3.421-22.229 8.981l-56.738 56.738 0.213-99.627c0-0.025 0-0.055 0-0.085 0-17.658-14.303-31.976-31.955-32h-0.002z" />
<glyph unicode="&#xe907;" glyph-name="us-squall" horiz-adv-x="1067" d="M392.747 684.373c0 57.771 43.179 104.661 96.427 104.661h6.016c56.619 0 102.485-49.792 102.485-111.232v-5.675c0-64.597-48.213-116.907-107.691-116.907h-295.893v64h295.893c26.88 0 48.725 23.68 48.725 52.907v5.675c0 26.069-19.456 47.232-43.52 47.232h-5.973c-20.736 0-37.547-18.219-37.547-40.704h-58.923zM637.867 543.488c0 62.592 53.12 113.365 118.699 113.365h49.621c68.864 0 124.715-53.333 124.715-119.083s-55.851-119.040-124.715-119.040h-613.205v64h613.205c31.829 0 57.685 24.619 57.685 55.040s-25.856 55.040-57.685 55.040h-49.621c-28.587 0-51.712-22.059-51.712-49.323h-66.987zM640.853 219.435c0-64.943 52.647-117.589 117.589-117.589v0h48.853c68.265 0 123.605 55.34 123.605 123.605s-55.34 123.605-123.605 123.605v0h-612.779v-64h612.736c32.919 0 59.605-26.686 59.605-59.605s-26.686-59.605-59.605-59.605h-48.853c-29.597 0-53.589 23.993-53.589 53.589v0h-64z" />
<glyph unicode="&#xe908;" glyph-name="us-sunrise" horiz-adv-x="1067" d="M535.040 589.227c-76.583 0-138.667-62.083-138.667-138.667s62.083-138.667 138.667-138.667v0c76.583 0 138.667 62.083 138.667 138.667s-62.083 138.667-138.667 138.667v0zM332.373 450.56c0 111.93 90.737 202.667 202.667 202.667s202.667-90.737 202.667-202.667v0c0-111.93-90.737-202.667-202.667-202.667s-202.667 90.737-202.667 202.667v0zM532.053 872.875c17.673 0 32-14.327 32-32v0-119.253c0-17.673-14.327-32-32-32s-32 14.327-32 32v0 119.253c0 17.673 14.327 32 32 32v0zM109.397 453.845c0 17.673 14.327 32 32 32v0h119.253c17.673 0 32-14.327 32-32s-14.327-32-32-32v0h-119.253c-17.673 0-32 14.327-32 32v0zM776.789 450.432c0 17.673 14.327 32 32 32v0h119.296c17.673 0 32-14.327 32-32s-14.327-32-32-32v0h-119.296c-17.673 0-32 14.327-32 32v0zM188.16 139.008c0 17.673 14.327 32 32 32v0h648.277c17.673 0 32-14.327 32-32s-14.327-32-32-32v0h-648.32c-17.673 0-32 14.327-32 32v0zM233.557 750.507c5.822 5.989 13.954 9.705 22.955 9.705 8.661 0 16.518-3.441 22.28-9.030l-0.008 0.008 87.893-85.333c5.566-5.75 8.996-13.597 8.996-22.244 0-17.673-14.327-32-32-32-8.308 0-15.876 3.166-21.565 8.357l0.025-0.023-87.893 85.333c-5.976 5.82-9.683 13.944-9.683 22.934 0 8.671 3.449 16.537 9.050 22.301l-0.007-0.008zM836.181 747.605c-5.822 5.989-13.954 9.704-22.954 9.704-8.682 0-16.557-3.458-22.322-9.071l0.007 0.007-87.893-85.333c-5.995-5.827-9.714-13.967-9.714-22.976 0-17.689 14.34-32.029 32.029-32.029 8.68 0 16.554 3.453 22.322 9.060l-0.008-0.007 87.893 85.376c5.976 5.82 9.683 13.944 9.683 22.934 0 8.671-3.449 16.537-9.050 22.301l0.007-0.008z" />
<glyph unicode="&#xe909;" glyph-name="us-thunder" horiz-adv-x="1067" d="M459.264 813.141c47.829 0 90.88-26.027 116.48-67.115l0.078-0.131c5.671-8.962 15.671-14.913 27.061-14.913 7.053 0 13.572 2.282 18.771 6.084l-0.193-0.136c11.726 8.667 26.221 13.801 41.921 13.832 34.56 0 65.792-26.069 73.899-64.299l0.038-0.211c2.855-13.158 13.803-23.298 27.524-24.962 68.693-8.149 125.013-71.211 125.013-151.168 0-85.931-64.811-152.064-140.459-152.064l-438.272-0.171v0.768c-75.648 0-140.459 66.091-140.459 152.064 0 79.232 55.168 141.867 123.051 150.955l0.168 0.019c13.8 1.912 24.787 12.625 27.139 26.477 11.989 72.576 70.699 125.013 138.24 125.013zM749.397 294.187v-0.085c114.859 0 204.459 98.731 204.459 216.064 0 101.845-67.285 189.355-160.171 210.987-20.053 53.888-69.888 93.653-130.304 93.653-18.133 0-35.413-3.627-51.243-10.24-37.12 44.203-91.605 72.619-152.875 72.619-94.635 0-172.373-67.285-196.565-156.459-90.752-23.211-156.032-109.653-156.032-209.963 0-116.693 88.619-215.040 202.624-216.064v-0.512h440.107zM397.312 254.933c9.741-5.61 16.194-15.963 16.194-27.824 0-5.802-1.544-11.244-4.244-15.937l0.082 0.155-76.373-134.4c-5.614-9.732-15.963-16.178-27.819-16.178-17.677 0-32.007 14.33-32.007 32.007 0 5.822 1.554 11.28 4.271 15.984l-0.082-0.154 76.373 134.357c5.614 9.723 15.958 16.162 27.806 16.162 5.81 0 11.258-1.548 15.955-4.255l-0.155 0.082zM559.36 247.893c9.734-5.612 16.18-15.961 16.18-27.816 0-5.823-1.555-11.283-4.273-15.986l0.082 0.154-76.331-134.4c-5.614-9.732-15.963-16.178-27.819-16.178-17.677 0-32.007 14.33-32.007 32.007 0 5.822 1.554 11.28 4.271 15.984l-0.082-0.154 76.331 134.357c5.612 9.734 15.961 16.18 27.816 16.18 5.823 0 11.283-1.555 15.986-4.273l-0.154 0.082zM720.512 233.685c9.741-5.61 16.194-15.963 16.194-27.824 0-5.802-1.544-11.244-4.244-15.937l0.082 0.155-76.373-134.4c-5.614-9.732-15.963-16.178-27.819-16.178-17.677 0-32.007 14.33-32.007 32.007 0 5.822 1.554 11.28 4.271 15.984l-0.082-0.154 76.373 134.357c5.614 9.723 15.958 16.162 27.806 16.162 5.81 0 11.258-1.548 15.955-4.255l-0.155 0.082zM538.24 715.477c10.357-5.439 17.299-16.121 17.299-28.423 0-5.358-1.317-10.409-3.645-14.846l0.084 0.176-45.227-87.595h97.365c17.663-0.014 31.976-14.335 31.976-32 0-4.353-0.869-8.503-2.444-12.286l0.078 0.212-49.195-120.832c-4.897-11.797-16.324-19.943-29.653-19.943-17.683 0-32.017 14.335-32.017 32.017 0 4.353 0.869 8.503 2.442 12.287l-0.078-0.212 31.275 76.757h-102.315c-17.646 0.035-31.938 14.349-31.938 32 0 5.361 1.318 10.414 3.649 14.853l-0.084-0.176 69.376 134.272c5.439 10.357 16.121 17.299 28.423 17.299 5.358 0 10.409-1.317 14.846-3.645l-0.176 0.084z" />
<glyph unicode="&#xe90a;" glyph-name="us-torrential" horiz-adv-x="1067" d="M459.264 813.141c47.829 0 90.88-26.027 116.48-67.115l0.078-0.131c5.671-8.962 15.671-14.913 27.061-14.913 7.053 0 13.572 2.282 18.771 6.084l-0.193-0.136c11.726 8.667 26.221 13.801 41.921 13.832 34.56 0 65.792-26.069 73.899-64.299l0.038-0.211c2.855-13.158 13.803-23.298 27.524-24.962 68.693-8.149 125.013-71.211 125.013-151.168 0-85.931-64.811-152.064-140.459-152.064l-438.272-0.171v0.768c-75.648 0-140.459 66.091-140.459 152.064 0 79.232 55.168 141.867 123.051 150.955l0.168 0.019c13.8 1.912 24.787 12.625 27.139 26.477 11.989 72.576 70.699 125.013 138.24 125.013zM749.397 294.187v-0.085c114.859 0 204.459 98.731 204.459 216.064 0 101.845-67.285 189.355-160.171 210.987-20.053 53.888-69.888 93.653-130.304 93.653-18.133 0-35.413-3.627-51.243-10.24-37.12 44.203-91.605 72.619-152.875 72.619-94.635 0-172.373-67.285-196.565-156.459-90.752-23.211-156.032-109.653-156.032-209.963 0-116.693 88.619-215.040 202.624-216.064v-0.512h440.107zM344.405 254.293c9.741-5.61 16.194-15.963 16.194-27.824 0-5.802-1.544-11.244-4.244-15.937l0.082 0.155-76.373-134.357c-5.452-10.316-16.112-17.226-28.385-17.226-17.673 0-32 14.327-32 32 0 6.236 1.784 12.055 4.869 16.976l-0.078-0.134 76.331 134.4c5.61 9.741 15.963 16.194 27.824 16.194 5.802 0 11.244-1.544 15.937-4.244l-0.155 0.082zM506.837 248.448c10.339-5.445 17.267-16.117 17.267-28.407 0-5.399-1.337-10.485-3.698-14.946l0.084 0.174-124.971-240.555c-5.54-10.009-16.037-16.673-28.090-16.673-17.673 0-32 14.327-32 32 0 5.155 1.219 10.026 3.385 14.34l-0.084-0.184 124.885 240.597c5.445 10.339 16.117 17.267 28.407 17.267 5.399 0 10.485-1.337 14.946-3.698l-0.174 0.084zM668.885 233.813c9.832-5.587 16.356-15.989 16.356-27.915 0-5.766-1.525-11.175-4.193-15.847l0.083 0.157-29.739-52.992c-5.536-10.026-16.042-16.704-28.108-16.704-17.673 0-32 14.327-32 32 0 5.9 1.597 11.426 4.381 16.172l-0.082-0.151 29.739 52.992c5.59 9.822 15.986 16.338 27.905 16.338 5.753 0 11.151-1.518 15.815-4.175l-0.158 0.083zM830.251 247.808c9.715-5.616 16.148-15.956 16.148-27.798 0-5.83-1.559-11.297-4.284-16.004l0.082 0.154-137.387-240.555c-5.702-9.335-15.834-15.471-27.4-15.471-17.673 0-32 14.327-32 32 0 5.575 1.425 10.816 3.932 15.381l-0.084-0.166 137.344 240.555c5.616 9.715 15.956 16.148 27.798 16.148 5.83 0 11.297-1.559 16.004-4.284l-0.154 0.082z" />
<glyph unicode="&#xe90b;" glyph-name="us-arrow" horiz-adv-x="1109" d="M520.405 744.064c5.491 5.735 8.872 13.53 8.872 22.115 0 17.673-14.327 32-32 32-8.723 0-16.63-3.49-22.402-9.15l0.005 0.005-334.635-338.773 334.421-344.107c5.802-5.861 13.85-9.491 22.745-9.491 17.673 0 32 14.327 32 32 0 8.566-3.366 16.346-8.848 22.090l0.012-0.013-262.4 269.952h693.76c17.673 0 32 14.327 32 32s-14.327 32-32 32v0h-687.701l256.171 259.371z" />
<glyph unicode="&#xe90c;" glyph-name="us-attach" horiz-adv-x="461" d="M170.496 847.718c-35.328 0-64-28.672-64-64v-510.976c0-21.208-17.192-38.4-38.4-38.4s-38.4 17.192-38.4 38.4v0 510.976c0 77.762 63.038 140.8 140.8 140.8v0h119.808c77.762 0 140.8-63.038 140.8-140.8v0-725.862c0-67.299-54.557-121.856-121.856-121.856s-121.856 54.557-121.856 121.856v0 589.568c0 21.208 17.192 38.4 38.4 38.4s38.4-17.192 38.4-38.4v0-589.568c0-24.884 20.172-45.056 45.056-45.056s45.056 20.172 45.056 45.056v0 725.862c0 35.328-28.672 64-64 64h-119.808z" />
<glyph unicode="&#xe90d;" glyph-name="us-battery" horiz-adv-x="1109" d="M983.211 623.915c0 41.237-33.429 74.667-74.667 74.667v0h-708.779c-41.237 0-74.667-33.429-74.667-74.667v0-345.173c0-41.259 33.408-74.667 74.667-74.667h708.779c41.237 0 74.667 33.429 74.667 74.667v0 103.467h52.267v139.691h-52.267v102.016zM908.544 634.581c5.891 0 10.667-4.776 10.667-10.667v0-345.173c0-5.891-4.776-10.667-10.667-10.667v0h-708.779c-5.891 0-10.667 4.776-10.667 10.667v0 345.173c0 5.891 4.776 10.667 10.667 10.667v0h708.779zM213.931 580.267h681.643v-268.203h-681.643v268.203z" />
<glyph unicode="&#xe90e;" glyph-name="us-calendar" horiz-adv-x="1109" d="M896 691.285v0c11.782 0 21.333-9.551 21.333-21.333v-509.269c0-11.782-9.551-21.333-21.333-21.333h-680.747c-11.782 0-21.333 9.551-21.333 21.333v509.269c0 11.782 9.551 21.333 21.333 21.333h680.747zM215.253 755.285c-47.128 0-85.333-38.205-85.333-85.333v0-509.269c0-47.128 38.205-85.333 85.333-85.333v0h680.747c47.128 0 85.333 38.205 85.333 85.333v0 509.269c0 47.128-38.205 85.333-85.333 85.333v0h-680.747zM323.541 710.4v122.283h64v-122.283h-64zM737.835 708.651v122.283h64v-122.283h-64zM961.408 562.56h-813.397v64h813.397v-64zM848.341 233.685c0-23.68-20.139-42.795-44.971-42.795s-44.971 19.2-44.971 42.795c0 23.68 20.139 42.795 44.971 42.795s44.971-19.2 44.971-42.795z" />
<glyph unicode="&#xe90f;" glyph-name="us-camara" horiz-adv-x="1109" d="M127.829 751.445c0 64.801 52.532 117.333 117.333 117.333v0h597.333c64.801 0 117.333-52.532 117.333-117.333v0-597.333c0-64.801-52.532-117.333-117.333-117.333v0h-597.333c-64.801 0-117.333 52.532-117.333 117.333v0 597.333zM245.163 804.779c-29.44 0-53.333-23.893-53.333-53.333v-597.333c0-29.44 23.893-53.333 53.333-53.333h597.333c29.44 0 53.333 23.893 53.333 53.333v597.333c0 29.44-23.893 53.333-53.333 53.333h-597.333zM532.181 564.907c-76.583 0-138.667-62.083-138.667-138.667s62.083-138.667 138.667-138.667v0c76.583 0 138.667 62.083 138.667 138.667s-62.083 138.667-138.667 138.667v0zM329.515 426.24c0 111.93 90.737 202.667 202.667 202.667s202.667-90.737 202.667-202.667v0c0-111.93-90.737-202.667-202.667-202.667s-202.667 90.737-202.667 202.667v0zM836.907 677.291c0-35.346-28.654-64-64-64s-64 28.654-64 64v0c0 35.346 28.654 64 64 64s64-28.654 64-64v0z" />
<glyph unicode="&#xe910;" glyph-name="us-cart" horiz-adv-x="1109" d="M77.099 777.301c0 17.673 14.327 32 32 32v0h77.781c0.011 0 0.024 0 0.037 0 52.122 0 96.305-33.985 111.601-81.005l0.233-0.83 137.899-434.645c7.040-22.187 27.605-37.205 50.773-37.205h281.6c17.673 0 32-14.327 32-32s-14.327-32-32-32v0h-281.6c-52.102 0.022-96.263 34-111.553 81.005l-0.233 0.83-137.899 434.645c-7.056 21.754-27.142 37.205-50.836 37.205-0.008 0-0.016 0-0.024 0h-77.78c-17.673 0-32 14.327-32 32v0zM838.059 635.904h-546.731v64h546.816c41.216 0 74.667-33.408 74.667-74.667v-208.128c0-41.237-33.429-74.667-74.667-74.667v0h-464.512v64h464.384c5.891 0 10.667 4.776 10.667 10.667v0 208.128c0 0 0 0 0 0 0 5.876-4.751 10.642-10.622 10.667h-0.002zM463.573 80.427c0-33.85-27.441-61.291-61.291-61.291s-61.291 27.441-61.291 61.291v0c0 33.85 27.441 61.291 61.291 61.291s61.291-27.441 61.291-61.291v0zM890.411 83.243c0.027-0.682 0.043-1.482 0.043-2.286 0-33.838-27.431-61.269-61.269-61.269s-61.269 27.431-61.269 61.269c0 0.804 0.015 1.604 0.046 2.401l-0.004-0.115c1.264 32.84 28.193 58.983 61.227 58.983s59.962-26.143 61.223-58.868l0.004-0.115zM326.528 531.413c0 17.673 14.327 32 32 32v0h520.107c17.673 0 32-14.327 32-32s-14.327-32-32-32v0h-520.149c-17.673 0-32 14.327-32 32v0zM440.789 694.869c3.024 1.045 6.51 1.648 10.136 1.648 14.050 0 25.985-9.054 30.288-21.646l0.067-0.225 96.171-288.555c0.957-2.901 1.509-6.241 1.509-9.71 0-17.673-14.327-32-32-32-13.906 0-25.741 8.871-30.154 21.262l-0.069 0.224-96.171 288.512c-1.045 3.024-1.648 6.51-1.648 10.136 0 14.050 9.054 25.985 21.646 30.288l0.225 0.067zM634.539 688.896c3.305 1.263 7.126 1.994 11.119 1.994 13.686 0 25.365-8.591 29.938-20.675l0.073-0.22 102.827-278.4c1.257-3.297 1.984-7.11 1.984-11.093 0-17.673-14.327-32-32-32-13.69 0-25.373 8.597-29.943 20.687l-0.073 0.22-102.827 278.4c-1.254 3.294-1.98 7.103-1.98 11.082 0 13.681 8.585 25.356 20.661 29.933l0.22 0.073z" />
<glyph unicode="&#xe911;" glyph-name="us-chart" horiz-adv-x="1109" d="M93.995 208.043c0 17.673 14.327 32 32 32v0h853.888c17.673 0 32-14.327 32-32s-14.327-32-32-32v0h-853.888c-17.673 0-32 14.327-32 32v0zM327.040 672.128c-0.013 0-0.028 0-0.043 0-15.929 0-28.843-12.913-28.843-28.843v0-350.421c0-17.673-14.327-32-32-32s-32 14.327-32 32v0 350.421c1.115 50.436 42.265 90.895 92.864 90.895s91.749-40.459 92.862-90.791l0.002-0.104v-350.421c0-17.673-14.327-32-32-32s-32 14.327-32 32v0 350.421c0 15.929-12.913 28.843-28.843 28.843v0zM793.6 528.299c-15.935-0.024-28.843-12.947-28.843-28.885v0-204.715c0-17.673-14.327-32-32-32s-32 14.327-32 32v0 204.715c0 51.287 41.577 92.864 92.864 92.864s92.864-41.577 92.864-92.864v0-204.715c0-17.673-14.327-32-32-32s-32 14.327-32 32v0 204.715c0 0.013 0 0.028 0 0.043 0 15.929-12.913 28.843-28.843 28.843-0.015 0-0.030 0-0.045 0h0.002zM557.568 740.395c-0.013 0-0.028 0-0.043 0-15.929 0-28.843-12.913-28.843-28.843 0-0.015 0-0.030 0-0.045v0.002-420.48c0-17.673-14.327-32-32-32s-32 14.327-32 32v0 420.48c0 51.287 41.577 92.864 92.864 92.864s92.864-41.577 92.864-92.864v0-420.48c0-17.673-14.327-32-32-32s-32 14.327-32 32v0 420.48c0 0.025 0 0.055 0 0.085 0 15.906-12.894 28.8-28.8 28.8-0.015 0-0.030 0-0.045 0h0.002z" />
<glyph unicode="&#xe912;" glyph-name="us-done" horiz-adv-x="1109" d="M555.264 800.597c-194.404 0-352-157.596-352-352s157.596-352 352-352v0c194.404 0 352 157.596 352 352s-157.596 352-352 352v0zM139.264 448.597c0 229.717 186.24 416 416 416 229.717 0 416-186.283 416-416 0-229.76-186.283-416-416-416-229.75 0-416 186.25-416 416v0zM769.024 622.080c6.068-5.833 9.838-14.018 9.838-23.083 0-8.598-3.391-16.405-8.909-22.155l0.010 0.011-231.040-240.896c-13.611-14.168-32.715-22.971-53.876-22.971-19.883 0-37.951 7.772-51.331 20.443l0.034-0.032-91.307 86.272c-6.471 5.878-10.517 14.325-10.517 23.717 0 17.673 14.327 32 32 32 8.755 0 16.69-3.516 22.467-9.214l-0.004 0.004 91.307-86.315c4.267-4.011 11.008-3.84 15.061 0.384l230.997 240.896c5.834 6.081 14.028 9.86 23.104 9.86 8.588 0 16.386-3.383 22.134-8.889l-0.011-0.032z" />
<glyph unicode="&#xe913;" glyph-name="us-download" horiz-adv-x="1109" d="M249.813 94.080c0-5.888 4.779-10.667 10.667-10.667h588.373c5.891 0 10.667 4.776 10.667 10.667v0 554.667c0 5.891-4.776 10.667-10.667 10.667v0h-124.373c-17.673 0-32 14.327-32 32s14.327 32 32 32v0h124.288c41.259 0 74.667-33.408 74.667-74.667v-554.667c0-41.237-33.429-74.667-74.667-74.667v0h-588.288c-41.237 0-74.667 33.429-74.667 74.667v0 554.667c0 41.259 33.451 74.667 74.667 74.667h136.747c17.673 0 32-14.327 32-32s-14.327-32-32-32v0h-136.747c-5.891 0-10.667-4.776-10.667-10.667v0-554.667zM770.475 479.232c4.857 5.581 7.818 12.924 7.818 20.958 0 17.673-14.327 32-32 32-9.223 0-17.535-3.902-23.375-10.146l-0.017-0.018-132.779-147.541v496.213c0 17.673-14.327 32-32 32s-32-14.327-32-32v0-503.765l-139.648 155.136c-5.856 6.262-14.168 10.164-23.392 10.164-17.673 0-32-14.327-32-32 0-8.035 2.961-15.377 7.851-20.997l-0.033 0.039 215.808-239.787 215.765 239.787z" />
<glyph unicode="&#xe914;" glyph-name="us-edit" horiz-adv-x="1109" d="M157.568 772.267c0 41.259 33.451 74.667 74.667 74.667h438.741c17.673 0 32-14.327 32-32s-14.327-32-32-32v0h-438.741c-5.891 0-10.667-4.776-10.667-10.667v0-660.053c0-5.888 4.779-10.667 10.667-10.667h664.107c5.891 0 10.667 4.776 10.667 10.667v0 474.283c0 17.673 14.327 32 32 32s32-14.327 32-32v0-474.283c0-41.237-33.429-74.667-74.667-74.667v0h-664.107c-41.237 0-74.667 33.429-74.667 74.667v0 660.053zM405.461 200.96l-94.891-19.925 34.56 80.213 515.84 515.84c7.721 7.718 18.386 12.492 30.165 12.492s22.445-4.774 30.165-12.492v0z" />
<glyph unicode="&#xe915;" glyph-name="us-email" horiz-adv-x="1109" d="M125.099 711.979c0 41.259 33.408 74.667 74.667 74.667h725.333c41.216 0 74.667-33.408 74.667-74.667v-512c0-41.237-33.429-74.667-74.667-74.667v0h-725.333c-41.237 0-74.667 33.429-74.667 74.667v0 512zM199.765 722.645c-5.891 0-10.667-4.776-10.667-10.667v0-512c0-5.931 4.779-10.667 10.667-10.667h725.333c5.891 0 10.667 4.776 10.667 10.667v0 512c0 5.891-4.776 10.667-10.667 10.667v0h-725.333zM897.195 691.627c6.35-5.866 10.313-14.235 10.313-23.53 0-8.383-3.223-16.012-8.498-21.718l0.020 0.021-256.64-278.571c-21.509-23.287-52.199-37.821-86.284-37.821-34.45 0-65.433 14.847-86.898 38.492l-0.087 0.097-236.16 260.864c-5.137 5.656-8.282 13.202-8.282 21.483 0 17.675 14.329 32.004 32.004 32.004 9.395 0 17.844-4.048 23.699-10.495l0.024-0.026 236.117-260.864c9.798-10.803 23.888-17.56 39.557-17.56 15.486 0 29.43 6.6 39.173 17.141l0.033 0.036 256.64 278.613c5.866 6.35 14.235 10.313 23.53 10.313 8.383 0 16.012-3.223 21.718-8.498l-0.021 0.020z" />
<glyph unicode="&#xe916;" glyph-name="us-file" horiz-adv-x="1109" d="M833.408 88.832v604.032l-166.101 121.301h-388.523v-725.333h554.667zM854.741 24.832h-597.333c-23.564 0-42.667 19.103-42.667 42.667v0 768c0 23.564 19.103 42.667 42.667 42.667v0h416.853c0.010 0 0.023 0 0.035 0 9.452 0 18.185-3.073 25.257-8.275l-0.118 0.083 180.48-131.84c10.652-7.848 17.487-20.341 17.493-34.431v-636.204c0-23.564-19.103-42.667-42.667-42.667v0zM309.333 618.667c0 17.673 14.327 32 32 32v0h108.117c17.673 0 32-14.327 32-32s-14.327-32-32-32v0h-108.117c-17.673 0-32 14.327-32 32v0zM309.333 448c0 17.673 14.327 32 32 32v0h424.661c17.673 0 32-14.327 32-32s-14.327-32-32-32v0h-424.661c-17.673 0-32 14.327-32 32v0zM309.333 277.333c0 17.673 14.327 32 32 32v0h342.443c17.673 0 32-14.327 32-32s-14.327-32-32-32v0h-342.443c-17.673 0-32 14.327-32 32v0z" />
<glyph unicode="&#xe917;" glyph-name="us-filiter" horiz-adv-x="1109" d="M602.88 80.213h-100.437v468.396c-0.004 29.162-11.48 55.643-30.123 75.135l-175.36 183.808h517.973l-181.333-187.051c-19.669-20.267-30.72-47.445-30.72-75.733v-464.555zM669.013 544.768c0.013 11.554 4.616 22.031 12.084 29.706l219.937 226.806c26.24 27.093 7.083 72.405-30.635 72.405h-628.309c-37.547 0-56.747-45.013-30.891-72.107l213.333-223.573c7.29-7.641 11.776-18.012 11.776-29.431 0-0.003 0-0.006 0-0.009v0-491.819c0-23.564 19.103-42.667 42.667-42.667v0h147.413c23.564 0 42.667 19.103 42.667 42.667v0l-0.043 488.021z" />
<glyph unicode="&#xe918;" glyph-name="us-grid" d="M191.403 765.867h240.811v-240.725h-240.811v240.768zM170.069 829.909c-23.564 0-42.667-19.103-42.667-42.667v0-283.435c0-23.564 19.103-42.667 42.667-42.667v0h283.477c23.564 0 42.667 19.103 42.667 42.667v0 283.392c0 23.564-19.103 42.667-42.667 42.667v0h-283.477zM189.184 354.773h240.768v-240.768h-240.768v240.768zM167.851 418.773c-23.564 0-42.667-19.103-42.667-42.667v0-283.435c0-23.564 19.103-42.667 42.667-42.667v0h283.435c23.564 0 42.667 19.103 42.667 42.667v0 283.435c0 23.564-19.103 42.667-42.667 42.667v0h-283.435zM601.984 764.629h240.811v-240.811h-240.768v240.768zM580.693 828.587c-23.564 0-42.667-19.103-42.667-42.667v0-283.435c0-23.564 19.103-42.667 42.667-42.667v0h283.435c23.564 0 42.667 19.103 42.667 42.667v0 283.477c0 23.564-19.103 42.667-42.667 42.667v0h-283.477zM599.765 353.493h240.768v-240.768h-240.768v240.768zM578.432 417.493c-23.564 0-42.667-19.103-42.667-42.667v0-283.435c0-23.564 19.103-42.667 42.667-42.667v0h283.435c23.564 0 42.667 19.103 42.667 42.667v0 283.435c0 23.564-19.103 42.667-42.667 42.667v0h-283.435z" />
<glyph unicode="&#xe919;" glyph-name="us-hamburger" horiz-adv-x="1109" d="M260.693 633.045c0 17.673 14.327 32 32 32v0h597.333c17.673 0 32-14.327 32-32s-14.327-32-32-32v0h-597.333c-17.673 0-32 14.327-32 32v0zM260.693 419.712c0 17.673 14.327 32 32 32v0h597.333c17.673 0 32-14.327 32-32s-14.327-32-32-32v0h-597.333c-17.673 0-32 14.327-32 32v0zM260.693 206.379c0 17.673 14.327 32 32 32v0h597.333c17.673 0 32-14.327 32-32s-14.327-32-32-32v0h-597.333c-17.673 0-32 14.327-32 32v0z" />
<glyph unicode="&#xe91a;" glyph-name="us-heart" horiz-adv-x="1109" d="M558.848 751.061c46.98 36.479 106.786 58.481 171.731 58.481 155.406 0 281.387-125.981 281.387-281.387 0-77.433-31.277-147.561-81.887-198.44l0.012 0.012c-98.645-98.688-204.8-191.36-304.469-291.072-21.235-21.245-50.576-34.386-82.987-34.386s-61.752 13.141-82.986 34.385v0l-297.088 291.029c-107.179 107.179-84.48 293.035 18.944 396.416 51.939 51.931 123.687 84.050 202.937 84.050 65.945 0 126.696-22.24 175.161-59.628l-0.668 0.495v0.043zM531.968 690.304c-39.123 34.696-90.91 55.887-147.647 55.887-61.556 0-117.286-24.944-157.634-65.275l0.001 0.001c-84.48-84.48-91.008-241.621-7.68-318.293 159.829-147.029 165.589-158.421 285.909-278.741 9.642-9.675 22.981-15.661 37.717-15.661s28.075 5.986 37.716 15.66l0.002 0.002c99.157 99.157 206.080 192.683 304.512 291.072 39.463 39.353 63.88 93.778 63.88 153.906 0 120.036-97.308 217.344-217.344 217.344-55.086 0-105.385-20.493-143.69-54.271l0.237 0.205c-14.805-12.971-40.96-15.104-55.979-1.835z" />
<glyph unicode="&#xe91b;" glyph-name="us-help" horiz-adv-x="1067" d="M531.755 847.445c-217.968 0-394.667-176.698-394.667-394.667v0c0-59.008 12.928-114.901 36.096-165.12 1.856-3.93 2.94-8.538 2.94-13.398 0-0.991-0.045-1.971-0.133-2.939l0.009 0.125-11.947-135.381 41.813 40.149c5.741 5.518 13.554 8.916 22.161 8.916 8.906 0 16.963-3.638 22.764-9.51l0.003-0.003c71.407-72.551 170.67-117.504 280.432-117.504 0.186 0 0.371 0 0.557 0h-0.029c217.968 0 394.667 176.698 394.667 394.667s-176.698 394.667-394.667 394.667v0zM73.088 452.779c0 253.312 205.355 458.667 458.667 458.667s458.667-205.355 458.667-458.667-205.355-458.667-458.667-458.667c-116.395 0-222.72 43.392-303.573 114.816l-81.365-78.080c-5.743-5.529-13.564-8.934-22.181-8.934-17.673 0-32 14.327-32 32 0 0.982 0.044 1.954 0.131 2.914l-0.009-0.124 18.773 212.053c-24.292 53.999-38.443 117.052-38.443 183.411 0 0.215 0 0.429 0 0.644v-0.034zM576 654.293c0-23.564-19.103-42.667-42.667-42.667s-42.667 19.103-42.667 42.667v0c0 23.564 19.103 42.667 42.667 42.667s42.667-19.103 42.667-42.667v0zM530.773 543.744c17.673 0 32-14.327 32-32v0-282.24c0-17.673-14.327-32-32-32s-32 14.327-32 32v0 282.24c0 17.673 14.327 32 32 32v0z" />
<glyph unicode="&#xe91c;" glyph-name="us-hide" horiz-adv-x="1067" d="M387.243 663.211c41.622 18.817 90.242 29.782 141.423 29.782 0.186 0 0.372 0 0.558 0h-0.029c0.018 0 0.038 0 0.059 0 143.604 0 267.128-85.973 321.91-209.256l0.89-2.243c5.065-11.399 16.288-19.204 29.333-19.204 17.676 0 32.004 14.329 32.004 32.004 0 4.63-0.983 9.030-2.752 13.004l0.081-0.204c-65.789 148.318-211.746 249.899-381.428 249.899-0.034 0-0.068 0-0.103 0h0.006c-0.151 0-0.328 0-0.506 0-60.548 0-118.065-12.975-169.922-36.297l2.621 1.054c-11.121-5.175-18.692-16.254-18.692-29.101 0-17.673 14.327-32 32-32 4.533 0 8.847 0.943 12.754 2.643l-0.207-0.080zM264.576 573.184c4.942 5.605 7.959 13.010 7.959 21.12 0 17.674-14.328 32.002-32.002 32.002-9.564 0-18.148-4.196-24.012-10.847l-0.030-0.035c-27.388-31.064-50.473-66.822-67.769-105.723l-1.052-2.65c-1.688-3.77-2.671-8.17-2.671-12.8 0-17.676 14.329-32.004 32.004-32.004 13.046 0 24.268 7.805 29.252 19.001l0.081 0.204c15.525 35.172 35.062 65.439 58.573 92.119l-0.333-0.386zM861.056 404.907l0.081 0.204c4.984 11.195 16.207 19.001 29.252 19.001 17.676 0 32.004-14.329 32.004-32.004 0-4.63-0.983-9.030-2.671-12.8l-1.052-2.652c-64.741-145.72-210.74-247.341-380.473-247.341s-315.733 101.622-381.525 249.993l0.081-0.204c-1.768 3.974-2.75 8.374-2.75 13.004 0 17.686 14.338 32.024 32.024 32.024 13.057 0 24.288-7.814 29.355-19.224l0.89-2.242c54.787-123.271 178.304-209.233 321.9-209.233 77.229 0 148.651 24.865 205.68 66.324l-87.979 69.12 0.1 0.092c-30.492-28.459-71.423-45.874-116.423-45.874-94.257 0-170.667 76.41-170.667 170.667 0 30.643 8.076 59.399 21.774 83.414l-117.187 92.040c-7.413 5.863-12.169 14.937-12.169 25.122 0 17.68 14.332 32.012 32.012 32.012 7.495 0 14.388-2.576 19.776-6.839l118.784-93.44-0.302-0.24c29.43 24.108 67.064 38.574 108.076 38.574 94.257 0 170.667-76.41 170.667-170.667 0-26.646-6.107-51.866-16.552-73.321l99.2-77.909-0.128-0.135c27.819 29.119 50.697 62.998 68.181 102.535zM442.027 496.853c-5.736-12.673-9.079-27.478-9.079-43.063 0-58.91 47.756-106.667 106.667-106.667 24.563 0 47.186 8.302 65.218 22.254l-0.245-0.183-162.56 127.659zM484.267 545.067l157.099-123.435c3.167 9.64 4.994 20.735 4.994 32.256 0 58.91-47.756 106.667-106.667 106.667-20.492 0-39.635-5.779-55.887-15.795l0.461 0.264z" />
<glyph unicode="&#xe91d;" glyph-name="us-home" d="M539.392 761.387c-9.006 7.183-20.553 11.525-33.114 11.525-12.943 0-24.809-4.61-34.046-12.279l0.088 0.071-249.728-206.464c-11.844-9.853-19.328-24.596-19.328-41.086 0-0.016 0-0.031 0-0.047v0.002-393.216c0-29.44 23.893-53.333 53.333-53.333h512c29.44 0 53.333 23.893 53.333 53.333v392.107c-0.011 16.903-7.883 31.965-20.158 41.73l-0.109 0.084-262.272 207.531zM431.531 810.027c20.137 16.745 46.266 26.907 74.768 26.907 27.619 0 53.010-9.543 73.054-25.512l-0.238 0.183 262.272-207.531c27.238-21.68 44.544-54.832 44.544-92.026 0-0.002 0-0.004 0-0.006v0-392.107c0-64.801-52.532-117.333-117.333-117.333v0h-512c-64.801 0-117.333 52.532-117.333 117.333v0 393.216c0 34.987 15.616 68.139 42.581 90.453l249.685 206.421zM447.744 365.269h128v-298.667h-128v298.624zM426.411 429.227c-23.564 0-42.667-19.103-42.667-42.667v0-341.291c0-23.564 19.103-42.667 42.667-42.667v0h170.667c23.564 0 42.667 19.103 42.667 42.667v0 341.333c0 23.564-19.103 42.667-42.667 42.667v0h-170.667z" />
<glyph unicode="&#xe91e;" glyph-name="us-image" horiz-adv-x="1109" d="M190.592 726.187h725.333v-554.667h-725.333v554.667zM169.259 790.187c-23.564 0-42.667-19.103-42.667-42.667v0-597.333c0-23.564 19.103-42.667 42.667-42.667v0h768c23.564 0 42.667 19.103 42.667 42.667v0 597.333c0 23.564-19.103 42.667-42.667 42.667v0h-768zM305.323 230.699c-0.020 0-0.043 0-0.066 0-23.541 0-42.624 19.083-42.624 42.624 0 8.363 2.409 16.164 6.57 22.746l-0.103-0.175 101.973 163.84c7.658 12.158 21.010 20.118 36.221 20.118 15.158 0 28.47-7.904 36.038-19.816l0.103-0.174 73.728-117.461c7.668-12.105 20.991-20.024 36.163-20.024 15.225 0 28.588 7.975 36.139 19.975l0.104 0.177 72.32 116.267c7.658 12.158 21.010 20.118 36.221 20.118 15.158 0 28.47-7.904 36.038-19.816l0.103-0.174 102.827-163.84c4.103-6.437 6.539-14.283 6.539-22.699 0-23.564-19.103-42.667-42.667-42.667-0.004 0-0.008 0-0.011 0l-281.301 0.512 0.043 0.128v0.171l-0.128 0.128h-214.229zM846.080 597.419c0-35.346-28.654-64-64-64s-64 28.654-64 64v0c0 35.346 28.654 64 64 64s64-28.654 64-64v0z" />
<glyph unicode="&#xe91f;" glyph-name="us-internet" d="M509.013 790.869c-176.731 0-320-143.269-320-320s143.269-320 320-320v0c176.731 0 320 143.269 320 320s-143.269 320-320 320v0zM125.013 470.869c0 212.077 171.923 384 384 384s384-171.923 384-384v0c0-212.077-171.923-384-384-384s-384 171.923-384 384v0zM540.501 843.221v-741.12h-64v741.163h64zM226.987 293.504h562.773v-64h-562.773v64zM207.616 663.68h618.24v-64h-618.283v64zM133.035 480h753.92v-64h-753.963v64zM372.565 767.189c4.565 14.421 7.211 24.192 8.192 30.848l63.275-9.472c-2.834-15.741-6.442-29.392-11.005-42.597l0.595 1.978c-2.219-7.040-4.693-14.677-7.339-22.613l-0.341-1.067c2.828 11.044-0.095 2.203-2.975-6.656l-5.601-19.925c-13.039-38.067-24.524-83.994-32.316-131.168l-0.708-5.195c-16.299-106.24-13.824-244.565 57.429-408.619l-58.709-25.472c-76.715 176.64-79.829 327.381-61.995 443.776 8.917 57.984 22.955 107.093 35.285 146.005 3.072 9.728 6.016 18.816 8.789 27.179l0.299 0.896c2.645 8.107 5.035 15.36 7.125 22.101zM646.485 770.859c-3.021 8.443-5.84 18.797-7.916 29.416l-0.233 1.432-63.317-9.472c1.835-12.16 5.931-26.283 10.453-40.619 2.219-7.040 4.693-14.677 7.296-22.613l0.341-1.067c2.773-8.363 5.675-17.195 8.619-26.581 11.861-37.376 24.832-83.029 33.024-136.363 16.299-106.24 13.781-244.565-57.429-408.619l58.709-25.472c76.715 176.64 79.829 327.381 61.995 443.776-9.072 56.063-21.345 105.242-37.245 152.759l1.96-6.754c-3.072 9.728-6.059 18.816-8.789 27.179l-0.299 0.896c-2.645 8.107-5.035 15.36-7.168 22.101z" />
<glyph unicode="&#xe920;" glyph-name="us-loading" horiz-adv-x="1109" d="M554.325 873.131c17.673 0 32-14.327 32-32v0-210.347c0-17.673-14.327-32-32-32s-32 14.327-32 32v0 210.347c0 17.673 14.327 32 32 32v0zM257.28 751.616c5.789 5.782 13.784 9.359 22.613 9.359s16.824-3.576 22.614-9.359v0l148.736-148.736c6.274-5.858 10.185-14.178 10.185-23.412 0-17.673-14.327-32-32-32-9.234 0-17.554 3.911-23.394 10.166l-0.017 0.019-148.736 148.693c-5.782 5.789-9.359 13.784-9.359 22.613s3.576 16.824 9.359 22.614h0.042zM127.659 449.877c0 17.673 14.327 32 32 32v0h210.347c17.673 0 32-14.327 32-32s-14.327-32-32-32v0h-210.347c-17.673 0-32 14.327-32 32v0zM556.715 294.955c17.673 0 32-14.327 32-32v0-210.347c0-17.673-14.327-32-32-32s-32 14.327-32 32v0 210.347c0 17.673 14.327 32 32 32v0zM852.651 750.72c-5.789 5.782-13.784 9.359-22.613 9.359s-16.824-3.576-22.614-9.359l-148.821-148.693c-5.321-5.699-8.588-13.376-8.588-21.815 0-17.673 14.327-32 32-32 8.44 0 16.116 3.267 21.834 8.606l-0.019-0.017 148.779 148.736c5.782 5.789 9.359 13.784 9.359 22.613s-3.576 16.824-9.359 22.614v0l0.043-0.043zM258.176 142.933c5.789-5.782 13.784-9.359 22.613-9.359s16.824 3.576 22.614 9.359l148.778 148.693c5.321 5.699 8.588 13.376 8.588 21.815 0 17.673-14.327 32-32 32-8.44 0-16.116-3.267-21.834-8.606l0.019 0.017-148.821-148.693c-5.77-5.787-9.337-13.773-9.337-22.592 0-8.84 3.585-16.843 9.38-22.635v0zM854.912 141.995c-5.789-5.782-13.784-9.359-22.613-9.359s-16.824 3.576-22.614 9.359v0l-148.779 148.779c-6.274 5.858-10.185 14.178-10.185 23.412 0 17.673 14.327 32 32 32 9.234 0 17.554-3.911 23.394-10.166l0.017-0.019 148.779-148.736c5.782-5.789 9.359-13.784 9.359-22.613s-3.576-16.824-9.359-22.614v-0.042zM983.808 450.56c0 17.673-14.327 32-32 32v0h-210.347c-17.673 0-32-14.327-32-32s14.327-32 32-32v0h210.347c17.673 0 32 14.327 32 32v0z" />
<glyph unicode="&#xe921;" glyph-name="us-location" horiz-adv-x="1109" d="M624.512 446.72c0-35.346-28.654-64-64-64s-64 28.654-64 64v0c0 35.346 28.654 64 64 64s64-28.654 64-64v0zM557.184 634.539c-100.148 0-181.333-81.186-181.333-181.333s81.186-181.333 181.333-181.333v0c100.148 0 181.333 81.186 181.333 181.333s-81.186 181.333-181.333 181.333v0zM311.851 453.205c-0.014 0.962-0.021 2.098-0.021 3.235 0 135.494 109.839 245.333 245.333 245.333s245.333-109.839 245.333-245.333c0-1.138-0.008-2.273-0.023-3.407l0.002 0.172c0-135.494-109.839-245.333-245.333-245.333s-245.333 109.839-245.333 245.333v0zM542.763 847.403h42.667v-165.376h-42.667v165.376zM542.763 238.549h42.667v-165.376h-42.667v165.376zM175.659 429.867v42.667h165.419v-42.667h-165.419zM784.512 429.867v42.667h165.419v-42.667h-165.419z" />
<glyph unicode="&#xe922;" glyph-name="us-lock" horiz-adv-x="1109" d="M278.485 595.328h554.667v-512h-554.667v512zM257.152 659.328c-23.564 0-42.667-19.103-42.667-42.667v0-554.667c0-23.564 19.103-42.667 42.667-42.667v0h597.333c23.564 0 42.667 19.103 42.667 42.667v0 554.667c0 23.564-19.103 42.667-42.667 42.667v0h-597.333zM618.752 418.987c0-35.346-28.654-64-64-64s-64 28.654-64 64v0c0 35.346 28.654 64 64 64s64-28.654 64-64v0zM588.075 410.112v-176.597h-64v176.64h64zM568.747 897.579c115.413-2.987 232.533-87.851 232.533-243.371h-64c0 115.84-84.224 177.152-170.24 179.413-43.093 1.109-84.992-12.885-115.883-41.387-30.421-28.16-52.651-72.747-52.651-138.027h-64c0 80.896 28.16 143.36 73.216 185.003 44.629 41.259 103.424 59.861 161.024 58.368z" />
<glyph unicode="&#xe923;" glyph-name="us-mic" horiz-adv-x="1109" d="M584.96 507.861v0c0-16.141-13.085-29.227-29.227-29.227s-29.227 13.085-29.227 29.227v244.992c0 16.141 13.085 29.227 29.227 29.227s29.227-13.085 29.227-29.227v-244.992zM555.733 846.080c-51.488 0-93.227-41.739-93.227-93.227v0-244.992c0-51.488 41.739-93.227 93.227-93.227s93.227 41.739 93.227 93.227v0 244.992c0 51.488-41.739 93.227-93.227 93.227v0zM340.053 663.808c17.673 0 32-14.327 32-32v0-65.707c0-101.832 82.552-184.384 184.384-184.384s184.384 82.552 184.384 184.384v0 65.707c0 17.673 14.327 32 32 32s32-14.327 32-32v0-65.707c0-137.167-111.196-248.363-248.363-248.363s-248.363 111.196-248.363 248.363v0 65.707c0 17.673 14.327 32 32 32v0h-0.043zM557.44 379.008c17.673 0 32-14.327 32-32v0-203.52c0-17.673-14.327-32-32-32s-32 14.327-32 32v0 203.52c0 17.673 14.327 32 32 32v0zM400.597 123.733c0 17.673 14.327 32 32 32v0h250.88c17.673 0 32-14.327 32-32s-14.327-32-32-32v0h-250.88c-17.673 0-32 14.327-32 32v0z" />
<glyph unicode="&#xe924;" glyph-name="us-more" horiz-adv-x="1109" d="M426.667 448c0-47.128-38.205-85.333-85.333-85.333s-85.333 38.205-85.333 85.333v0c0 47.128 38.205 85.333 85.333 85.333s85.333-38.205 85.333-85.333v0zM682.667 448c0-47.128-38.205-85.333-85.333-85.333s-85.333 38.205-85.333 85.333v0c0 47.128 38.205 85.333 85.333 85.333s85.333-38.205 85.333-85.333v0zM938.667 448c0-47.128-38.205-85.333-85.333-85.333s-85.333 38.205-85.333 85.333v0c0 47.128 38.205 85.333 85.333 85.333s85.333-38.205 85.333-85.333v0z" />
<glyph unicode="&#xe925;" glyph-name="us-mouse" horiz-adv-x="1067" d="M752.939 305.152v0c0-119.729-97.060-216.789-216.789-216.789s-216.789 97.060-216.789 216.789v291.755c0 119.729 97.060 216.789 216.789 216.789s216.789-97.060 216.789-216.789v-291.755zM536.192 877.739c-0.038 0-0.083 0-0.128 0-155.052 0-280.747-125.695-280.747-280.747 0-0.030 0-0.060 0-0.090v0.005-291.755c0-155.076 125.714-280.789 280.789-280.789s280.789 125.714 280.789 280.789v0 291.755c0 0.013 0 0.028 0 0.043 0 155.052-125.695 280.747-280.747 280.747v0l0.043 0.043zM536.491 740.565c17.673 0 32-14.327 32-32v0-236.16c0-17.673-14.327-32-32-32s-32 14.327-32 32v0 236.16c0 17.673 14.327 32 32 32v0z" />
<glyph unicode="&#xe926;" glyph-name="us-notification" horiz-adv-x="1109" d="M309.931 631.381c0 136.554 110.699 247.253 247.253 247.253s247.253-110.699 247.253-247.253v0-219.733l87.723-122.453c35.413-49.365 0.128-118.187-60.672-118.187h-552.277c-61.44 0-96.555 70.101-59.861 119.339l90.581 121.6v219.477zM557.184 814.635c-101.208 0-183.253-82.045-183.253-183.253v0-228.523c0-7.851-2.56-15.488-7.253-21.76l-96-128.981c-1.332-1.76-2.133-3.987-2.133-6.4 0-5.891 4.776-10.667 10.667-10.667h552.277c0.001 0 0.002 0 0.003 0 5.891 0 10.667 4.776 10.667 10.667 0 2.339-0.753 4.502-2.029 6.26l0.021-0.031-92.885 129.621c-4.268 5.892-6.827 13.264-6.827 21.234 0 0.005 0 0.010 0 0.015v-0.001 228.565c0 101.208-82.045 183.253-183.253 183.253v0zM555.264 92.928c21.675 0 40.661 11.605 51.072 29.013 9.045 15.104 22.699 30.421 40.363 30.421 17.707 0 32.427-14.549 27.904-31.616-14.521-53.24-62.445-91.734-119.36-91.734s-104.839 38.494-119.158 90.867l-0.202 0.866c-4.523 17.067 10.24 31.659 27.904 31.659s31.317-15.36 40.405-30.507c10.368-17.365 29.355-29.013 51.072-29.013z" />
<glyph unicode="&#xe927;" glyph-name="us-parson" horiz-adv-x="1109" d="M554.411 81.365v0c-200.295 0-362.667 162.371-362.667 362.667s162.371 362.667 362.667 362.667v0c200.295 0 362.667-162.371 362.667-362.667s-162.371-362.667-362.667-362.667zM554.411 17.365c235.648 0 426.667 191.019 426.667 426.667s-191.019 426.667-426.667 426.667-426.667-191.019-426.667-426.667 191.019-426.667 426.667-426.667zM554.667 554.667v0c-35.346 0-64 28.654-64 64s28.654 64 64 64v0c35.346 0 64-28.654 64-64s-28.654-64-64-64zM554.667 490.667c70.692 0 128 57.308 128 128s-57.308 128-128 128v0c-70.692 0-128-57.308-128-128s57.308-128 128-128v0zM264.747 198.613c14.447 0.342 26.748 9.181 32.124 21.698l0.089 0.233c44.872 99.554 143.236 167.601 257.493 167.601s212.622-68.048 256.777-165.827l0.717-1.774c5.448-12.764 17.759-21.612 32.174-21.93l0.040-0.001c21.845 0 37.675 20.907 29.269 41.003-53.498 125.899-176.114 212.582-318.976 212.582s-265.478-86.683-318.121-210.323l-0.855-2.26c-8.405-20.139 7.424-40.96 29.269-40.96z" />
<glyph unicode="&#xe928;" glyph-name="us-phone" horiz-adv-x="1109" d="M712.448 813.696v0c11.782 0 21.333-9.551 21.333-21.333v-682.667c0-11.782-9.551-21.333-21.333-21.333h-350.379c-11.782 0-21.333 9.551-21.333 21.333v682.667c0 11.782 9.551 21.333 21.333 21.333h350.379zM362.069 877.696c-47.128 0-85.333-38.205-85.333-85.333v0-682.667c0-47.128 38.205-85.333 85.333-85.333v0h350.379c47.128 0 85.333 38.205 85.333 85.333v0 682.667c0 47.128-38.205 85.333-85.333 85.333v0h-350.379zM460.245 748.075c0 17.673 14.327 32 32 32v0h107.52c17.673 0 32-14.327 32-32s-14.327-32-32-32v0h-107.52c-17.673 0-32 14.327-32 32v0zM604.245 181.888c0-35.346-28.654-64-64-64s-64 28.654-64 64v0c0 35.346 28.654 64 64 64s64-28.654 64-64v0z" />
<glyph unicode="&#xe929;" glyph-name="us-plus" horiz-adv-x="1109" d="M555.264 800.597c-194.404 0-352-157.596-352-352s157.596-352 352-352v0c194.404 0 352 157.596 352 352s-157.596 352-352 352v0zM139.264 448.597c0 229.717 186.24 416 416 416 229.717 0 416-186.283 416-416 0-229.76-186.283-416-416-416-229.75 0-416 186.25-416 416v0zM554.667 736.597c17.673 0 32-14.327 32-32v0-512c0-17.673-14.327-32-32-32s-32 14.327-32 32v0 512c0 17.673 14.327 32 32 32v0zM266.667 448.597c0 17.673 14.327 32 32 32v0h512c17.673 0 32-14.327 32-32s-14.327-32-32-32v0h-512c-17.673 0-32 14.327-32 32v0z" />
<glyph unicode="&#xe92a;" glyph-name="us-printer" horiz-adv-x="1109" d="M173.696 647.68c-5.891 0-10.667-4.776-10.667-10.667v0-372.267c0-5.888 4.779-10.667 10.667-10.667h220.203v-64h-220.16c-41.237 0-74.667 33.429-74.667 74.667v0 372.224c0 41.259 33.408 74.667 74.667 74.667h763.52c41.216 0 74.667-33.408 74.667-74.667v-372.224c0-41.237-33.429-74.667-74.667-74.667v0h-212.48v64h212.48c5.891 0 10.667 4.776 10.667 10.667v0 372.224c0 5.891-4.776 10.667-10.667 10.667v0h-763.563zM383.36 845.312c-5.891 0-10.667-4.776-10.667-10.667v0-152.747c0-17.673-14.327-32-32-32s-32 14.327-32 32v0 152.747c0 41.216 33.451 74.667 74.667 74.667h341.333c41.216 0 74.667-33.451 74.667-74.667v-152.747c0-17.673-14.327-32-32-32s-32 14.327-32 32v0 152.747c0 5.891-4.776 10.667-10.667 10.667v0h-341.333zM293.76 375.723c0 17.673 14.327 32 32 32v0h470.784c17.673 0 32-14.327 32-32s-14.327-32-32-32v0h-470.784c-17.673 0-32 14.327-32 32v0zM397.611 369.067c17.673 0 32-14.327 32-32v0-273.579c0-5.888 4.779-10.667 10.667-10.667h231.296c5.891 0 10.667 4.776 10.667 10.667v0 273.579c0 17.673 14.327 32 32 32s32-14.327 32-32v0-273.621c0-41.237-33.429-74.667-74.667-74.667v0h-231.296c-41.237 0-74.667 33.429-74.667 74.667v0 273.621c0 17.673 14.327 32 32 32v0zM266.752 757.76c-5.891 0-10.667-4.776-10.667-10.667v0-53.077c0-17.673-14.327-32-32-32s-32 14.327-32 32v0 53.077c0 41.216 33.451 74.667 74.667 74.667h56.32c17.673 0 32-14.327 32-32s-14.327-32-32-32v0h-56.32zM852.181 756.992c5.891 0 10.667-4.776 10.667-10.667v0-53.077c0-17.673 14.327-32 32-32s32 14.327 32 32v0 53.077c0 41.237-33.429 74.667-74.667 74.667v0h-56.235c-17.673 0-32-14.327-32-32s14.327-32 32-32v0h56.235zM458.667 264.96c0 17.673 14.327 32 32 32v0h139.947c17.673 0 32-14.327 32-32s-14.327-32-32-32v0h-139.947c-17.673 0-32 14.327-32 32v0zM454.656 156.032c0 17.673 14.327 32 32 32v0h139.861c17.673 0 32-14.327 32-32s-14.327-32-32-32v0h-139.861c-17.673 0-32 14.327-32 32v0z" />
<glyph unicode="&#xe92b;" glyph-name="us-scan" horiz-adv-x="1109" d="M203.52 824.064c-5.891 0-10.667-4.776-10.667-10.667v0-277.632h-64v277.632c0 41.259 33.408 74.667 74.667 74.667h268.8v-64h-268.8zM914.859 823.68c5.891 0 10.667-4.776 10.667-10.667v0-277.675h64v277.675c0 41.237-33.429 74.667-74.667 74.667v0h-268.8v-64h268.8zM203.52 72.576c-5.891 0-10.667 4.776-10.667 10.667v0 277.76h-64v-277.675c0-41.216 33.451-74.667 74.667-74.667h268.8v64l-268.8-0.085zM910.080 67.243c5.891 0 10.667 4.776 10.667 10.667v0 277.675h64v-277.675c0-41.237-33.429-74.667-74.667-74.667v0h-268.8v64h268.8zM184.32 452.181c0 17.673 14.327 32 32 32v0h718.379c17.673 0 32-14.327 32-32s-14.327-32-32-32v0h-718.379c-17.673 0-32 14.327-32 32v0z" />
<glyph unicode="&#xe92c;" glyph-name="us-searsh" horiz-adv-x="1067" d="M457.515 821.76c-159.058 0-288-128.942-288-288s128.942-288 288-288v0c159.058 0 288 128.942 288 288s-128.942 288-288 288v0zM105.515 533.76c0 194.404 157.596 352 352 352s352-157.596 352-352v0c0-194.404-157.596-352-352-352s-352 157.596-352 352v0zM677.675 314.112c5.825 6.015 13.975 9.749 22.998 9.749 8.64 0 16.48-3.424 22.238-8.99l-0.009 0.009 215.467-208.384c6.024-5.829 9.764-13.987 9.764-23.019 0-17.681-14.334-32.015-32.015-32.015-8.65 0-16.498 3.43-22.259 9.005l0.009-0.008-215.467 208.427c-6.002 5.824-9.727 13.965-9.727 22.976 0 8.651 3.433 16.499 9.010 22.259l-0.008-0.009z" />
<glyph unicode="&#xe92d;" glyph-name="us-sensor" horiz-adv-x="1067" d="M716.203 410.88c-5.893-6.671-14.468-10.857-24.020-10.857-8.131 0-15.553 3.032-21.198 8.028l0.034-0.029c-23.211 20.48-64.939 44.971-112.299 50.773-45.483 5.547-97.835-5.717-147.627-59.051-5.866-6.285-14.199-10.202-23.446-10.202-17.278 0-31.362 13.676-32.019 30.793l-0.002 0.060c-0.012 0.323-0.018 0.703-0.018 1.085 0 8.487 3.304 16.201 8.695 21.929l-0.015-0.016c64.469 69.12 137.472 86.827 202.197 78.933 62.848-7.68 116.224-39.253 146.901-66.304 6.645-5.891 10.812-14.449 10.812-23.98 0-8.129-3.031-15.55-8.025-21.195l0.029 0.034zM802.56 564.864c-5.893-6.671-14.468-10.857-24.020-10.857-8.131 0-15.553 3.032-21.198 8.028l0.034-0.029c-38.272 33.792-106.667 73.899-184.832 83.456-76.288 9.387-163.712-10.027-245.461-97.621-5.859-6.265-14.175-10.169-23.403-10.169-17.681 0-32.014 14.333-32.014 32.014 0 8.453 3.276 16.141 8.628 21.863l-0.017-0.018c96.469 103.339 204.501 129.152 300.075 117.461 93.653-11.52 173.653-58.624 219.349-98.987 6.659-5.892 10.836-14.459 10.836-24.001 0-8.119-3.024-15.532-8.007-21.174l0.030 0.034zM902.4 693.248c-5.894-6.684-14.477-10.878-24.039-10.878-8.142 0-15.573 3.041-21.221 8.048l0.033-0.029c-54.955 48.469-152.661 105.899-264.875 119.637-110.421 13.525-236.501-14.805-353.579-140.245-5.91-7.022-14.704-11.454-24.533-11.454-17.673 0-32 14.327-32 32 0 9.053 3.76 17.229 9.803 23.050l0.010 0.010c131.755 141.184 278.485 176 408.107 160.128 127.701-15.659 237.099-80.128 299.477-135.168 6.632-5.89 10.791-14.44 10.791-23.962 0-8.118-3.023-15.53-8.004-21.172l0.030 0.035zM386.816 239.488c0 42.581 34.56 77.141 77.099 77.141h143.744c42.539 0 77.099-34.56 77.099-77.141v-143.701c0-42.667-34.56-77.141-77.099-77.141h-143.744c-42.581 0-77.099 34.56-77.099 77.141v143.701zM463.915 252.629c-7.239-0.024-13.099-5.899-13.099-13.141 0 0 0 0 0 0v0-143.701c0-7.253 5.845-13.141 13.099-13.141h143.744c7.253 0 13.099 5.888 13.099 13.141v143.701c0 0 0 0 0 0 0 7.243-5.859 13.117-13.096 13.141h-143.746zM531.456 188.587c0.017-0.331 0.027-0.719 0.027-1.11 0-12.583-10.201-22.784-22.784-22.784-0.055 0-0.109 0-0.163 0.001h0.008c-0.016 0-0.035 0-0.053 0-12.63 0-22.869 10.239-22.869 22.869 0 6.53 2.737 12.421 7.126 16.588l0.010 0.009c4.104 3.917 9.675 6.328 15.809 6.328 12.298 0 22.334-9.69 22.888-21.851l0.002-0.050z" />
<glyph unicode="&#xe92e;" glyph-name="us-servies" horiz-adv-x="1109" d="M382.976 477.099h344.704v-274.432h-344.747v274.432zM446.976 413.099v-146.432h216.704v146.432h-216.747zM647.765 336.896c0-11.093-8.277-20.053-18.517-20.053s-18.475 8.96-18.475 20.053 8.277 20.139 18.517 20.139 18.475-8.96 18.475-20.139zM344.405 600.32c12.117 72.619 71.253 125.013 139.264 125.013 48.213 0 91.52-25.984 117.333-67.072 5.925-9.025 15.999-14.902 27.446-14.902 7.043 0 13.567 2.225 18.906 6.011l-0.102-0.068c12.16 8.747 26.581 13.653 42.027 13.653 34.816 0 66.304-26.027 74.411-64.256 2.962-13.39 13.964-23.527 27.58-25.158l0.153-0.015c69.205-8.107 125.952-71.168 125.952-151.125 0-84.992-33.92-150.571-137.941-152.021v-64c139.008 1.707 202.411 99.669 202.411 216.021 0 101.803-67.755 189.312-161.323 210.944-20.181 53.845-70.4 93.611-131.243 93.611-18.261 0-35.669-3.627-51.627-10.155-37.419 44.117-92.245 72.533-154.027 72.533-95.275 0-173.525-67.243-197.973-156.416-91.392-23.211-157.141-109.653-157.141-209.92 0-116.693 64.427-216.576 205.952-216.576h19.328v64.512h-19.328c-123.435 0-141.483 66.091-141.483 152.064 0 79.147 55.637 141.781 123.904 150.869 14.026 1.879 25.088 12.579 27.492 26.26l0.028 0.193z" />
<glyph unicode="&#xe92f;" glyph-name="us-settings" horiz-adv-x="1109" d="M445.44 795.435c0 41.216 33.451 74.667 74.667 74.667h61.355c41.216 0 74.667-33.451 74.667-74.667v-82.133s0-0.427 0.512-1.152c0.597-0.853 1.707-1.749 3.2-2.389 0.802-0.358 1.738-0.567 2.723-0.567 0.304 0 0.603 0.020 0.896 0.058l-0.034-0.004c0.853 0.171 1.109 0.427 1.28 0.555l58.027 58.027c13.51 13.501 32.169 21.851 52.779 21.851s39.269-8.35 52.779-21.851l43.392-43.349c13.503-13.517 21.854-32.183 21.854-52.8s-8.351-39.283-21.855-52.801l-59.434-59.434s-0.213-0.213-0.299-0.853c-0.128-1.067 0-2.133 0.427-3.072 0.427-1.109 1.152-2.133 2.048-2.816 0.195-0.171 0.421-0.314 0.666-0.42l0.017-0.006h84.139c41.259 0 74.667-33.408 74.667-74.667v-61.312c0-41.237-33.429-74.667-74.667-74.667v0h-90.155c-0.754-0.695-1.238-1.674-1.28-2.766v-0.007l63.872-63.829c13.503-13.517 21.854-32.183 21.854-52.8s-8.351-39.283-21.855-52.801l-43.391-43.348c-13.51-13.501-32.169-21.851-52.779-21.851s-39.269 8.35-52.779 21.851l-66.56 66.56v-94.165c0-41.237-33.429-74.667-74.667-74.667v0h-61.397c-41.237 0-74.667 33.429-74.667 74.667v0 94.165l-66.56-66.56c-13.512-13.514-32.18-21.872-52.8-21.872s-39.288 8.358-52.8 21.872l-43.307 43.307c-13.514 13.512-21.872 32.18-21.872 52.8s8.358 39.288 21.872 52.8l66.56 66.56h-94.208c-41.237 0-74.667 33.429-74.667 74.667v0 61.355c0 41.259 33.451 74.667 74.667 74.667h92.501c0.24 0.326 0.418 0.713 0.508 1.132l0.004 0.020-65.365 65.493c-13.514 13.512-21.872 32.18-21.872 52.8s8.358 39.288 21.872 52.8l43.349 43.349c13.512 13.514 32.18 21.872 52.8 21.872s39.288-8.358 52.8-21.872l60.8-60.843 0.469-0.128c0.181-0.023 0.391-0.036 0.604-0.036 0.771 0 1.502 0.17 2.158 0.476l-0.032-0.013c0.935 0.396 1.712 1.009 2.294 1.778l0.010 0.014 0.213 0.427v85.931zM520.107 806.101c-5.891 0-10.667-4.776-10.667-10.667v0-86.016c0-28.288-18.261-50.859-40.832-60.715-23.552-10.325-53.504-7.595-74.155 13.056l-60.8 60.843c-1.929 1.923-4.591 3.112-7.531 3.112s-5.602-1.189-7.531-3.113v0l-43.392-43.392c-1.936-1.931-3.134-4.602-3.134-7.552s1.198-5.621 3.134-7.552v0l66.048-66.005c18.859-18.859 22.272-46.080 13.696-68.267-8.832-22.827-31.019-41.557-59.136-41.557h-93.44c-5.891 0-10.667-4.776-10.667-10.667v0-61.312c0-5.888 4.779-10.667 10.667-10.667h99.925c25.899 0 46.763-16.555 55.893-37.547 9.387-21.675 6.4-48.896-12.331-67.627l-70.656-70.656c-1.936-1.931-3.134-4.602-3.134-7.552s1.198-5.621 3.134-7.552v0l43.392-43.392c1.929-1.923 4.591-3.112 7.531-3.112s5.602 1.189 7.531 3.113v0l71.979 71.979c10.903 10.721 25.868 17.339 42.379 17.339 8.6 0 16.78-1.795 24.187-5.032l-0.389 0.152c21.035-8.832 37.675-29.611 37.675-55.467v-101.803c0-5.888 4.779-10.667 10.667-10.667h61.355c5.891 0 10.667 4.776 10.667 10.667v0 98.005c0 27.136 17.92 48.725 40.107 57.387 6.839 2.832 14.78 4.477 23.106 4.477 16.876 0 32.173-6.757 43.335-17.713l-0.010 0.009 69.291-69.333c1.931-1.936 4.602-3.134 7.552-3.134s5.621 1.198 7.552 3.134v0l43.349 43.392c1.946 1.926 3.152 4.598 3.152 7.552s-1.205 5.626-3.151 7.551l-64.129 64.129c-20.053 20.053-22.827 49.365-12.629 72.363 9.728 21.845 31.616 39.339 58.965 39.339h90.624c5.891 0 10.667 4.776 10.667 10.667v0 61.312c0 5.891-4.776 10.667-10.667 10.667v0h-84.053c-29.568 0-52.821 19.755-62.293 43.52-9.387 23.467-6.101 52.693 14.080 72.917l59.435 59.392c1.936 1.931 3.134 4.602 3.134 7.552s-1.198 5.621-3.134 7.552v0l-43.349 43.392c-1.931 1.936-4.602 3.134-7.552 3.134s-5.621-1.198-7.552-3.134v0l-58.027-58.069c-20.693-20.693-50.603-23.765-74.453-13.952-23.723 9.771-43.349 33.109-43.349 62.72v82.133c0 5.891-4.776 10.667-10.667 10.667v0h-61.397zM550.912 385.024v0c-38.881 0-70.4 31.519-70.4 70.4s31.519 70.4 70.4 70.4v0c38.881 0 70.4-31.519 70.4-70.4s-31.519-70.4-70.4-70.4zM550.912 321.024c74.227 0 134.4 60.173 134.4 134.4s-60.173 134.4-134.4 134.4v0c-74.227 0-134.4-60.173-134.4-134.4s60.173-134.4 134.4-134.4v0z" />
<glyph unicode="&#xe930;" glyph-name="us-share" horiz-adv-x="1109" d="M588.245 766.293c-29.455 0-53.333-23.878-53.333-53.333s23.878-53.333 53.333-53.333v0c29.455 0 53.333 23.878 53.333 53.333s-23.878 53.333-53.333 53.333v0zM470.912 712.96c0.024 64.783 52.547 117.291 117.333 117.291 64.801 0 117.333-52.532 117.333-117.333s-52.532-117.333-117.333-117.333c-20.228 0-39.26 5.119-55.872 14.131l0.618-0.307-73.941-88.832c18.303-20.565 29.485-47.818 29.485-77.684 0-29.042-10.574-55.614-28.083-76.076l0.134 0.16 87.68-72.96c18.099 11.988 40.319 19.125 64.205 19.125 64.801 0 117.333-52.532 117.333-117.333s-52.532-117.333-117.333-117.333c-64.801 0-117.333 52.532-117.333 117.333 0 18.125 4.11 35.291 11.449 50.615l-0.305-0.706-101.803 84.651c-9.95-3.049-21.386-4.805-33.233-4.805-64.801 0-117.333 52.532-117.333 117.333s52.532 117.333 117.333 117.333c11.941 0 23.464-1.784 34.32-5.099l-0.831 0.218 82.048 98.603c-9.977 16.839-15.872 37.116-15.872 58.769 0 0.084 0 0.168 0 0.252v-0.013zM371.115 496.213c-29.455 0-53.333-23.878-53.333-53.333s23.878-53.333 53.333-53.333v0c29.455 0 53.333 23.878 53.333 53.333s-23.878 53.333-53.333 53.333v0zM612.523 249.131c-29.455 0-53.333-23.878-53.333-53.333s23.878-53.333 53.333-53.333v0c29.455 0 53.333 23.878 53.333 53.333s-23.878 53.333-53.333 53.333v0z" />
<glyph unicode="&#xe931;" glyph-name="us-start" horiz-adv-x="1109" d="M411.264 806.059c2.167-4.2 3.438-9.166 3.438-14.429 0-12.423-7.079-23.192-17.423-28.495l-0.18-0.084c-115.878-59.214-193.835-177.735-193.835-314.464 0-194.404 157.596-352 352-352s352 157.596 352 352c0 136.729-77.957 255.25-191.848 313.541l-1.987 0.923c-10.528 5.388-17.609 16.16-17.609 28.587 0 17.678 14.331 32.009 32.009 32.009 5.251 0 10.208-1.265 14.58-3.506l-0.18 0.084c136.923-69.988 229.035-210.046 229.035-371.618 0-0.033 0-0.066 0-0.099v0.005c-0.053-229.71-186.282-415.906-416-415.906-229.75 0-416 186.25-416 416 0 161.572 92.112 301.63 226.687 370.527l2.348 1.091c4.191 2.157 9.146 3.421 14.395 3.421 12.416 0 23.181-7.071 28.486-17.406l0.084-0.18zM558.507 864.427c17.673 0 32-14.327 32-32v0-538.88c0-17.673-14.327-32-32-32s-32 14.327-32 32v0 538.88c0 17.673 14.327 32 32 32v0z" />
<glyph unicode="&#xe932;" glyph-name="us-subtract" horiz-adv-x="1067" d="M533.931 800.597c-194.404 0-352-157.596-352-352s157.596-352 352-352v0c194.404 0 352 157.596 352 352s-157.596 352-352 352v0zM117.931 448.597c0 229.717 186.24 416 416 416 229.717 0 416-186.283 416-416 0-229.76-186.283-416-416-416-229.75 0-416 186.25-416 416v0zM245.333 448.597c0 17.673 14.327 32 32 32v0h512c17.673 0 32-14.327 32-32s-14.327-32-32-32v0h-512c-17.673 0-32 14.327-32 32v0z" />
<glyph unicode="&#xe933;" glyph-name="us-timer" horiz-adv-x="1109" d="M555.264 800.597c-194.404 0-352-157.596-352-352s157.596-352 352-352v0c194.404 0 352 157.596 352 352s-157.596 352-352 352v0zM139.264 448.597c0 229.717 186.24 416 416 416 229.717 0 416-186.283 416-416 0-229.76-186.283-416-416-416-229.75 0-416 186.25-416 416v0zM490.411 676.267c17.673 0 32-14.327 32-32v0-176.725c0-29.44 23.893-53.333 53.333-53.333h139.947c17.673 0 32-14.327 32-32s-14.327-32-32-32v0h-139.947c-64.801 0-117.333 52.532-117.333 117.333v0 176.725c0 17.673 14.327 32 32 32v0z" />
<glyph unicode="&#xe934;" glyph-name="us-trash" horiz-adv-x="1109" d="M298.667 736c17.673 0 32-14.327 32-32v0-597.333c0-5.888 4.779-10.667 10.667-10.667h426.667c5.891 0 10.667 4.776 10.667 10.667v0 597.333c0 17.673 14.327 32 32 32s32-14.327 32-32v0-597.333c0-41.237-33.429-74.667-74.667-74.667v0h-426.667c-41.237 0-74.667 33.429-74.667 74.667v0 597.333c0 17.673 14.327 32 32 32v0zM181.333 746.667c0 17.673 14.327 32 32 32v0h682.667c17.673 0 32-14.327 32-32s-14.327-32-32-32v0h-682.667c-17.673 0-32 14.327-32 32v0zM469.333 650.667c17.673 0 32-14.327 32-32v0-426.667c0-17.673-14.327-32-32-32s-32 14.327-32 32v0 426.667c0 17.673 14.327 32 32 32v0zM640 650.667c17.673 0 32-14.327 32-32v0-426.667c0-17.673-14.327-32-32-32s-32 14.327-32 32v0 426.667c0 17.673 14.327 32 32 32v0zM452.565 841.387c-5.891 0-10.667-4.776-10.667-10.667v0-64c0-17.673-14.327-32-32-32s-32 14.327-32 32v0 64c0 41.216 33.451 74.667 74.667 74.667h213.333c41.259 0 74.667-33.451 74.667-74.667v-85.333c0-17.673-14.327-32-32-32s-32 14.327-32 32v0 85.333c0 5.891-4.776 10.667-10.667 10.667v0h-213.333z" />
<glyph unicode="&#xe935;" glyph-name="us-unlock" horiz-adv-x="1109" d="M796.587 657.707c-10.752 76.8-47.275 149.376-106.709 193.024-74.667 54.827-177.323 58.368-290.773-16.043-8.33-5.858-13.707-15.429-13.707-26.256 0-17.673 14.327-32 32-32 6.21 0 12.007 1.769 16.914 4.83l-0.135-0.079c96.256 63.147 169.259 53.632 217.813 17.92 40.789-29.867 69.632-82.048 79.872-141.397h-478.848c-23.564 0-42.667-19.103-42.667-42.667v0-554.667c0-23.564 19.103-42.667 42.667-42.667v0h597.333c23.564 0 42.667 19.103 42.667 42.667v0 554.667c0 23.564-19.103 42.667-42.667 42.667v0h-53.76zM274.347 81.707v512h554.667v-512h-554.667zM589.355 368.427c18.52 11.444 30.675 31.634 30.675 54.663 0 35.37-28.673 64.043-64.043 64.043s-64.043-28.673-64.043-64.043c0-24.14 13.356-45.16 33.082-56.075l0.329-0.167v-129.195h64v130.773z" />
<glyph unicode="&#xe936;" glyph-name="us-update" horiz-adv-x="1109" d="M536.747 252.288l-176.213-123.861 176.128-125.44v89.685c75.52 11.691 177.92 44.8 257.408 111.957 51.584 43.605 94.037 102.101 112 178.517 17.92 76.288 10.667 167.296-31.701 274.859-4.639 12.375-16.369 21.023-30.118 21.023-4.209 0-8.229-0.81-11.911-2.284l0.216 0.076c-11.956-4.817-20.24-16.322-20.24-29.761 0-4.507 0.932-8.797 2.613-12.687l-0.080 0.207c38.741-98.389 43.221-175.957 28.928-236.8-14.293-60.715-47.957-107.861-91.008-144.213-65.536-55.424-151.296-84.608-216.064-96v94.72zM559.787 667.307l176.128 123.861-176.128 125.483v-89.728c-75.52-11.648-177.92-44.8-257.365-111.957-51.541-43.52-94.037-102.101-112-178.475-17.92-76.288-10.667-167.339 31.701-274.901 4.995-11.561 16.3-19.504 29.459-19.504 17.673 0 32 14.327 32 32 0 3.937-0.711 7.708-2.012 11.192l0.072-0.221c-38.741 98.389-43.221 175.957-28.928 236.8 14.251 60.715 47.957 107.861 91.008 144.213 65.536 55.467 151.296 84.565 216.064 96v-94.72z" />
<glyph unicode="&#xe937;" glyph-name="us-video" horiz-adv-x="1109" d="M289.323 736.171c-53.019 0-96-42.981-96-96v0-328.192c0-53.019 42.981-96 96-96v0h295.851c53.019 0 96 42.981 96 96v0 50.091c0 0.008 0 0.018 0 0.028 0 17.673 14.327 32 32 32 9.395 0 17.845-4.049 23.699-10.497l0.024-0.027c47.573-52.48 116.693-103.808 167.381-138.24 1.222-0.895 2.735-1.459 4.377-1.535l0.018-0.001c0.041-0.001 0.089-0.001 0.138-0.001 1.362 0 2.639 0.365 3.738 1.002l-0.036-0.019c2.784 1.663 4.619 4.66 4.619 8.086 0 0.157-0.004 0.314-0.012 0.47l0.001-0.022v425.387c0.008 0.148 0.013 0.321 0.013 0.495 0 3.325-1.745 6.243-4.369 7.887l-0.039 0.023c-1.079 0.658-2.384 1.048-3.78 1.048-1.535 0-2.961-0.472-4.139-1.278l0.025 0.016c-50.773-30.080-120.875-76.16-168.789-125.013-5.814-5.937-13.912-9.617-22.869-9.617-17.664 0-31.985 14.312-32 31.973v55.937c0 53.019-42.981 96-96 96v0h-295.851zM129.323 640.171c0 88.366 71.634 160 160 160v0h295.851c0.002 0 0.005 0 0.008 0 83.138 0 151.465-63.409 159.259-144.503l0.050-0.649c43.947 35.072 91.733 65.536 127.701 86.869 50.091 29.696 108.928-8.235 108.928-63.232v-425.301c0-57.045-62.805-94.805-112.725-60.928-35.669 24.192-82.219 57.813-125.013 95.573-12.067-77.451-78.29-136.021-158.193-136.021-0.005 0-0.011 0-0.016 0h-295.85c-88.366 0-160 71.634-160 160v0 328.192zM370.901 607.147c0-35.346-28.654-64-64-64s-64 28.654-64 64v0c0 35.346 28.654 64 64 64s64-28.654 64-64v0z" />
<glyph unicode="&#xe938;" glyph-name="us-vistable" horiz-adv-x="1109" d="M402.987 672.939c41.782 18.885 90.588 29.889 141.964 29.889 143.645 0 267.199-86.022 321.957-209.362l0.89-2.244c5.065-11.399 16.288-19.204 29.333-19.204 17.676 0 32.004 14.329 32.004 32.004 0 4.63-0.983 9.030-2.752 13.004l0.081-0.204c-65.788 148.381-211.793 250.012-381.534 250.012-60.71 0-118.383-13.001-170.388-36.37l2.631 1.057c-11.337-5.094-19.089-16.287-19.089-29.291 0-17.682 14.334-32.017 32.017-32.017 4.679 0 9.124 1.004 13.13 2.808l-0.202-0.081zM280.32 582.827c4.942 5.605 7.959 13.010 7.959 21.12 0 17.674-14.328 32.002-32.002 32.002-9.564 0-18.148-4.196-24.012-10.847l-0.030-0.035c-27.381-31.040-50.466-66.769-67.768-105.639l-1.053-2.649c-1.688-3.77-2.671-8.17-2.671-12.8 0-17.676 14.329-32.004 32.004-32.004 13.046 0 24.268 7.805 29.252 19.001l0.081 0.204c15.533 35.139 35.069 65.377 58.572 92.032l-0.332-0.384zM728.917 443.947v0c0 94.257-76.41 170.667-170.667 170.667s-170.667-76.41-170.667-170.667v0c0-94.257 76.41-170.667 170.667-170.667s170.667 76.41 170.667 170.667zM664.917 443.947c0-58.91-47.756-106.667-106.667-106.667s-106.667 47.756-106.667 106.667v0c0 58.91 47.756 106.667 106.667 106.667s106.667-47.756 106.667-106.667v0zM556.032 196.693c0.018 0 0.038 0 0.059 0 143.604 0 267.128 85.973 321.91 209.256l0.89 2.243c5.031 11.445 16.27 19.293 29.341 19.293 13.493 0 25.032-8.362 29.72-20.186l0.076-0.216c1.399-3.461 2.211-7.476 2.211-11.68 0-4.635-0.987-9.039-2.761-13.014l0.081 0.203c-65.767-148.37-211.751-249.996-381.471-249.996-84.886 0-163.835 25.422-229.648 69.069l1.54-0.96c-67.354 44.568-120.042 106.39-152.42 179.238l-1.052 2.65c-1.688 3.77-2.671 8.17-2.671 12.8 0 17.676 14.329 32.004 32.004 32.004 13.046 0 24.268-7.805 29.252-19.001l0.081-0.204c55.662-125.549 179.198-211.541 322.818-211.541 0.014 0 0.029 0 0.043 0h-0.002zM321.707 634.027c17.673 0 32 14.327 32 32s-14.327 32-32 32v0c-17.673 0-32-14.327-32-32s14.327-32 32-32v0z" />
<glyph unicode="&#xe939;" glyph-name="us-wifi" horiz-adv-x="1109" d="M728.192 357.12c-5.892-6.656-14.457-10.83-23.997-10.83-8.162 0-15.61 3.055-21.262 8.085l0.032-0.028c-22.613 20.011-63.445 43.904-109.653 49.493-44.373 5.504-95.445-5.547-144.085-57.6-5.863-6.274-14.187-10.184-23.424-10.184-17.69 0-32.030 14.34-32.030 32.030 0 8.452 3.274 16.14 8.623 21.864l-0.017-0.018c63.403 67.84 135.040 85.291 198.656 77.483 61.739-7.552 114.176-38.528 144.299-65.067 6.704-5.881 10.913-14.464 10.913-24.031 0-8.15-3.055-15.587-8.083-21.227l0.028 0.032zM808.107 466.176c-5.89-6.632-14.44-10.791-23.962-10.791-8.118 0-15.53 3.023-21.172 8.004l0.035-0.030c-37.419 33.024-104.277 72.235-180.736 81.621-74.539 9.131-160-9.813-239.915-95.445-5.865-6.342-14.229-10.299-23.517-10.299-17.673 0-32 14.327-32 32 0 8.503 3.316 16.231 8.726 21.962l-0.015-0.016c94.677 101.419 200.661 126.763 294.528 115.328 91.947-11.264 170.411-57.6 215.296-97.152 6.656-5.892 10.83-14.457 10.83-23.997 0-8.162-3.055-15.61-8.085-21.262l0.028 0.032zM899.2 580.096c-6.325-7.164-15.531-11.659-25.787-11.659-8.751 0-16.737 3.273-22.803 8.661l0.035-0.031c-53.461 47.147-148.651 103.083-257.877 116.437-107.221 13.141-229.803-14.336-343.851-136.448-6.259-6.457-15.013-10.465-24.704-10.465-18.993 0-34.389 15.397-34.389 34.389 0 8.863 3.352 16.942 8.858 23.040l-0.027-0.030c129.792 139.008 274.56 173.44 402.475 157.781 125.867-15.403 233.557-78.933 294.997-133.12 7.159-6.34 11.648-15.554 11.648-25.816 0-8.733-3.251-16.706-8.609-22.776l0.032 0.037zM624.64 239.573c0-37.985-30.793-68.779-68.779-68.779s-68.779 30.793-68.779 68.779v0c0 37.985 30.793 68.779 68.779 68.779s68.779-30.793 68.779-68.779v0z" />
<glyph unicode="&#xe93a;" glyph-name="us-zoomin" horiz-adv-x="1109" d="M478.848 821.76c-159.058 0-288-128.942-288-288s128.942-288 288-288v0c159.058 0 288 128.942 288 288s-128.942 288-288 288v0zM126.848 533.76c0 194.404 157.596 352 352 352s352-157.596 352-352v0c0-194.404-157.596-352-352-352s-352 157.596-352 352v0zM687.915 304.939c5.825 6.015 13.975 9.749 22.998 9.749 8.64 0 16.48-3.424 22.238-8.99l-0.009 0.009 215.467-208.384c6.034-5.833 9.78-13.999 9.78-23.040 0-17.69-14.34-32.030-32.030-32.030-8.649 0-16.497 3.428-22.26 8.999l0.009-0.009-215.467 208.469c-6.002 5.824-9.727 13.965-9.727 22.976 0 8.651 3.433 16.499 9.010 22.259l-0.008-0.009zM479.701 727.723c17.673 0 32-14.327 32-32v0-341.333c0-17.673-14.327-32-32-32s-32 14.327-32 32v0 341.333c0 17.673 14.327 32 32 32v0zM270.592 531.328c0 17.673 14.327 32 32 32v0h341.333c17.673 0 32-14.327 32-32s-14.327-32-32-32v0h-341.333c-17.673 0-32 14.327-32 32v0z" />
<glyph unicode="&#xe93b;" glyph-name="us-zoomout" horiz-adv-x="1109" d="M478.848 821.76c-159.058 0-288-128.942-288-288s128.942-288 288-288v0c159.058 0 288 128.942 288 288s-128.942 288-288 288v0zM126.848 533.76c0 194.404 157.596 352 352 352s352-157.596 352-352v0c0-194.404-157.596-352-352-352s-352 157.596-352 352v0zM686.080 310.485c5.825 6.015 13.975 9.749 22.998 9.749 8.64 0 16.48-3.424 22.238-8.99l-0.009 0.009 215.467-208.427c6.45-5.876 10.482-14.31 10.482-23.685 0-17.673-14.327-32-32-32-8.994 0-17.121 3.71-22.934 9.683l-0.007 0.007-215.467 208.384c-6.015 5.825-9.749 13.975-9.749 22.998 0 8.64 3.424 16.48 8.99 22.238l-0.009 0.034zM270.592 531.328c0 17.673 14.327 32 32 32v0h341.333c17.673 0 32-14.327 32-32s-14.327-32-32-32v0h-341.333c-17.673 0-32 14.327-32 32v0z" />
<glyph unicode="&#xe93c;" glyph-name="us-carbon" horiz-adv-x="1067" d="M324.864 600.448l-0.027-0.19c-2.342-13.645-13.324-24.337-27.28-26.264-67.755-9.088-123.051-71.723-123.051-150.912 0-85.931 64.853-152.064 140.501-152.064v-0.725l438.229 0.171c75.648 0 140.501 66.091 140.501 152.021 0 80-56.32 143.061-125.013 151.168l-0.154 0.015c-13.567 1.649-24.515 11.789-27.409 25.158-8.064 38.272-39.339 64.299-73.899 64.299h-0.007c-15.693-0.031-30.188-5.165-41.721-13.696l0.091 0.063c-5.289-3.865-11.809-6.147-18.862-6.147-11.39 0-21.39 5.951-27.138 15.044-25.643 41.088-68.651 67.115-116.523 67.115-67.499 0-126.208-52.437-138.24-125.013zM753.237 206.464v0.043h-440.064v0.555c-113.92 1.024-202.624 99.328-202.624 216.021 0 100.352 65.28 186.752 156.075 209.963 24.235 89.173 101.888 156.459 196.565 156.459 61.269 0 115.712-28.416 152.875-72.533 15.094 6.422 32.651 10.155 51.080 10.155 0.042 0 0.085 0 0.127 0h-0.007c60.459 0 110.293-39.765 130.347-93.653 92.885-21.589 160.171-109.141 160.171-210.987 0-117.333-89.6-216.021-204.501-216.021zM598.443 537.941c64.801 0 117.333-52.532 117.333-117.333v0c0-17.673 14.327-32 32-32s32 14.327 32 32v0c0 100.148-81.186 181.333-181.333 181.333v0c-17.673 0-32-14.327-32-32s14.327-32 32-32v0z" />
<glyph unicode="&#xe93d;" glyph-name="us-heat" horiz-adv-x="1067" d="M536.405 632.661c-100.148 0-181.333-81.186-181.333-181.333s81.186-181.333 181.333-181.333v0c100.148 0 181.333 81.186 181.333 181.333s-81.186 181.333-181.333 181.333v0zM291.072 451.328c0 135.494 109.839 245.333 245.333 245.333s245.333-109.839 245.333-245.333v0c0-135.494-109.839-245.333-245.333-245.333s-245.333 109.839-245.333 245.333v0zM536.064 916.437c17.673 0 32-14.327 32-32v0-141.013c0-17.673-14.327-32-32-32s-32 14.327-32 32v0 141.056c0 17.673 14.327 32 32 32v0zM538.027 195.157c17.673 0 32-14.327 32-32v0-140.971c0-17.673-14.327-32-32-32s-32 14.327-32 32v0 140.971c0 17.673 14.327 32 32 32v0zM206.080 775.083c5.789 5.782 13.784 9.359 22.613 9.359s16.824-3.576 22.614-9.359v0l99.669-99.669c6.034-5.828 9.78-13.99 9.78-23.028 0-17.673-14.327-32-32-32-9.027 0-17.18 3.738-22.998 9.749l-0.008 0.009-99.712 99.669c-5.795 5.792-9.38 13.794-9.38 22.635s3.585 16.843 9.38 22.634v0zM211.627 117.035c5.792-5.795 13.794-9.38 22.635-9.38s16.843 3.585 22.634 9.38l99.712 99.712c5.552 5.747 8.972 13.584 8.972 22.22 0 17.673-14.327 32-32 32-8.646 0-16.492-3.429-22.251-9.002l0.009 0.008-99.669-99.669c-5.782-5.789-9.359-13.784-9.359-22.613s3.576-16.824 9.359-22.614v0zM271.275 437.845c0-17.673-14.327-32-32-32v0h-140.8c-17.673 0-32 14.327-32 32s14.327 32 32 32v0h140.8c17.673 0 32-14.327 32-32v0zM861.44 780.672c-5.792 5.795-13.794 9.38-22.635 9.38s-16.843-3.585-22.634-9.38l-99.712-99.712c-5.321-5.699-8.588-13.376-8.588-21.815 0-17.673 14.327-32 32-32 8.44 0 16.116 3.267 21.834 8.606l-0.019-0.017 99.712 99.669c5.782 5.789 9.359 13.784 9.359 22.613s-3.576 16.824-9.359 22.614v0zM866.987 111.445c-5.789-5.782-13.784-9.359-22.613-9.359s-16.824 3.576-22.614 9.359v0l-99.669 99.712c-5.321 5.699-8.588 13.376-8.588 21.815 0 17.673 14.327 32 32 32 8.44 0 16.116-3.267 21.834-8.606l-0.019 0.017 99.712-99.669c5.782-5.789 9.359-13.784 9.359-22.613s-3.576-16.824-9.359-22.614v0zM801.152 443.477c0 17.673 14.327 32 32 32v0h140.8c17.673 0 32-14.327 32-32s-14.327-32-32-32v0h-140.8c-17.673 0-32 14.327-32 32v0zM585.685 464.768v-31.531h-102.443v31.573h102.4zM495.232 544.725v-196.267h-40.448v196.267h40.448zM614.528 544.725v-196.267h-40.32v196.267h40.32z" />
<glyph unicode="&#xe93e;" glyph-name="us-humi" horiz-adv-x="1067" d="M753.323 164.693c-44.416-48.043-114.091-78.805-217.771-78.805-103.723 0-176.341 30.891-223.275 79.701-47.275 49.195-76.501 124.971-76.501 230.101 0 42.453 16.896 91.904 48.128 145.579 30.891 53.035 73.003 105.344 116.608 152.277l0.773 0.833c41.304 44.054 85.183 85.663 133.712 126.485l1.916-1.62c44.867-38.792 87.423-80.186 128.473-125.1 42.453-46.848 83.499-99.2 113.621-152.235 30.464-53.675 47.019-103.381 47.019-146.219 0-106.325-27.477-182.144-72.704-230.997zM535.552 21.888c233.387 0 354.475 140.373 354.475 373.76s-354.475 507.947-354.475 507.947-363.776-274.517-363.776-507.904 130.389-373.803 363.776-373.803zM377.344 352.512c0-64.801 52.532-117.333 117.333-117.333v0c17.673 0 32-14.327 32-32s-14.327-32-32-32v0c-100.148 0-181.333 81.186-181.333 181.333v0c0 17.673 14.327 32 32 32s32-14.327 32-32v0z" />
<glyph unicode="&#xe93f;" glyph-name="us-percent" horiz-adv-x="1067" d="M433.109 598.955c-21.75 0-39.381-17.632-39.381-39.381s17.632-39.381 39.381-39.381v0c21.75 0 39.381 17.632 39.381 39.381s-17.632 39.381-39.381 39.381v0zM329.728 559.573c0 57.096 46.285 103.381 103.381 103.381s103.381-46.285 103.381-103.381v0c0-57.096-46.285-103.381-103.381-103.381s-103.381 46.285-103.381 103.381v0zM630.613 289.835c-21.741-0.012-39.36-17.639-39.36-39.381 0-21.75 17.632-39.381 39.381-39.381 0.007 0 0.015 0 0.022 0h-0.001c21.75 0 39.381 17.632 39.381 39.381s-17.632 39.381-39.381 39.381v0zM527.275 250.453c0 57.096 46.285 103.381 103.381 103.381s103.381-46.285 103.381-103.381v0c0-57.096-46.285-103.381-103.381-103.381s-103.381 46.285-103.381 103.381v0zM673.536 561.92c5.782-5.789 9.359-13.784 9.359-22.613s-3.576-16.824-9.359-22.614v0l-280.405-280.448c-5.75-5.564-13.595-8.993-22.242-8.993-17.673 0-32 14.327-32 32 0 8.636 3.421 16.473 8.981 22.229l280.396 280.439c5.789 5.782 13.784 9.359 22.613 9.359s16.824-3.576 22.614-9.359v0zM540.245 858.453c-1.328 1.187-3.091 1.913-5.023 1.913-1.863 0-3.569-0.675-4.886-1.794l0.011 0.009c-40.619-33.152-123.435-104.704-195.84-191.488-73.6-88.32-130.731-185.685-130.731-271.403 0-110.933 30.891-195.499 85.419-252.245 54.357-56.576 136.107-89.557 246.357-89.557 109.483 0 188.373 32.555 240.299 88.064 5.872 6.416 14.284 10.425 23.633 10.425 17.673 0 32-14.327 32-32 0-8.606-3.397-16.418-8.923-22.169l0.010 0.011c-66.944-71.552-164.565-108.331-287.019-108.331-123.179 0-223.317 37.205-292.48 109.227-68.992 71.765-103.253 174.080-103.253 296.533 0 109.995 70.699 222.72 145.579 312.448 76.117 91.307 162.432 165.76 204.501 200.064v0c12.233 10.086 28.067 16.202 45.328 16.202 17.637 0 33.783-6.385 46.252-16.97l-0.103 0.085c59.634-50.257 113.452-102.426 163.463-158.085l1.315-1.488c4.998-5.621 8.051-13.067 8.051-21.227 0-17.678-14.331-32.008-32.008-32.008-9.518 0-18.066 4.154-23.929 10.749l-0.028 0.033c-49.209 54.802-100.812 104.823-155.677 151.099l-2.317 1.904z" />
<glyph unicode="&#xe940;" glyph-name="us-pm25" d="M302.848 598.528c12.032 72.576 70.741 125.013 138.24 125.013 47.872 0 90.88-26.027 116.523-67.115 5.748-9.093 15.748-15.044 27.138-15.044 7.053 0 13.572 2.282 18.862 6.147l-0.091-0.063c11.533 8.531 26.028 13.665 41.721 13.696h0.007c34.56 0 65.835-26.027 73.899-64.299 2.893-13.369 13.841-23.509 27.409-25.158l0.154-0.015c68.693-8.107 125.013-71.168 125.013-151.125 0-85.973-64.853-152.064-140.501-152.064v-64c114.859 0 204.459 98.731 204.459 216.064 0 101.803-67.243 189.355-160.128 210.944-20.053 53.888-69.888 93.653-130.304 93.653-18.133 0-35.413-3.627-51.243-10.197-37.163 44.16-91.605 72.576-152.875 72.576-94.677 0-172.373-67.285-196.565-156.459-90.795-23.211-156.075-109.653-156.075-209.92 0-117.333 89.6-216.064 204.459-216.064v64c-75.648 0-140.459 66.048-140.459 152.021 0 79.189 55.253 141.824 123.051 150.912 13.956 1.926 24.938 12.619 27.28 26.264l0.027 0.19zM342.272 465.92c0 17.673 14.327 32 32 32v0h278.869c17.673 0 32-14.327 32-32s-14.327-32-32-32v0h-278.869c-17.673 0-32 14.327-32 32v0zM354.389 173.269c0 17.673 14.327 32 32 32v0h278.869c17.673 0 32-14.327 32-32s-14.327-32-32-32v0h-278.869c-17.673 0-32 14.327-32 32v0zM308.907 322.859c0 17.673 14.327 32 32 32v0h371.413c17.673 0 32-14.327 32-32s-14.327-32-32-32v0h-371.413c-17.673 0-32 14.327-32 32v0z" />
<glyph unicode="&#xe941;" glyph-name="us-pm10" horiz-adv-x="1067" d="M344.619 306.005c0 17.673 14.327 32 32 32v0h278.869c17.673 0 32-14.327 32-32s-14.327-32-32-32v0h-278.869c-17.673 0-32 14.327-32 32v0zM311.211 157.44c0 17.673 14.327 32 32 32v0h371.456c17.673 0 32-14.327 32-32s-14.327-32-32-32v0h-371.456c-17.673 0-32 14.327-32 32v0zM462.421 723.541c-67.541 0-126.208-52.437-138.24-125.013-2.352-13.852-13.339-24.565-27.139-26.477l-0.168-0.019c-67.797-9.088-123.051-71.68-123.051-150.912 0-80.768 57.259-144.043 126.976-151.339-4.22-7.76-6.701-16.993-6.701-26.805 0-14.549 5.455-27.824 14.431-37.892l-0.049 0.056c-112.085 3.328-198.656 100.693-198.656 215.979 0 100.352 65.28 186.752 156.032 209.963 24.235 89.173 101.973 156.459 196.565 156.459 61.312 0 115.755-28.416 152.917-72.533 14.286 6.075 30.879 9.758 48.29 10.11l0.137 0.002c-34.067-11.406-58.182-43.028-58.182-80.282 0-1.206 0.025-2.406 0.075-3.6l-0.006 0.171c-11.221 0.15-21.031 6.053-26.632 14.888l-0.077 0.131c-25.643 41.131-68.693 67.115-116.48 67.115zM749.525 580.48c4.868-4.7 11.238-7.873 18.321-8.732l0.154-0.015c68.693-8.107 125.013-71.168 125.013-151.125 0-74.453-48.555-133.973-110.677-148.608 6.281-9.021 10.035-20.209 10.035-32.274 0-12.379-3.952-23.835-10.663-33.176l0.116 0.17c100.437 15.061 175.189 106.667 175.189 213.888 0 101.803-67.243 189.355-160.128 210.944-5.607 14.872-12.863 27.732-21.762 39.26l0.258-0.348c2.519-7.644 3.972-16.442 3.972-25.58 0-25.742-11.531-48.79-29.709-64.262l-0.119-0.099zM695.68 713.643v0c37.974 0 68.757-30.784 68.757-68.757s-30.784-68.757-68.757-68.757h-6.4c-37.974 0-68.757 30.784-68.757 68.757s30.784 68.757 68.757 68.757h6.4zM689.28 756.309c-61.538 0-111.424-49.886-111.424-111.424s49.886-111.424 111.424-111.424h6.4c61.538 0 111.424 49.886 111.424 111.424s-49.886 111.424-111.424 111.424h-6.4z" />
<glyph unicode="&#xe942;" glyph-name="us-potenz" horiz-adv-x="1067" d="M410.539 377.216h-47.616c-12.124 0-21.952 9.828-21.952 21.952s9.828 21.952 21.952 21.952v0h47.616c10.752 0 19.499 1.707 26.283 5.248 6.436 3.338 11.536 8.493 14.717 14.784l0.088 0.192c2.931 6.513 4.638 14.119 4.638 22.123s-1.707 15.61-4.777 22.472l0.14-0.349c-3.216 7.1-8.324 12.867-14.686 16.803l-0.162 0.093c-6.741 4.267-15.488 6.4-26.24 6.4-27.648 0-50.048-22.443-50.048-50.091v-150.741c-0.845-14.871-13.11-26.61-28.117-26.61s-27.273 11.739-28.114 26.536l-0.003 0.074v138.539c0 0.013 0 0.028 0 0.043 0 58.707 47.579 106.301 106.28 106.325h0.002c21.376 0 39.68-3.84 54.955-11.605 15.36-7.68 27.136-18.219 35.243-31.701 8.107-13.525 12.203-28.928 12.203-46.336 0-17.621-4.053-32.853-12.203-45.739-8.57-13.135-20.568-23.39-34.734-29.624l-0.509-0.2c-15.232-6.997-33.579-10.496-54.955-10.496zM711.851 441.728c12.112 0 21.931-9.819 21.931-21.931s-9.819-21.931-21.931-21.931v0h-98.603c-12.112 0-21.931 9.819-21.931 21.931s9.819 21.931 21.931 21.931v0h98.603zM579.883 552.917c15.534-0.024 28.117-12.623 28.117-28.16 0 0 0 0 0 0v0-216.747c-0.605-15.074-12.972-27.064-28.139-27.064s-27.533 11.991-28.137 27.009l-0.002 0.055v216.789c0 15.552 12.608 28.16 28.16 28.16v0zM745.856 552.917c15.531 0 28.075-12.544 28.075-28.032v-216.96c0-15.482-12.55-28.032-28.032-28.032s-28.032 12.55-28.032 28.032v0 216.96c0 15.488 12.544 28.032 28.032 28.032zM540.245 858.453c-1.328 1.187-3.091 1.913-5.023 1.913-1.863 0-3.569-0.675-4.886-1.794l0.011 0.009c-40.619-33.152-123.435-104.704-195.84-191.488-73.6-88.32-130.731-185.685-130.731-271.403 0-110.933 30.891-195.499 85.419-252.245 54.357-56.576 136.107-89.557 246.357-89.557 109.483 0 188.373 32.555 240.299 88.064 5.872 6.416 14.284 10.425 23.633 10.425 17.673 0 32-14.327 32-32 0-8.606-3.397-16.418-8.923-22.169l0.010 0.011c-66.944-71.552-164.565-108.331-287.019-108.331-123.179 0-223.317 37.205-292.48 109.227-68.992 71.765-103.253 174.080-103.253 296.533 0 109.995 70.699 222.72 145.579 312.448 76.117 91.307 162.432 165.76 204.501 200.064v0c12.233 10.086 28.067 16.202 45.328 16.202 17.637 0 33.783-6.385 46.252-16.97l-0.103 0.085c59.634-50.257 113.452-102.426 163.463-158.085l1.315-1.488c4.998-5.621 8.051-13.067 8.051-21.227 0-17.678-14.331-32.008-32.008-32.008-9.518 0-18.066 4.154-23.929 10.749l-0.028 0.033c-49.209 54.802-100.812 104.823-155.677 151.099l-2.317 1.904z" />
<glyph unicode="&#xe943;" glyph-name="us-temp" horiz-adv-x="1067" d="M459.733 365.227l-22.784-19.2c-32.688-27.577-53.309-68.564-53.309-114.367 0-82.475 66.859-149.333 149.333-149.333s149.333 66.859 149.333 149.333c0 45.57-20.412 86.373-52.592 113.765l-0.211 0.175-22.613 19.2v372.395c0 40.636-32.942 73.579-73.579 73.579s-73.579-32.942-73.579-73.579v0-371.968zM395.733 737.195c0 75.983 61.596 137.579 137.579 137.579s137.579-61.596 137.579-137.579v-342.741c46.269-39.381 75.426-97.668 75.426-162.766 0-117.821-95.513-213.333-213.333-213.333s-213.333 95.513-213.333 213.333c0 65.4 29.429 123.926 75.766 163.059l0.317 0.261v342.187zM554.027 283.776v367.957h-42.667v-368.341c-24.784-9.202-42.124-32.649-42.124-60.145 0-35.346 28.654-64 64-64s64 28.654 64 64c0 27.901-17.854 51.633-42.761 60.392l-0.448 0.137z" />
</font>
</defs>
</svg>
