<svg width="25" height="25" viewBox="0 0 25 25" fill="none" xmlns="http://www.w3.org/2000/svg">
<path fill-rule="evenodd" clip-rule="evenodd" d="M5.96967 5.96967C6.26256 5.67678 6.73744 5.67678 7.03033 5.96967L12.5 11.4393L17.9697 5.96967C18.2626 5.67678 18.7374 5.67678 19.0303 5.96967C19.3232 6.26256 19.3232 6.73744 19.0303 7.03033L13.5607 12.5L19.0303 17.9697C19.3232 18.2626 19.3232 18.7374 19.0303 19.0303C18.7374 19.3232 18.2626 19.3232 17.9697 19.0303L12.5 13.5607L7.03033 19.0303C6.73744 19.3232 6.26256 19.3232 5.96967 19.0303C5.67678 18.7374 5.67678 18.2626 5.96967 17.9697L11.4393 12.5L5.96967 7.03033C5.67678 6.73744 5.67678 6.26256 5.96967 5.96967Z" fill="black"/>
</svg>
