<svg width="24" height="25" viewBox="0 0 24 25" fill="none" xmlns="http://www.w3.org/2000/svg">
<path d="M9 18.7263C8.45 18.7263 7.97933 18.5307 7.588 18.1393C7.196 17.7473 7 17.2763 7 16.7263V4.72632C7 4.17632 7.196 3.70532 7.588 3.31332C7.97933 2.92198 8.45 2.72632 9 2.72632H18C18.55 2.72632 19.021 2.92198 19.413 3.31332C19.8043 3.70532 20 4.17632 20 4.72632V16.7263C20 17.2763 19.8043 17.7473 19.413 18.1393C19.021 18.5307 18.55 18.7263 18 18.7263H9ZM9 16.7263H18V4.72632H9V16.7263ZM5 22.7263C4.45 22.7263 3.979 22.5307 3.587 22.1393C3.19567 21.7473 3 21.2763 3 20.7263V7.72632C3 7.44299 3.096 7.20532 3.288 7.01332C3.47933 6.82199 3.71667 6.72632 4 6.72632C4.28333 6.72632 4.521 6.82199 4.713 7.01332C4.90433 7.20532 5 7.44299 5 7.72632V20.7263H15C15.2833 20.7263 15.521 20.8223 15.713 21.0143C15.9043 21.2057 16 21.443 16 21.7263C16 22.0097 15.9043 22.247 15.713 22.4383C15.521 22.6303 15.2833 22.7263 15 22.7263H5Z" fill="currentcolor"/>
</svg>
