<svg width="25" height="25" viewBox="0 0 25 25" fill="none" xmlns="http://www.w3.org/2000/svg">
<g clip-path="url(#clip0_3681_2594)">
<path d="M13.5611 16.17C13.7011 15.81 13.6111 15.4 13.3311 15.12L11.2411 13.06L11.2711 13.03C13.0111 11.09 14.2511 8.86 14.9811 6.5H16.9211C17.4611 6.5 17.9111 6.05 17.9111 5.51V5.49C17.9111 4.95 17.4611 4.5 16.9211 4.5H10.9111V3.5C10.9111 2.95 10.4611 2.5 9.91113 2.5C9.36113 2.5 8.91113 2.95 8.91113 3.5V4.5H2.90113C2.36113 4.5 1.91113 4.95 1.91113 5.49C1.91113 6.04 2.36113 6.48 2.90113 6.48H13.0811C12.4111 8.42 11.3511 10.25 9.91113 11.85C9.10113 10.96 8.42113 9.99 7.85113 8.97C7.69113 8.68 7.40113 8.5 7.07113 8.5C6.38113 8.5 5.94113 9.25 6.28113 9.85C6.91113 10.98 7.68113 12.06 8.58113 13.06L4.21113 17.37C3.81113 17.76 3.81113 18.4 4.21113 18.79C4.60113 19.18 5.23113 19.18 5.63113 18.79L9.91113 14.5L11.9311 16.52C12.4411 17.03 13.3111 16.84 13.5611 16.17ZM18.4111 10.5C17.8111 10.5 17.2711 10.87 17.0611 11.44L13.3911 21.24C13.1511 21.85 13.6111 22.5 14.2611 22.5C14.6511 22.5 15.0011 22.26 15.1411 21.89L16.0311 19.5H20.7811L21.6811 21.89C21.8211 22.25 22.1711 22.5 22.5611 22.5C23.2111 22.5 23.6711 21.85 23.4411 21.24L19.7711 11.44C19.5511 10.87 19.0111 10.5 18.4111 10.5ZM16.7911 17.5L18.4111 13.17L20.0311 17.5H16.7911Z" fill="#1A1A1A"/>
</g>
<defs>
<clipPath id="clip0_3681_2594">
<rect width="24" height="24" fill="white" transform="translate(0.911133 0.5)"/>
</clipPath>
</defs>
</svg>
