<svg width="25" height="25" viewBox="0 0 25 25" fill="none" xmlns="http://www.w3.org/2000/svg">
<g clip-path="url(#clip0_3681_2589)">
<path d="M12.9876 3.49854H13.1211C14.3541 3.50304 20.6016 3.54804 22.2861 4.00104C22.7954 4.13929 23.2594 4.40877 23.6319 4.78255C24.0043 5.15633 24.2722 5.62131 24.4086 6.13103C24.5601 6.70103 24.6666 7.45553 24.7386 8.23404L24.7536 8.39004L24.7866 8.78003L24.7986 8.93603C24.8961 10.307 24.9081 11.591 24.9096 11.8715V11.984C24.9081 12.275 24.8946 13.646 24.7866 15.074L24.7746 15.2315L24.7611 15.3875C24.6861 16.2455 24.5751 17.0975 24.4086 17.7245C24.2722 18.2343 24.0043 18.6992 23.6319 19.073C23.2594 19.4468 22.7954 19.7163 22.2861 19.8545C20.5461 20.3225 13.9326 20.3555 13.0161 20.357H12.8031C12.3396 20.357 10.4226 20.348 8.41263 20.279L8.15763 20.27L8.02713 20.264L7.77063 20.2535L7.51413 20.243C5.84913 20.1695 4.26363 20.051 3.53313 19.853C3.02407 19.7149 2.56016 19.4457 2.18771 19.0722C1.81526 18.6987 1.54732 18.234 1.41063 17.7245C1.24413 17.099 1.13313 16.2455 1.05813 15.3875L1.04613 15.23L1.03413 15.074C0.959678 14.0577 0.918656 13.0391 0.911133 12.02L0.911133 11.8355C0.914133 11.513 0.926133 10.3985 1.00713 9.16853L1.01763 9.01403L1.02213 8.93603L1.03413 8.78003L1.06713 8.39004L1.08213 8.23404C1.15413 7.45553 1.26063 6.69953 1.41213 6.13103C1.54859 5.62131 1.81643 5.15633 2.18889 4.78255C2.56136 4.40877 3.02539 4.13929 3.53463 4.00104C4.26513 3.80604 5.85063 3.68604 7.51563 3.61104L7.77063 3.60054L8.02863 3.59154L8.15763 3.58704L8.41413 3.57654C9.8417 3.53064 11.2698 3.50514 12.6981 3.50004L12.9876 3.49854ZM10.5111 8.31353V15.5405L16.7466 11.9285L10.5111 8.31353Z" fill="#1A1A1A"/>
</g>
<defs>
<clipPath id="clip0_3681_2589">
<rect width="24" height="24" fill="white" transform="translate(0.911133 0.5)"/>
</clipPath>
</defs>
</svg>
