<svg xmlns="http://www.w3.org/2000/svg" width="26" height="24" fill="currentColor" viewBox="0 0 26 24">
  <path fill-rule="evenodd" d="M8.114 8.426c.282-1.7 1.658-2.93 3.24-2.93 1.122 0 2.13.61 2.73 1.573a.75.75 0 0 0 1.077.21 1.66 1.66 0 0 1 .978-.32c.81 0 1.543.61 1.732 1.506a.75.75 0 0 0 .646.59c1.61.19 2.93 1.668 2.93 3.543 0 2.014-1.52 3.563-3.293 3.563v.004H7.883v-.017c-1.773 0-3.293-1.55-3.293-3.564 0-1.856 1.296-3.324 2.884-3.537a.75.75 0 0 0 .64-.62Zm10.04 9.235H7.84v-.014c-2.67-.024-4.75-2.328-4.75-5.063 0-2.352 1.53-4.377 3.659-4.92.568-2.09 2.388-3.668 4.607-3.668 1.436 0 2.712.666 3.583 1.7a3.13 3.13 0 0 1 1.2-.238c1.417 0 2.585.932 3.055 2.195 2.177.506 3.754 2.558 3.754 4.945 0 2.75-2.1 5.063-4.793 5.063h-.001Zm-3.628-7.769a2.75 2.75 0 0 1 2.75 2.75.75.75 0 1 0 1.5 0 4.25 4.25 0 0 0-4.25-4.25.75.75 0 1 0 0 1.5Z" clip-rule="evenodd"/>
  <path fill-rule="evenodd" d="M8.114 8.426c.282-1.7 1.658-2.93 3.24-2.93 1.122 0 2.13.61 2.73 1.573a.75.75 0 0 0 1.077.21 1.66 1.66 0 0 1 .978-.32c.81 0 1.543.61 1.732 1.506a.75.75 0 0 0 .646.59c1.61.19 2.93 1.668 2.93 3.543 0 2.014-1.52 3.563-3.293 3.563v.004H7.883v-.017c-1.773 0-3.293-1.55-3.293-3.564 0-1.856 1.296-3.324 2.884-3.537a.75.75 0 0 0 .64-.62Zm10.04 9.235H7.84v-.014c-2.67-.024-4.75-2.328-4.75-5.063 0-2.352 1.53-4.377 3.659-4.92.568-2.09 2.388-3.668 4.607-3.668 1.436 0 2.712.666 3.583 1.7a3.13 3.13 0 0 1 1.2-.238c1.417 0 2.585.932 3.055 2.195 2.177.506 3.754 2.558 3.754 4.945 0 2.75-2.1 5.063-4.793 5.063h-.001Zm-3.628-7.769a2.75 2.75 0 0 1 2.75 2.75.75.75 0 1 0 1.5 0 4.25 4.25 0 0 0-4.25-4.25.75.75 0 1 0 0 1.5Z" clip-rule="evenodd"/>
</svg>
