<svg xmlns="http://www.w3.org/2000/svg" width="26" height="24" fill="currentColor" viewBox="0 0 26 24">
  <path fill-rule="evenodd" d="M18.156 18.64c1.06-1.145 1.704-2.922 1.704-5.414 0-1.004-.388-2.17-1.102-3.427-.706-1.243-1.668-2.47-2.663-3.568a35.34 35.34 0 0 0-3.056-2.97 35.886 35.886 0 0 0-3.152 2.984c-1.022 1.1-2.01 2.326-2.733 3.569-.732 1.258-1.128 2.417-1.128 3.412 0 2.464.685 4.24 1.793 5.393 1.1 1.144 2.802 1.868 5.233 1.868 2.43 0 4.063-.721 5.104-1.847Zm-5.104 3.347c5.47 0 8.308-3.29 8.308-8.76S13.052 1.322 13.052 1.322 4.526 7.756 4.526 13.226s3.056 8.76 8.526 8.76Z" clip-rule="evenodd"/>
  <path fill-rule="evenodd" d="M9.344 14.238a2.75 2.75 0 0 0 2.75 2.75.75.75 0 0 1 0 1.5 4.25 4.25 0 0 1-4.25-4.25.75.75 0 1 1 1.5 0Z" clip-rule="evenodd"/>
</svg>
