<svg xmlns="http://www.w3.org/2000/svg" width="26" height="24" fill="currentColor" viewBox="0 0 26 24">
  <path fill-rule="evenodd" d="M13.072 7.672a4.25 4.25 0 1 0 0 8.5 4.25 4.25 0 0 0 0-8.5Zm-5.75 4.25a5.75 5.75 0 1 1 11.5 0 5.75 5.75 0 0 1-11.5 0Zm5.742-10.901a.75.75 0 0 1 .75.75v3.305a.75.75 0 0 1-1.5 0V1.77a.75.75 0 0 1 .75-.75v.001Z" clip-rule="evenodd"/>
  <path fill-rule="evenodd" d="M13.11 17.926a.75.75 0 0 1 .75.75v3.304a.75.75 0 1 1-1.5 0v-3.304a.75.75 0 0 1 .75-.75ZM5.33 4.334a.75.75 0 0 1 1.06 0L8.726 6.67a.75.75 0 1 1-1.06 1.061L5.33 5.395a.75.75 0 0 1 .001-1.06Zm.13 15.423a.75.75 0 0 0 1.061 0l2.337-2.337a.75.75 0 0 0-1.06-1.06L5.46 18.696a.75.75 0 0 0 0 1.06v.001Zm1.398-7.519a.75.75 0 0 1-.75.75h-3.3a.75.75 0 1 1 0-1.5h3.3a.75.75 0 0 1 .75.75ZM20.69 4.203a.749.749 0 0 0-1.06 0L17.291 6.54a.75.75 0 0 0 1.06 1.06l2.337-2.336a.75.75 0 0 0 0-1.06h.001Zm.13 15.685a.75.75 0 0 1-1.06 0l-2.336-2.337a.75.75 0 0 1 1.06-1.06l2.337 2.336a.75.75 0 0 1 0 1.06v.001Zm-1.543-7.782a.75.75 0 0 1 .75-.75h3.3a.75.75 0 0 1 0 1.5h-3.3a.75.75 0 0 1-.75-.75Z" clip-rule="evenodd"/>
  <path d="M14.227 11.607v.739h-2.4v-.74h2.4Zm-2.12-1.874v4.6h-.948v-4.6h.948Zm2.796 0v4.6h-.945v-4.6h.945Z"/>
</svg>
