<svg xmlns="http://www.w3.org/2000/svg" width="26" height="24" fill="currentColor" viewBox="0 0 26 24">
  <path fill-rule="evenodd" d="M10.651 8.462a.923.923 0 1 0 0 1.846.923.923 0 0 0 0-1.846Zm-2.423.923a2.423 2.423 0 1 1 4.846 0 2.423 2.423 0 0 1-4.846 0Zm7.052 6.322a.923.923 0 1 0 .001 0h-.001Zm-2.422.923a2.423 2.423 0 1 1 4.846 0 2.423 2.423 0 0 1-4.846 0Zm3.428-7.3a.75.75 0 0 1 0 1.06l-6.572 6.573a.75.75 0 0 1-1.061-1.06l6.572-6.573a.75.75 0 0 1 1.06 0h.001Z" clip-rule="evenodd"/>
  <path fill-rule="evenodd" d="M13.162 2.38a.177.177 0 0 0-.232-.003c-.952.777-2.893 2.454-4.59 4.488-1.725 2.07-3.064 4.352-3.064 6.361 0 2.6.724 4.582 2.002 5.912 1.274 1.326 3.19 2.1 5.774 2.1 2.566 0 4.415-.764 5.632-2.065a.75.75 0 1 1 1.095 1.025c-1.57 1.677-3.857 2.54-6.727 2.54-2.887 0-5.234-.873-6.855-2.56-1.617-1.683-2.42-4.08-2.42-6.95 0-2.579 1.657-5.22 3.412-7.324 1.784-2.14 3.807-3.885 4.793-4.689a1.676 1.676 0 0 1 2.144.016 37.901 37.901 0 0 1 3.862 3.74.75.75 0 0 1-1.123.995 36.279 36.279 0 0 0-3.703-3.586Z" clip-rule="evenodd"/>
</svg>
