<svg xmlns="http://www.w3.org/2000/svg" width="25" height="24" fill="currentColor" viewBox="0 0 25 24">
  <path d="M7.598 8.472c.282-1.701 1.658-2.93 3.24-2.93 1.122 0 2.13.61 2.731 1.573a.75.75 0 0 0 1.076.21 1.66 1.66 0 0 1 .978-.321c.81 0 1.543.61 1.732 1.507a.75.75 0 0 0 .646.59c1.61.19 2.93 1.668 2.93 3.542 0 2.015-1.52 3.564-3.293 3.564v1.5c2.692 0 4.792-2.314 4.792-5.064 0-2.386-1.576-4.438-3.753-4.944-.47-1.263-1.638-2.195-3.054-2.195-.425 0-.83.085-1.2.239-.872-1.035-2.148-1.701-3.584-1.701-2.219 0-4.04 1.577-4.607 3.667-2.128.544-3.658 2.57-3.658 4.92 0 2.75 2.1 5.064 4.792 5.064v-1.5c-1.773 0-3.292-1.548-3.292-3.563 0-1.856 1.295-3.324 2.884-3.537a.75.75 0 0 0 .64-.621Z"/>
  <path fill-rule="evenodd" d="M8.522 11.58a.75.75 0 0 1 .75-.75h6.536a.75.75 0 0 1 0 1.5H9.272a.75.75 0 0 1-.75-.75Zm.284 6.86a.75.75 0 0 1 .75-.75h6.536a.75.75 0 0 1 0 1.5H9.556a.75.75 0 0 1-.75-.75ZM7.74 14.932a.75.75 0 0 1 .75-.75h8.705a.75.75 0 0 1 0 1.5H8.49a.75.75 0 0 1-.75-.75Z" clip-rule="evenodd"/>
</svg>
