<svg xmlns="http://www.w3.org/2000/svg" width="26" height="24" fill="currentColor" viewBox="0 0 26 24">
  <path fill-rule="evenodd" d="M8.577 15.328a.75.75 0 0 1 .75-.75h6.536a.75.75 0 1 1 0 1.5H9.327a.75.75 0 0 1-.75-.75Zm-.783 3.482a.75.75 0 0 1 .75-.75h8.706a.75.75 0 1 1 0 1.5H8.544a.75.75 0 0 1-.75-.75Z" clip-rule="evenodd"/>
  <path fill-rule="evenodd" d="M11.338 5.542c-1.583 0-2.958 1.229-3.24 2.93a.75.75 0 0 1-.64.621c-1.589.213-2.884 1.68-2.884 3.537 0 1.893 1.342 3.376 2.976 3.547a1.335 1.335 0 0 0 .18 1.515c-2.627-.078-4.656-2.36-4.656-5.062 0-2.352 1.53-4.377 3.657-4.921.568-2.09 2.39-3.667 4.607-3.667 1.437 0 2.713.666 3.584 1.7a3.13 3.13 0 0 1 1.135-.237 1.98 1.98 0 0 0-1.362 1.962.75.75 0 0 1-.626-.352c-.6-.964-1.61-1.573-2.73-1.573Zm6.73 3.353a.75.75 0 0 0 .432.205c1.61.19 2.93 1.668 2.93 3.542 0 1.745-1.138 3.14-2.594 3.483a1.334 1.334 0 0 1-.012 1.53c2.354-.353 4.106-2.5 4.106-5.013 0-2.386-1.576-4.438-3.753-4.944a3.512 3.512 0 0 0-.504-.912 1.977 1.977 0 0 1-.606 2.108v.001Z" clip-rule="evenodd"/>
  <path fill-rule="evenodd" d="M16.805 5.774h-.15a1.612 1.612 0 0 0 0 3.223h.15a1.611 1.611 0 1 0 0-3.223Zm-.15-1a2.612 2.612 0 0 0 0 5.223h.15a2.612 2.612 0 1 0 0-5.223h-.15Z" clip-rule="evenodd"/>
</svg>
