<svg xmlns="http://www.w3.org/2000/svg" width="26" height="24" fill="currentColor" viewBox="0 0 26 24">
  <path d="M10.122 13.659H9.006a.514.514 0 1 1 0-1.029h1.116c.252 0 .457-.04.616-.123a.79.79 0 0 0 .347-.351 1.292 1.292 0 0 0 0-1.037.888.888 0 0 0-.348-.396c-.158-.1-.363-.15-.615-.15-.648 0-1.173.526-1.173 1.174v3.533a.66.66 0 0 1-1.318 0v-3.247a2.492 2.492 0 0 1 2.49-2.493c.502 0 .93.09 1.289.272.36.18.636.427.826.743.19.317.286.678.286 1.086 0 .413-.095.77-.286 1.072-.2.31-.488.553-.826.699-.357.164-.787.246-1.288.246v.001Zm7.062-1.512a.514.514 0 0 1 0 1.028h-2.311a.514.514 0 1 1 0-1.028h2.31ZM14.09 9.541a.66.66 0 0 1 .659.66v5.08a.66.66 0 0 1-1.32 0V10.2a.66.66 0 0 1 .66-.66v.001Zm3.89 0c.364 0 .658.294.658.657v5.085a.657.657 0 0 1-1.314 0v-5.085c0-.363.293-.657.656-.657Z"/>
  <path fill-rule="evenodd" d="M13.162 2.38a.177.177 0 0 0-.232-.003c-.952.777-2.893 2.454-4.59 4.488-1.725 2.07-3.064 4.352-3.064 6.361 0 2.6.724 4.582 2.002 5.912 1.274 1.326 3.19 2.1 5.774 2.1 2.566 0 4.415-.764 5.632-2.065a.75.75 0 1 1 1.095 1.025c-1.57 1.677-3.857 2.54-6.727 2.54-2.887 0-5.234-.873-6.855-2.56-1.617-1.683-2.42-4.08-2.42-6.95 0-2.579 1.657-5.22 3.412-7.324 1.784-2.14 3.807-3.885 4.793-4.689a1.676 1.676 0 0 1 2.144.016 37.901 37.901 0 0 1 3.862 3.74.75.75 0 0 1-1.123.995 36.279 36.279 0 0 0-3.703-3.586Z" clip-rule="evenodd"/>
</svg>
