<svg width="118" height="36" viewBox="0 0 118 36" fill="none" xmlns="http://www.w3.org/2000/svg">
<path d="M15.7689 0.29541C4.40127 0.29541 0.409016 6.72124 0.125608 14.0591C-0.231027 23.2889 3.81506 29.2973 13.2079 29.8803C14.148 29.9386 15.0045 30.4096 15.5231 31.1651L17.7907 34.4696C18.145 35.4129 19.4967 35.5925 20.1229 34.7771L21.6737 32.7598C23.1474 30.8431 24.8537 29.1279 26.5589 27.4088C28.8254 25.1243 32.104 21.3468 32.104 15.1092C32.1032 6.55809 27.727 0.29541 15.7689 0.29541ZM15.7689 23.2886C11.6484 23.2886 8.29259 19.9716 8.29259 15.8987C8.29259 15.16 8.90136 14.5583 9.64867 14.5583C10.396 14.5583 11.0048 15.1604 11.0048 15.8987C11.0048 18.4985 13.1426 20.6116 15.7685 20.6116C18.3987 20.6116 20.5365 18.4985 20.5365 15.8987C20.5365 15.16 21.1413 14.5583 21.8883 14.5583C22.6399 14.5583 23.2443 15.1604 23.2443 15.8987C23.2451 19.9716 19.8937 23.2886 15.7689 23.2886ZM21.889 12.6032C20.7661 12.6032 19.8549 11.7026 19.8549 10.5926C19.8549 9.47835 20.7661 8.5777 21.889 8.5777C23.0163 8.5777 23.9275 9.47835 23.9275 10.5926C23.9275 11.7026 23.0163 12.6032 21.889 12.6032Z" fill="black"/>
<path d="M51.2708 9.02148H55.1155V20.7814C55.1505 21.9867 54.8308 23.1758 54.196 24.201C53.5612 25.2263 52.6393 26.0425 51.5448 26.5484C50.3033 27.0937 48.9622 27.3752 47.6064 27.3752C46.2505 27.3752 44.9094 27.0937 43.668 26.5484C42.5748 26.0416 41.6546 25.2249 41.0215 24.1996C40.3884 23.1744 40.0703 21.9858 40.1068 20.7814V9.02148H43.9515V20.445C43.941 21.0878 44.0984 21.7222 44.4081 22.2856C44.7098 22.8198 45.1563 23.2579 45.696 23.5496C46.2972 23.8507 46.9604 24.0074 47.6328 24.0074C48.3052 24.0074 48.9683 23.8507 49.5696 23.5496C50.1069 23.2564 50.5514 22.8185 50.8527 22.2856C51.1624 21.7222 51.3198 21.0878 51.3093 20.445L51.2708 9.02148Z" fill="black"/>
<path d="M69.7204 17.4222L66.2746 17.6337C66.216 17.3404 66.0855 17.0663 65.8949 16.8359C65.6876 16.5878 65.4262 16.3905 65.1308 16.2592C64.7741 16.107 64.389 16.0333 64.0014 16.0429C63.4852 16.0252 62.9743 16.1516 62.526 16.4082C62.3484 16.4993 62.1988 16.6367 62.093 16.8059C61.9873 16.9751 61.9293 17.1698 61.9253 17.3694C61.9246 17.5267 61.9592 17.6822 62.0266 17.8245C62.0939 17.9667 62.1923 18.092 62.3145 18.1912C62.71 18.4723 63.166 18.6567 63.6458 18.7294L66.1063 19.21C67.19 19.3712 68.2097 19.823 69.0571 20.5172C69.3774 20.8205 69.6289 21.1889 69.7947 21.5976C69.9605 22.0063 70.0368 22.4458 70.0183 22.8865C70.0307 23.7344 69.7545 24.5614 69.235 25.2317C68.6719 25.9326 67.9343 26.4729 67.0964 26.7984C66.1006 27.1899 65.0375 27.381 63.9678 27.3607C62.1704 27.3607 60.743 26.9859 59.6761 26.2362C59.1641 25.8855 58.7326 25.4298 58.4103 24.8995C58.088 24.3692 57.8822 23.7764 57.8066 23.1604L61.512 22.9682C61.5552 23.2207 61.6496 23.4618 61.7892 23.6767C61.9289 23.8915 62.1109 24.0756 62.3241 24.2177C62.8206 24.4907 63.3766 24.6374 63.9431 24.645C64.5097 24.6525 65.0693 24.5206 65.5729 24.261C65.7542 24.1642 65.9066 24.0212 66.0146 23.8465C66.1227 23.6718 66.1825 23.4715 66.1881 23.2661C66.1873 23.1018 66.1478 22.9399 66.0726 22.7938C65.9974 22.6476 65.8888 22.5213 65.7555 22.4251C65.3639 22.1587 64.917 21.9845 64.4483 21.9157L62.0935 21.4351C60.9931 21.2791 59.9642 20.799 59.1379 20.0558C58.8172 19.7258 58.5667 19.3342 58.4015 18.9047C58.2363 18.4752 58.1598 18.0167 58.1767 17.5568C58.1556 16.7471 58.406 15.9537 58.888 15.3028C59.4077 14.644 60.1021 14.1444 60.892 13.8611C61.8632 13.5007 62.8936 13.3262 63.9293 13.3469C65.6466 13.3469 66.9986 13.7105 67.9854 14.4378C68.4695 14.7839 68.8746 15.229 69.1737 15.7435C69.4728 16.258 69.6591 16.8303 69.7204 17.4222Z" fill="black"/>
<path d="M78.8467 27.3942C77.5917 27.4294 76.3492 27.1362 75.2423 26.5436C74.2502 25.9884 73.4443 25.1524 72.9259 24.1406C72.3879 22.982 72.1091 21.72 72.1091 20.4425C72.1091 19.1651 72.3879 17.903 72.9259 16.7444C73.4365 15.7176 74.2324 14.8599 75.2183 14.2742C76.2758 13.6677 77.479 13.3619 78.6977 13.3899C79.5516 13.3828 80.3997 13.5293 81.2016 13.8225C81.9658 14.0975 82.6611 14.5353 83.2393 15.1056C83.8404 15.7177 84.3026 16.452 84.5945 17.2587C84.9337 18.2312 85.0964 19.2566 85.0751 20.2864V21.3244H73.6131V18.9888H81.5332C81.544 18.4858 81.4231 17.9888 81.1824 17.547C80.9565 17.1381 80.6244 16.7977 80.2212 16.5618C79.781 16.316 79.2835 16.1917 78.7794 16.2014C78.2469 16.1928 77.722 16.329 77.2608 16.5955C76.8315 16.8498 76.4767 17.2128 76.2323 17.6479C75.9813 18.0955 75.8505 18.6005 75.8527 19.1137V21.3292C75.8373 21.9322 75.9658 22.5303 76.2275 23.0737C76.463 23.5479 76.8344 23.9411 77.2944 24.2031C77.7941 24.4787 78.358 24.6164 78.9284 24.602C79.3185 24.6074 79.7068 24.5473 80.077 24.4242C80.41 24.3152 80.715 24.1348 80.9709 23.8955C81.2222 23.6532 81.416 23.3576 81.538 23.0305L85.0223 23.2564C84.858 24.0692 84.4835 24.8249 83.9361 25.4478C83.3586 26.0883 82.6371 26.5825 81.8312 26.8896C80.8777 27.2469 79.8646 27.4182 78.8467 27.3942Z" fill="black"/>
<path d="M95.0905 13.5486V16.3792H86.6995V13.5486H95.0905ZM88.6218 27.1299V12.5682C88.5888 11.7135 88.7898 10.866 89.2033 10.1172C89.5761 9.48903 90.1285 8.98688 90.7892 8.67546C91.5048 8.34178 92.2875 8.17733 93.0768 8.19487C93.6083 8.1911 94.139 8.23452 94.6628 8.32463C95.1434 8.41594 95.5038 8.49284 95.7393 8.56493L95.0665 11.3956C94.8881 11.3406 94.7068 11.2956 94.5234 11.261C94.3062 11.221 94.0859 11.2 93.865 11.1985C93.6556 11.174 93.4433 11.1958 93.2432 11.2622C93.0431 11.3286 92.86 11.4381 92.7068 11.583C92.4735 11.8917 92.3576 12.2733 92.38 12.6595V27.1492L88.6218 27.1299Z" fill="black"/>
<path d="M106.346 21.3485V13.5486H110.114V27.1299H106.495V24.6645H106.356C106.058 25.4482 105.524 26.1199 104.827 26.5869C104.058 27.087 103.154 27.3402 102.237 27.3126C101.394 27.3315 100.563 27.1169 99.8341 26.6926C99.1386 26.2729 98.5781 25.6624 98.2193 24.9337C97.8134 24.0803 97.6126 23.1439 97.633 22.1991V13.5486H101.401V21.5263C101.369 22.2176 101.599 22.8955 102.045 23.4246C102.261 23.6577 102.526 23.8408 102.821 23.9611C103.116 24.0814 103.433 24.1362 103.751 24.1215C104.195 24.1253 104.633 24.018 105.024 23.8091C105.427 23.5957 105.76 23.2723 105.986 22.8767C106.245 22.4105 106.37 21.8814 106.346 21.3485Z" fill="black"/>
<path d="M117.135 9.02148V27.1299H113.367V9.02148H117.135Z" fill="black"/>
</svg>
