<svg xmlns="http://www.w3.org/2000/svg" width="26" height="24" fill="currentColor" viewBox="0 0 26 24">
  <g class="us-camara">
    <g class="Group">
      <g class="Group">
        <path fill="#000" fill-rule="evenodd" d="M2.996 4.888a2.75 2.75 0 0 1 2.75-2.75h14a2.75 2.75 0 0 1 2.75 2.75v14a2.75 2.75 0 0 1-2.75 2.75h-14a2.75 2.75 0 0 1-2.75-2.75v-14Zm2.75-1.25c-.69 0-1.25.56-1.25 1.25v14c0 .69.56 1.25 1.25 1.25h14c.69 0 1.25-.56 1.25-1.25v-14c0-.69-.56-1.25-1.25-1.25h-14Z" class="Vector" clip-rule="evenodd"/>
        <path fill="#000" fill-rule="evenodd" d="M12.473 9.26a3.25 3.25 0 1 0 0 6.5 3.25 3.25 0 0 0 0-6.5Zm-4.75 3.25a4.75 4.75 0 1 1 9.5 0 4.75 4.75 0 0 1-9.5 0Z" class="Vector" clip-rule="evenodd"/>
        <path fill="#000" d="M19.615 6.626a1.5 1.5 0 1 1-3 0 1.5 1.5 0 0 1 3 0Z" class="Vector"/>
      </g>
    </g>
  </g>
</svg>
