<svg xmlns="http://www.w3.org/2000/svg" width="26" height="24" fill="currentColor" viewBox="0 0 26 24">
  <g class="us-chart">
    <g class="Group">
      <path fill="#000" fill-rule="evenodd" d="M2.203 17.624a.75.75 0 0 1 .75-.75h20.013a.75.75 0 0 1 0 1.5H2.953a.75.75 0 0 1-.75-.75ZM7.665 6.747a.676.676 0 0 0-.677.676v8.213a.75.75 0 0 1-1.5 0V7.423a2.177 2.177 0 0 1 4.353 0v8.213a.75.75 0 0 1-1.5 0V7.423a.676.676 0 0 0-.676-.676ZM18.6 10.118a.677.677 0 0 0-.676.677v4.798a.75.75 0 0 1-1.5 0v-4.798a2.176 2.176 0 1 1 4.353 0v4.798a.75.75 0 0 1-1.5 0v-4.798a.676.676 0 0 0-.677-.677Zm-5.532-4.971a.676.676 0 0 0-.677.677v9.855a.75.75 0 0 1-1.5 0V5.824a2.176 2.176 0 1 1 4.353 0v9.855a.75.75 0 0 1-1.5 0V5.824a.675.675 0 0 0-.676-.677Z" class="Vector" clip-rule="evenodd"/>
    </g>
  </g>
</svg>
