<svg xmlns="http://www.w3.org/2000/svg" width="26" height="24" fill="currentColor" viewBox="0 0 26 24">
  <g class="us-filiter">
    <g class="Group">
      <path fill="#000" fill-rule="evenodd" d="M14.13 20.62V9.732c0-.663.259-1.3.72-1.775l4.25-4.384H6.96l4.11 4.308a2.55 2.55 0 0 1 .706 1.761V20.62h2.354Zm1.55-10.888a1 1 0 0 1 .283-.696l5.155-5.316c.615-.635.166-1.697-.718-1.697H5.674c-.88 0-1.33 1.055-.724 1.69l5 5.24a1 1 0 0 1 .276.69V21.17a1 1 0 0 0 1 1h3.455a1 1 0 0 0 1-1L15.68 9.732Z" class="Vector" clip-rule="evenodd"/>
    </g>
  </g>
</svg>
