<svg xmlns="http://www.w3.org/2000/svg" width="26" height="24" fill="currentColor" viewBox="0 0 26 24">
  <g class="us-heart">
    <g class="Group">
      <path fill="#000" fill-rule="evenodd" d="M13.098 4.897a6.595 6.595 0 0 1 8.701 9.875c-2.312 2.313-4.8 4.485-7.136 6.822a2.75 2.75 0 0 1-3.89 0L3.81 14.773c-2.512-2.512-1.98-6.868.444-9.291a6.727 6.727 0 0 1 8.846-.584v-.001Zm-.63 1.424a5.226 5.226 0 0 0-7.155.22c-1.98 1.98-2.133 5.663-.18 7.46 3.746 3.446 3.881 3.713 6.701 6.533a1.248 1.248 0 0 0 1.768 0c2.324-2.324 4.83-4.516 7.137-6.822a5.094 5.094 0 0 0-6.959-7.434c-.347.304-.96.354-1.312.043Z" class="Vector" clip-rule="evenodd"/>
    </g>
  </g>
</svg>
