<svg xmlns="http://www.w3.org/2000/svg" width="24" height="24" fill="currentColor" viewBox="0 0 24 24">
  <g class="us-home">
    <g class="Vector">
      <path fill-rule="evenodd" d="M12.642 4.655a1.25 1.25 0 0 0-1.572.016L5.217 9.51a1.25 1.25 0 0 0-.453.964v9.216c0 .69.56 1.25 1.25 1.25h12c.69 0 1.25-.56 1.25-1.25V10.5a1.25 1.25 0 0 0-.475-.98l-6.147-4.864Zm-2.528-1.14a2.75 2.75 0 0 1 3.459-.037l6.147 4.864a2.75 2.75 0 0 1 1.044 2.157v9.19a2.75 2.75 0 0 1-2.75 2.75h-12a2.75 2.75 0 0 1-2.75-2.75v-9.216c0-.82.366-1.597.998-2.12l5.852-4.838Z" clip-rule="evenodd"/>
      <path fill-rule="evenodd" d="M10.494 13.94v6.999h3v-7h-3Zm-.5-1.5a1 1 0 0 0-1 1v7.999a1 1 0 0 0 1 1h4a1 1 0 0 0 1-1v-8a1 1 0 0 0-1-1h-4Z" clip-rule="evenodd"/>
    </g>
  </g>
</svg>
