<svg xmlns="http://www.w3.org/2000/svg" width="25" height="24" fill="currentColor" viewBox="0 0 25 24">
  <g class="us-hide">
    <g class="Group">
      <g class="Group">
        <path fill="#000" d="M9.076 6.956a8.219 8.219 0 0 1 3.327-.698 8.252 8.252 0 0 1 7.567 4.957.75.75 0 0 0 1.375-.6 9.751 9.751 0 0 0-8.942-5.857 9.72 9.72 0 0 0-3.933.826.75.75 0 0 0 .606 1.372Zm-2.875 2.11a.75.75 0 0 0-1.127-.99 9.756 9.756 0 0 0-1.613 2.54.75.75 0 0 0 1.375.6 8.256 8.256 0 0 1 1.365-2.15Z" class="Vector"/>
        <path fill="#000" fill-rule="evenodd" d="M20.18 13.01a8.26 8.26 0 0 1-1.595 2.4l-2.325-1.826a4 4 0 0 0-6.138-4.82l-2.784-2.19a.75.75 0 1 0-.927 1.18L9.156 9.91a4 4 0 0 0 6.216 4.882l2.062 1.62A8.252 8.252 0 0 1 5.048 13.01a.75.75 0 1 0-1.376.6 9.753 9.753 0 0 0 17.884 0 .75.75 0 1 0-1.375-.6Zm-9.82-2.155a2.5 2.5 0 0 0 3.81 2.992l-3.81-2.992Zm.99-1.13 3.682 2.893a2.5 2.5 0 0 0-3.682-2.892Z" class="Vector" clip-rule="evenodd"/>
      </g>
    </g>
  </g>
</svg>
