<svg xmlns="http://www.w3.org/2000/svg" width="24" height="24" fill="currentColor" viewBox="0 0 24 24">
  <g class="us-internet">
    <g class="Vector">
      <path fill-rule="evenodd" d="M11.93 3.964a7.5 7.5 0 1 0 0 15 7.5 7.5 0 0 0 0-15Zm-9 7.5a9 9 0 1 1 18 0 9 9 0 0 1-18 0Z" clip-rule="evenodd"/>
      <path fill-rule="evenodd" d="M12.668 2.737v17.37h-1.5V2.736h1.5Z" clip-rule="evenodd"/>
      <path fill-rule="evenodd" d="M5.32 15.621h13.19v1.5H5.32v-1.5Zm-.454-8.676h14.49v1.5H4.865v-1.5ZM3.118 11.25h17.67v1.5H3.117v-1.5Z" clip-rule="evenodd"/>
      <path fill-rule="evenodd" d="M8.732 4.519c.107-.338.169-.567.192-.723l1.483.222a6.6 6.6 0 0 1-.244.952c-.052.165-.11.344-.172.53l-.008.025a66.01 66.01 0 0 0-.201.623 20.95 20.95 0 0 0-.774 3.196c-.382 2.49-.324 5.732 1.346 9.577l-1.376.597c-1.798-4.14-1.871-7.673-1.453-10.401.209-1.359.538-2.51.827-3.422.072-.228.141-.441.206-.637l.007-.021c.062-.19.118-.36.167-.518Zm6.42-.086a5.309 5.309 0 0 1-.191-.723l-1.484.222c.043.285.139.616.245.952.052.165.11.344.171.53l.008.025c.065.196.133.403.202.623.278.876.582 1.946.774 3.196.382 2.49.323 5.732-1.346 9.577l1.376.597c1.798-4.14 1.871-7.673 1.453-10.401a22.428 22.428 0 0 0-.827-3.422c-.072-.228-.142-.441-.206-.637l-.007-.021c-.062-.19-.118-.36-.168-.518Z" clip-rule="evenodd"/>
    </g>
  </g>
</svg>
