<svg xmlns="http://www.w3.org/2000/svg" width="26" height="24" fill="currentColor" viewBox="0 0 26 24">
  <g class="us-image">
    <g class="Group">
      <g class="Group">
        <path fill="#000" fill-rule="evenodd" d="M4.467 5.48v13h17v-13h-17Zm-.5-1.5a1 1 0 0 0-1 1v14a1 1 0 0 0 1 1h18a1 1 0 0 0 1-1v-14a1 1 0 0 0-1-1h-18Z" class="Vector" clip-rule="evenodd"/>
        <path fill="#000" fill-rule="evenodd" d="M7.156 17.093a.999.999 0 0 1-.849-1.528l2.39-3.84a1 1 0 0 1 1.696-.003l1.728 2.753a1 1 0 0 0 1.697-.003l1.695-2.725a1 1 0 0 1 1.696-.003l2.41 3.84a1 1 0 0 1-.847 1.532h-6.591l-.004-.003v-.004l.002-.005.001-.003v-.004l-.003-.003H7.156Z" class="Vector" clip-rule="evenodd"/>
        <path fill="#000" d="M19.83 8.498a1.5 1.5 0 1 1-3 0 1.5 1.5 0 0 1 3 0Z" class="Vector"/>
      </g>
    </g>
  </g>
</svg>
