<svg xmlns="http://www.w3.org/2000/svg" width="26" height="24" fill="currentColor" viewBox="0 0 26 24">
  <g class="us-lock">
    <g class="Group">
      <g class="Group">
        <path fill="#000" fill-rule="evenodd" d="M6.527 8.547v12h13v-12h-13Zm-.5-1.5a1 1 0 0 0-1 1v13a1 1 0 0 0 1 1h14a1 1 0 0 0 1-1v-13a1 1 0 0 0-1-1h-14Z" class="Vector" clip-rule="evenodd"/>
        <path fill="#000" d="M14.502 12.68a1.5 1.5 0 1 1-3 0 1.5 1.5 0 0 1 3 0Z" class="Vector"/>
        <path fill="#000" fill-rule="evenodd" d="M13.783 12.888v4.139h-1.5v-4.14h1.5ZM13.33 1.463c2.705.07 5.45 2.059 5.45 5.704h-1.5c0-2.715-1.974-4.152-3.99-4.205-1.01-.026-1.992.302-2.716.97-.713.66-1.234 1.705-1.234 3.235h-1.5c0-1.896.66-3.36 1.716-4.336 1.046-.967 2.424-1.403 3.774-1.368Z" class="Vector" clip-rule="evenodd"/>
      </g>
    </g>
  </g>
</svg>
