<svg xmlns="http://www.w3.org/2000/svg" width="26" height="24" fill="currentColor" viewBox="0 0 26 24">
  <g class="us-loading">
    <g class="Group">
      <path fill="#000" fill-rule="evenodd" d="M12.992 2.036a.75.75 0 0 1 .75.75v4.93a.75.75 0 1 1-1.5 0v-4.93a.75.75 0 0 1 .75-.75ZM6.03 4.884a.75.75 0 0 1 1.06 0l3.486 3.486a.75.75 0 1 1-1.06 1.06L6.03 5.945a.75.75 0 0 1 0-1.06h.001Zm-3.038 7.072a.75.75 0 0 1 .75-.75h4.93a.75.75 0 1 1 0 1.5h-4.93a.75.75 0 0 1-.75-.75Zm10.056 3.631a.75.75 0 0 1 .75.75v4.93a.75.75 0 1 1-1.5 0v-4.93a.75.75 0 0 1 .75-.75Zm6.936-10.682a.75.75 0 0 0-1.06 0L15.436 8.39a.75.75 0 0 0 1.06 1.06l3.487-3.486a.75.75 0 0 0 0-1.06l.001.001ZM6.051 19.15a.75.75 0 0 0 1.06 0l3.487-3.485a.75.75 0 0 0-1.06-1.06L6.05 18.09a.75.75 0 0 0 .001 1.06Zm13.986.022a.75.75 0 0 1-1.06 0l-3.487-3.487a.75.75 0 1 1 1.06-1.06l3.487 3.486a.75.75 0 0 1 0 1.06v.001Zm3.021-7.232a.75.75 0 0 0-.75-.75h-4.93a.75.75 0 0 0 0 1.5h4.93a.75.75 0 0 0 .75-.75Z" class="Vector" clip-rule="evenodd"/>
    </g>
  </g>
</svg>
