<svg xmlns="http://www.w3.org/2000/svg" width="26" height="24" fill="currentColor" viewBox="0 0 26 24">
  <g class="us-notification">
    <g class="Group">
      <path fill="#000" fill-rule="evenodd" d="M7.264 7.702a5.795 5.795 0 0 1 11.59 0v5.15l2.056 2.87c.83 1.157.003 2.77-1.422 2.77H6.544c-1.44 0-2.263-1.643-1.403-2.797l2.123-2.85V7.701Zm5.795-4.295a4.295 4.295 0 0 0-4.295 4.295v5.356c0 .184-.06.363-.17.51l-2.25 3.023a.25.25 0 0 0 .2.4h12.944a.25.25 0 0 0 .203-.396l-2.177-3.038a.854.854 0 0 1-.16-.498V7.702a4.295 4.295 0 0 0-4.295-4.295Zm-.045 16.915c.508 0 .953-.272 1.197-.68.212-.354.532-.713.946-.713.415 0 .76.341.654.741a2.895 2.895 0 0 1-5.595 0c-.106-.4.24-.742.654-.742.414 0 .734.36.947.715.243.407.688.68 1.197.68Z" class="Vector" clip-rule="evenodd"/>
    </g>
  </g>
</svg>
