<svg xmlns="http://www.w3.org/2000/svg" width="26" height="24" fill="currentColor" viewBox="0 0 26 24">
  <g class="us-plus">
    <g class="Group">
      <g class="Group">
        <path fill="#000" fill-rule="evenodd" d="M13.014 3.736a8.25 8.25 0 1 0 0 16.5 8.25 8.25 0 0 0 0-16.5Zm-9.75 8.25c0-5.384 4.365-9.75 9.75-9.75 5.384 0 9.75 4.366 9.75 9.75 0 5.385-4.366 9.75-9.75 9.75a9.75 9.75 0 0 1-9.75-9.75Z" class="Vector" clip-rule="evenodd"/>
        <path fill="#000" fill-rule="evenodd" d="M13 5.236a.75.75 0 0 1 .75.75v12a.75.75 0 1 1-1.5 0v-12a.75.75 0 0 1 .75-.75Z" class="Vector" clip-rule="evenodd"/>
        <path fill="#000" fill-rule="evenodd" d="M6.25 11.986a.75.75 0 0 1 .75-.75h12a.75.75 0 1 1 0 1.5H7a.75.75 0 0 1-.75-.75Z" class="Vector" clip-rule="evenodd"/>
      </g>
    </g>
  </g>
</svg>
