<svg xmlns="http://www.w3.org/2000/svg" width="26" height="24" fill="currentColor" viewBox="0 0 26 24">
  <g class="us-phone">
    <g class="Group">
      <g class="Group">
        <path fill="#000" fill-rule="evenodd" d="M16.698 3.429H8.486a.5.5 0 0 0-.5.5v16a.5.5 0 0 0 .5.5h8.212a.5.5 0 0 0 .5-.5v-16a.5.5 0 0 0-.5-.5Zm-8.212-1.5a2 2 0 0 0-2 2v16a2 2 0 0 0 2 2h8.212a2 2 0 0 0 2-2v-16a2 2 0 0 0-2-2H8.486Z" class="Vector" clip-rule="evenodd"/>
        <path fill="#000" fill-rule="evenodd" d="M10.787 4.967a.75.75 0 0 1 .75-.75h2.52a.75.75 0 1 1 0 1.5h-2.52a.75.75 0 0 1-.75-.75Z" class="Vector" clip-rule="evenodd"/>
        <path fill="#000" d="M14.162 18.237a1.5 1.5 0 1 1-3 0 1.5 1.5 0 0 1 3 0Z" class="Vector"/>
      </g>
    </g>
  </g>
</svg>
