<svg xmlns="http://www.w3.org/2000/svg" width="26" height="24" fill="currentColor" viewBox="0 0 26 24">
  <g class="us-parson">
    <g class="Group">
      <g class="Group">
        <path fill="#000" fill-rule="evenodd" d="M12.994 20.593a8.5 8.5 0 1 0 0-17 8.5 8.5 0 0 0 0 17Zm0 1.5c5.523 0 10-4.477 10-10s-4.477-10-10-10-10 4.477-10 10 4.477 10 10 10Z" class="Vector" clip-rule="evenodd"/>
        <path fill="#000" fill-rule="evenodd" d="M13 9.5a1.5 1.5 0 1 0 0-3 1.5 1.5 0 0 0 0 3Zm0 1.5a3 3 0 1 0 0-6 3 3 0 0 0 0 6Z" class="Vector" clip-rule="evenodd"/>
        <path fill="#000" fill-rule="evenodd" d="M6.205 17.845a.84.84 0 0 0 .755-.514 6.6 6.6 0 0 1 12.07 0 .838.838 0 0 0 .755.514c.512 0 .883-.49.686-.961a8.1 8.1 0 0 0-14.952 0c-.197.472.174.96.686.96Z" class="Vector" clip-rule="evenodd"/>
      </g>
    </g>
  </g>
</svg>
