<svg xmlns="http://www.w3.org/2000/svg" width="26" height="24" fill="currentColor" viewBox="0 0 26 24">
  <g class="us-printer">
    <g class="Group">
      <g class="Group">
        <path fill="#000" fill-rule="evenodd" d="M4.071 7.32a.25.25 0 0 0-.25.25v8.725c0 .138.112.25.25.25h5.161v1.5h-5.16a1.75 1.75 0 0 1-1.75-1.75V7.571c0-.967.783-1.75 1.75-1.75h17.895c.966 0 1.75.783 1.75 1.75v8.724a1.75 1.75 0 0 1-1.75 1.75h-4.98v-1.5h4.98a.25.25 0 0 0 .25-.25V7.571a.25.25 0 0 0-.25-.25H4.071Z" class="Vector" clip-rule="evenodd"/>
        <path fill="#000" fill-rule="evenodd" d="M8.985 2.688a.25.25 0 0 0-.25.25v3.58a.75.75 0 0 1-1.5 0v-3.58c0-.966.784-1.75 1.75-1.75h8c.966 0 1.75.784 1.75 1.75v3.58a.75.75 0 0 1-1.5 0v-3.58a.25.25 0 0 0-.25-.25h-8Zm-2.1 11.006a.75.75 0 0 1 .75-.75h11.034a.75.75 0 0 1 0 1.5H7.635a.75.75 0 0 1-.75-.75Z" class="Vector" clip-rule="evenodd"/>
        <path fill="#000" fill-rule="evenodd" d="M9.319 13.85a.75.75 0 0 1 .75.75v6.412c0 .138.112.25.25.25h5.421a.25.25 0 0 0 .25-.25V14.6a.75.75 0 0 1 1.5 0v6.413a1.75 1.75 0 0 1-1.75 1.75h-5.421a1.75 1.75 0 0 1-1.75-1.75V14.6a.75.75 0 0 1 .75-.75ZM6.252 4.74a.25.25 0 0 0-.25.25v1.244a.75.75 0 1 1-1.5 0V4.99c0-.966.784-1.75 1.75-1.75h1.32a.75.75 0 1 1 0 1.5h-1.32Zm13.721.018a.25.25 0 0 1 .25.25v1.244a.75.75 0 1 0 1.5 0V5.008a1.75 1.75 0 0 0-1.75-1.75h-1.318a.75.75 0 1 0 0 1.5h1.318Z" class="Vector" clip-rule="evenodd"/>
        <path fill="#000" fill-rule="evenodd" d="M10.75 16.29a.75.75 0 0 1 .75-.75h3.28a.75.75 0 0 1 0 1.5H11.5a.75.75 0 0 1-.75-.75Zm-.094 2.553a.75.75 0 0 1 .75-.75h3.278a.75.75 0 0 1 0 1.5h-3.278a.75.75 0 0 1-.75-.75Z" class="Vector" clip-rule="evenodd"/>
      </g>
    </g>
  </g>
</svg>
