<svg xmlns="http://www.w3.org/2000/svg" width="26" height="24" fill="currentColor" viewBox="0 0 26 24">
  <g class="us-share">
    <g class="Group">
      <path fill="#000" fill-rule="evenodd" d="M13.787 4.54a1.25 1.25 0 1 0 0 2.5 1.25 1.25 0 0 0 0-2.5Zm-2.75 1.25a2.75 2.75 0 1 1 1.455 2.427l-1.733 2.082a2.744 2.744 0 0 1 .036 3.6l2.055 1.71a2.75 2.75 0 1 1-.984 1.132L9.48 14.757a2.75 2.75 0 1 1 .006-5.273l1.923-2.311a2.736 2.736 0 0 1-.372-1.383Zm-2.339 5.08a1.25 1.25 0 1 0 0 2.5 1.25 1.25 0 0 0 0-2.5Zm5.658 5.791a1.25 1.25 0 1 0 0 2.5 1.25 1.25 0 0 0 0-2.5Z" class="Vector" clip-rule="evenodd"/>
    </g>
  </g>
</svg>
