<svg xmlns="http://www.w3.org/2000/svg" width="25" height="24" fill="currentColor" viewBox="0 0 25 24">
  <g class="us-subtract">
    <g class="Group">
      <g class="Group">
        <path fill="#000" fill-rule="evenodd" d="M12.514 3.736a8.25 8.25 0 1 0 0 16.5 8.25 8.25 0 0 0 0-16.5Zm-9.75 8.25c0-5.384 4.365-9.75 9.75-9.75 5.384 0 9.75 4.366 9.75 9.75 0 5.385-4.366 9.75-9.75 9.75a9.75 9.75 0 0 1-9.75-9.75Z" class="Vector" clip-rule="evenodd"/>
        <path fill="#000" fill-rule="evenodd" d="M5.75 11.986a.75.75 0 0 1 .75-.75h12a.75.75 0 1 1 0 1.5h-12a.75.75 0 0 1-.75-.75Z" class="Vector" clip-rule="evenodd"/>
      </g>
    </g>
  </g>
</svg>
