<svg xmlns="http://www.w3.org/2000/svg" width="25" height="24" fill="currentColor" viewBox="0 0 25 24">
  <g class="us-sensor">
    <g class="Group">
      <g class="Group">
        <path fill="#000" fill-rule="evenodd" d="M16.786 12.87a.75.75 0 0 1-1.059.067c-.544-.48-1.522-1.054-2.632-1.19-1.066-.13-2.293.134-3.46 1.384a.751.751 0 0 1-1.3-.484.75.75 0 0 1 .203-.539c1.511-1.62 3.222-2.035 4.739-1.85 1.473.18 2.724.92 3.443 1.554a.75.75 0 0 1 .066 1.058Zm2.024-3.609a.75.75 0 0 1-1.059.067c-.897-.792-2.5-1.732-4.332-1.956-1.788-.22-3.837.235-5.753 2.288a.75.75 0 0 1-1.097-1.024c2.261-2.422 4.793-3.027 7.033-2.753 2.195.27 4.07 1.374 5.141 2.32a.75.75 0 0 1 .067 1.058Z" class="Vector" clip-rule="evenodd"/>
        <path fill="#000" fill-rule="evenodd" d="M21.15 6.252a.75.75 0 0 1-1.06.067c-1.288-1.136-3.578-2.482-6.208-2.804-2.588-.317-5.543.347-8.287 3.287A.75.75 0 1 1 4.5 5.78c3.088-3.309 6.527-4.125 9.565-3.753 2.993.367 5.557 1.878 7.019 3.168a.75.75 0 0 1 .066 1.057ZM9.066 16.887c0-.998.81-1.808 1.807-1.808h3.369c.997 0 1.807.81 1.807 1.808v3.368c0 1-.81 1.808-1.807 1.808h-3.369c-.998 0-1.807-.81-1.807-1.808v-3.368Zm1.807-.308a.308.308 0 0 0-.307.308v3.368c0 .17.137.308.307.308h3.369c.17 0 .307-.138.307-.308v-3.368a.308.308 0 0 0-.307-.308h-3.369Z" class="Vector" clip-rule="evenodd"/>
        <path fill="#000" d="M12.456 18.08a.534.534 0 0 1-.537.56.536.536 0 0 1-.37-.925.537.537 0 0 1 .907.365Z" class="Vector"/>
      </g>
    </g>
  </g>
</svg>
