<svg xmlns="http://www.w3.org/2000/svg" width="26" height="24" fill="currentColor" viewBox="0 0 26 24">
  <g class="us-servies">
    <g class="Group">
      <g class="Group">
        <path fill="#000" fill-rule="evenodd" d="M8.976 11.318h8.079v6.432h-8.08v-6.432Zm1.5 1.5v3.432h5.079v-3.432h-5.08Z" class="Vector" clip-rule="evenodd"/>
        <path fill="#000" d="M15.182 14.604c0 .26-.194.47-.434.47s-.433-.21-.433-.47.194-.472.434-.472.433.21.433.472Z" class="Vector"/>
        <path fill="#000" fill-rule="evenodd" d="M8.072 8.43c.284-1.702 1.67-2.93 3.264-2.93 1.13 0 2.145.609 2.75 1.572a.767.767 0 0 0 1.084.21c.285-.205.623-.32.985-.32.816 0 1.554.61 1.744 1.506a.754.754 0 0 0 .65.59c1.622.19 2.952 1.668 2.952 3.542 0 1.992-.795 3.529-3.233 3.563v1.5c3.258-.04 4.744-2.336 4.744-5.063 0-2.386-1.588-4.437-3.781-4.944-.473-1.262-1.65-2.194-3.076-2.194-.428 0-.836.085-1.21.238-.877-1.034-2.162-1.7-3.61-1.7-2.233 0-4.067 1.576-4.64 3.666-2.142.544-3.683 2.57-3.683 4.92 0 2.735 1.51 5.076 4.827 5.076h.453V16.15h-.453c-2.893 0-3.316-1.549-3.316-3.564 0-1.855 1.304-3.323 2.904-3.536a.753.753 0 0 0 .645-.62Z" class="Vector" clip-rule="evenodd"/>
        <path fill="#000" fill-rule="evenodd" d="M8.072 8.43c.284-1.702 1.67-2.93 3.264-2.93 1.13 0 2.145.609 2.75 1.572a.767.767 0 0 0 1.084.21c.285-.205.623-.32.985-.32.816 0 1.554.61 1.744 1.506a.754.754 0 0 0 .65.59c1.622.19 2.952 1.668 2.952 3.542 0 1.992-.795 3.529-3.233 3.563v1.5c3.258-.04 4.744-2.336 4.744-5.063 0-2.386-1.588-4.437-3.781-4.944-.473-1.262-1.65-2.194-3.076-2.194-.428 0-.836.085-1.21.238-.877-1.034-2.162-1.7-3.61-1.7-2.233 0-4.067 1.576-4.64 3.666-2.142.544-3.683 2.57-3.683 4.92 0 2.735 1.51 5.076 4.827 5.076h.453V16.15h-.453c-2.893 0-3.316-1.549-3.316-3.564 0-1.855 1.304-3.323 2.904-3.536a.753.753 0 0 0 .645-.62Z" class="Vector" clip-rule="evenodd"/>
      </g>
    </g>
  </g>
</svg>
