<svg xmlns="http://www.w3.org/2000/svg" width="26" height="24" fill="currentColor" viewBox="0 0 26 24">
  <g class="us-start">
    <g class="Group">
      <g class="Group">
        <path fill="#000" fill-rule="evenodd" d="M9.639 3.608a.75.75 0 0 1-.332 1.008 8.25 8.25 0 1 0 7.414 0 .75.75 0 1 1 .675-1.34 9.75 9.75 0 0 1 5.368 8.712A9.75 9.75 0 1 1 8.632 3.276a.75.75 0 0 1 1.007.332Z" class="Vector" clip-rule="evenodd"/>
        <path fill="#000" fill-rule="evenodd" d="M13.09 2.24a.75.75 0 0 1 .75.75v12.63a.75.75 0 0 1-1.5 0V2.99a.75.75 0 0 1 .75-.75Z" class="Vector" clip-rule="evenodd"/>
      </g>
    </g>
  </g>
</svg>
