<svg xmlns="http://www.w3.org/2000/svg" width="26" height="24" fill="currentColor" viewBox="0 0 26 24">
  <g class="us-scan">
    <g class="Group">
      <path fill="#000" fill-rule="evenodd" d="M4.77 3.186a.25.25 0 0 0-.25.25v6.507h-1.5V3.436c0-.967.783-1.75 1.75-1.75h6.3v1.5h-6.3Zm16.672.009a.25.25 0 0 1 .25.25v6.508h1.5V3.445a1.75 1.75 0 0 0-1.75-1.75h-6.3v1.5h6.3ZM4.77 20.799a.25.25 0 0 1-.25-.25v-6.51h-1.5v6.508c0 .966.784 1.75 1.75 1.75h6.3v-1.5h-6.3v.002Zm16.56.125a.25.25 0 0 0 .25-.25v-6.508h1.5v6.508a1.75 1.75 0 0 1-1.75 1.75h-6.3v-1.5h6.3ZM4.32 11.902a.75.75 0 0 1 .75-.75h16.837a.75.75 0 0 1 0 1.5H5.07a.75.75 0 0 1-.75-.75Z" class="Vector" clip-rule="evenodd"/>
    </g>
  </g>
</svg>
