<svg xmlns="http://www.w3.org/2000/svg" width="26" height="24" fill="currentColor" viewBox="0 0 26 24">
  <g class="us-settings">
    <g class="Group">
      <g class="Group">
        <path fill="#000" fill-rule="evenodd" d="M10.44 3.857c0-.966.784-1.75 1.75-1.75h1.438c.966 0 1.75.784 1.75 1.75v1.925s0 .01.012.027c.014.02.04.041.075.056a.16.16 0 0 0 .084.012c.02-.004.026-.01.03-.013l1.36-1.36a1.75 1.75 0 0 1 2.474 0L20.43 5.52a1.751 1.751 0 0 1 0 2.475l-1.393 1.393s-.005.005-.007.02c-.003.025 0 .05.01.072.01.026.027.05.048.066a.06.06 0 0 0 .016.01h1.972c.967 0 1.75.783 1.75 1.75v1.437a1.75 1.75 0 0 1-1.75 1.75h-2.113a.093.093 0 0 0-.03.065l1.497 1.496a1.751 1.751 0 0 1 0 2.475l-1.017 1.016a1.75 1.75 0 0 1-2.474 0l-1.56-1.56v2.207a1.75 1.75 0 0 1-1.75 1.75H12.19a1.75 1.75 0 0 1-1.75-1.75v-2.207l-1.56 1.56a1.75 1.75 0 0 1-2.475 0L5.39 18.53a1.75 1.75 0 0 1 0-2.475l1.56-1.56H4.742a1.75 1.75 0 0 1-1.75-1.75v-1.438c0-.967.784-1.75 1.75-1.75H6.91a.07.07 0 0 0 .012-.027L5.39 7.995a1.75 1.75 0 0 1 0-2.475l1.016-1.016a1.75 1.75 0 0 1 2.475 0l1.425 1.426.011.003a.12.12 0 0 0 .064-.01.13.13 0 0 0 .054-.042l.005-.01V3.857Zm1.75-.25a.25.25 0 0 0-.25.25v2.016c0 .663-.428 1.192-.957 1.423-.552.242-1.254.178-1.738-.306L7.82 5.564a.25.25 0 0 0-.353 0L6.45 6.581a.25.25 0 0 0 0 .354l1.548 1.547c.442.442.522 1.08.321 1.6-.207.535-.727.974-1.386.974h-2.19a.25.25 0 0 0-.25.25v1.437c0 .138.112.25.25.25h2.342c.607 0 1.096.388 1.31.88.22.508.15 1.146-.289 1.585L6.45 17.114a.25.25 0 0 0 0 .354l1.017 1.017a.25.25 0 0 0 .353 0l1.687-1.687a1.417 1.417 0 0 1 1.551-.292c.493.207.883.694.883 1.3v2.386c0 .138.112.25.25.25h1.438a.25.25 0 0 0 .25-.25v-2.297c0-.636.42-1.142.94-1.345a1.45 1.45 0 0 1 1.557.31L18 18.485a.25.25 0 0 0 .354 0l1.016-1.017a.249.249 0 0 0 0-.354l-1.503-1.503c-.47-.47-.535-1.157-.296-1.696.228-.512.741-.922 1.382-.922h2.124a.25.25 0 0 0 .25-.25v-1.437a.25.25 0 0 0-.25-.25h-1.97c-.693 0-1.238-.463-1.46-1.02-.22-.55-.143-1.235.33-1.709l1.393-1.392a.25.25 0 0 0 0-.354l-1.016-1.017a.25.25 0 0 0-.354 0l-1.36 1.361c-.485.485-1.186.557-1.745.327-.556-.229-1.016-.776-1.016-1.47V3.857a.25.25 0 0 0-.25-.25H12.19Z" class="Vector" clip-rule="evenodd"/>
        <path fill="#000" fill-rule="evenodd" d="M12.912 13.476a1.65 1.65 0 1 0 0-3.3 1.65 1.65 0 0 0 0 3.3Zm0 1.5a3.15 3.15 0 1 0 0-6.3 3.15 3.15 0 0 0 0 6.3Z" class="Vector" clip-rule="evenodd"/>
      </g>
    </g>
  </g>
</svg>
