<svg xmlns="http://www.w3.org/2000/svg" width="26" height="24" fill="currentColor" viewBox="0 0 26 24">
  <g class="us-update">
    <g class="Group">
      <path fill="#000" fill-rule="evenodd" d="M12.58 16.587 8.45 19.49l4.128 2.94v-2.102c1.77-.274 4.17-1.05 6.033-2.624 1.209-1.022 2.204-2.393 2.625-4.184.42-1.788.25-3.921-.743-6.442a.752.752 0 0 0-.98-.441.75.75 0 0 0-.415.99c.908 2.306 1.013 4.124.678 5.55-.335 1.423-1.124 2.528-2.133 3.38-1.536 1.299-3.546 1.983-5.064 2.25v-2.22Zm.54-9.727 4.128-2.903-4.128-2.941v2.103c-1.77.273-4.17 1.05-6.032 2.624-1.208 1.02-2.204 2.393-2.625 4.183-.42 1.788-.25 3.922.743 6.443a.75.75 0 0 0 1.395-.55c-.908-2.306-1.013-4.124-.678-5.55.334-1.423 1.124-2.528 2.133-3.38 1.536-1.3 3.546-1.982 5.064-2.25v2.22Z" class="Vector" clip-rule="evenodd"/>
    </g>
  </g>
</svg>
