<svg xmlns="http://www.w3.org/2000/svg" width="26" height="24" fill="currentColor" viewBox="0 0 26 24">
  <g class="us-vistable">
    <g class="Group">
      <g class="Group">
        <path fill="#000" d="M9.445 6.728a8.252 8.252 0 0 1 10.894 4.259.75.75 0 1 0 1.375-.6A9.753 9.753 0 0 0 8.84 5.355a.75.75 0 0 0 .606 1.373ZM6.57 8.84a.75.75 0 1 0-1.127-.99 9.756 9.756 0 0 0-1.613 2.538.75.75 0 0 0 1.375.6A8.257 8.257 0 0 1 6.57 8.84Z" class="Vector"/>
        <path fill="#000" fill-rule="evenodd" d="M17.084 12.095a4 4 0 1 1-8 0 4 4 0 0 1 8 0Zm-1.5 0a2.5 2.5 0 1 1-5 0 2.5 2.5 0 0 1 5 0Z" class="Vector" clip-rule="evenodd"/>
        <path fill="#000" d="M13.032 17.89a8.252 8.252 0 0 0 7.567-4.957.749.749 0 0 1 1.386.026.749.749 0 0 1-.011.574 9.751 9.751 0 0 1-14.287 4.263 9.752 9.752 0 0 1-3.597-4.263.75.75 0 1 1 1.375-.6 8.252 8.252 0 0 0 7.567 4.958ZM7.54 7.64a.75.75 0 1 0 0-1.5.75.75 0 0 0 0 1.5Z" class="Vector"/>
      </g>
    </g>
  </g>
</svg>
