<svg xmlns="http://www.w3.org/2000/svg" width="26" height="24" fill="currentColor" viewBox="0 0 26 24">
  <g class="us-video">
    <g class="Group">
      <g class="Group">
        <path fill="#000" fill-rule="evenodd" d="M6.781 5.246a2.25 2.25 0 0 0-2.25 2.25v7.692a2.25 2.25 0 0 0 2.25 2.25h6.934a2.25 2.25 0 0 0 2.25-2.25v-1.174a.75.75 0 0 1 1.306-.504c1.115 1.23 2.735 2.433 3.923 3.24a.19.19 0 0 0 .103.036.175.175 0 0 0 .09-.023.22.22 0 0 0 .108-.2v-9.97a.218.218 0 0 0-.103-.197.172.172 0 0 0-.185.005c-1.19.705-2.833 1.785-3.956 2.93a.75.75 0 0 1-1.286-.524V7.496a2.25 2.25 0 0 0-2.25-2.25H6.781Zm-3.75 2.25a3.75 3.75 0 0 1 3.75-3.75h6.934a3.75 3.75 0 0 1 3.734 3.402c1.03-.822 2.15-1.536 2.993-2.036 1.174-.696 2.553.193 2.553 1.482v9.968c0 1.337-1.472 2.222-2.642 1.428-.836-.567-1.927-1.355-2.93-2.24a3.75 3.75 0 0 1-3.708 3.188H6.781a3.75 3.75 0 0 1-3.75-3.75V7.496Z" class="Vector" clip-rule="evenodd"/>
        <path fill="#000" d="M8.693 8.27a1.5 1.5 0 1 1-3 0 1.5 1.5 0 0 1 3 0Z" class="Vector"/>
      </g>
    </g>
  </g>
</svg>
