<svg xmlns="http://www.w3.org/2000/svg" width="26" height="24" fill="currentColor" viewBox="0 0 26 24">
  <g class="us-wifi">
    <g class="Group">
      <g class="Group">
        <path fill="#000" fill-rule="evenodd" d="M17.067 14.13a.75.75 0 0 1-1.06.065c-.53-.469-1.487-1.029-2.57-1.16-1.04-.129-2.237.13-3.377 1.35a.75.75 0 0 1-1.098-1.024c1.486-1.59 3.165-1.999 4.656-1.816 1.447.177 2.676.903 3.382 1.525a.748.748 0 0 1 .067 1.06Z" class="Vector" clip-rule="evenodd"/>
        <path fill="#000" fill-rule="evenodd" d="M18.94 11.574a.75.75 0 0 1-1.057.066c-.877-.774-2.444-1.693-4.236-1.913-1.747-.214-3.75.23-5.623 2.237a.75.75 0 1 1-1.097-1.023C9.146 8.564 11.63 7.97 13.83 8.238c2.155.264 3.994 1.35 5.046 2.277a.75.75 0 0 1 .065 1.06Z" class="Vector" clip-rule="evenodd"/>
        <path fill="#000" fill-rule="evenodd" d="M21.075 8.904a.805.805 0 0 1-1.138.071c-1.253-1.105-3.484-2.416-6.044-2.729-2.513-.308-5.386.336-8.059 3.198a.806.806 0 0 1-1.178-1.1c3.042-3.258 6.435-4.065 9.433-3.698 2.95.361 5.474 1.85 6.914 3.12a.807.807 0 0 1 .072 1.138Z" class="Vector" clip-rule="evenodd"/>
        <path fill="#000" d="M14.64 16.885a1.612 1.612 0 1 1-3.224 0 1.612 1.612 0 0 1 3.224 0Z" class="Vector"/>
      </g>
    </g>
  </g>
</svg>
