<svg width="24" height="24" viewBox="0 0 24 24" fill="none" xmlns="http://www.w3.org/2000/svg">
<rect width="24" height="24" rx="4" fill="#E5E5E5"/>
<g clip-path="url(#clip0_3933_2302)">
<rect x="4" y="7.11328" width="16" height="9.77413" rx="0.293955" fill="#B1D1FF"/>
<rect x="4" y="9.23145" width="2.52876" height="5.53662" fill="#D0E3FF"/>
<rect x="6.82227" y="8.61914" width="10.3546" height="6.7611" fill="#1162D4"/>
<rect x="17.4707" y="9.23145" width="2.52876" height="5.53662" fill="#D0E3FF"/>
<circle cx="5.26452" cy="11.9999" r="0.602406" fill="black" fill-opacity="0.5"/>
<circle cx="19.0321" cy="11.9999" r="0.602406" fill="black" fill-opacity="0.5"/>
<g clip-path="url(#clip1_3933_2302)">
<path fill-rule="evenodd" clip-rule="evenodd" d="M5.10768 12.0201C5.09692 12.0093 5.09692 11.9918 5.10768 11.9811L5.38326 11.7055C5.39403 11.6947 5.41147 11.6947 5.42224 11.7055C5.433 11.7163 5.433 11.7337 5.42224 11.7445L5.16614 12.0006L5.42224 12.2567C5.433 12.2674 5.433 12.2849 5.42224 12.2956C5.41147 12.3064 5.39403 12.3064 5.38326 12.2956L5.10768 12.0201Z" fill="white"/>
</g>
<g clip-path="url(#clip2_3933_2302)">
<path fill-rule="evenodd" clip-rule="evenodd" d="M19.1892 11.9799C19.2 11.9907 19.2 12.0082 19.1892 12.0189L18.9136 12.2945C18.9028 12.3053 18.8854 12.3053 18.8746 12.2945C18.8639 12.2837 18.8639 12.2663 18.8746 12.2555L19.1307 11.9994L18.8746 11.7433C18.8639 11.7326 18.8639 11.7151 18.8746 11.7044C18.8854 11.6936 18.9028 11.6936 18.9136 11.7044L19.1892 11.9799Z" fill="white"/>
</g>
<rect x="11.1172" y="15.9277" width="0.734886" height="0.367443" rx="0.183722" fill="#1162D4"/>
<circle cx="12.1837" cy="16.1115" r="0.183722" fill="#D0E3FF"/>
<circle cx="12.6974" cy="16.1115" r="0.183722" fill="#D0E3FF"/>
</g>
<defs>
<clipPath id="clip0_3933_2302">
<rect x="4" y="7.11328" width="16" height="9.77413" rx="0.293955" fill="white"/>
</clipPath>
<clipPath id="clip1_3933_2302">
<rect width="0.881864" height="0.881864" fill="white" transform="translate(4.82422 12.4414) rotate(-90)"/>
</clipPath>
<clipPath id="clip2_3933_2302">
<rect width="0.881864" height="0.881864" fill="white" transform="translate(19.4727 11.5586) rotate(90)"/>
</clipPath>
</defs>
</svg>
