<svg width="24" height="24" viewBox="0 0 24 24" fill="none" xmlns="http://www.w3.org/2000/svg">
<rect width="24" height="24" rx="4" fill="#E5E5E5"/>
<rect x="4" y="7.49512" width="16" height="9.0092" rx="0.290256" fill="#B1D1FF"/>
<rect x="5.13086" y="9.36523" width="5.54384" height="0.558898" rx="0.279449" fill="#1162D4"/>
<rect x="5.22656" y="13.9053" width="5.54384" height="0.558898" rx="0.279449" fill="#D0E3FF"/>
<g clip-path="url(#clip0_3929_1763)">
<path fill-rule="evenodd" clip-rule="evenodd" d="M18.4406 9.79965C18.43 9.81027 18.4128 9.81027 18.4021 9.79965L18.13 9.52753C18.1194 9.51691 18.1194 9.49968 18.13 9.48905C18.1406 9.47842 18.1579 9.47842 18.1685 9.48905L18.4214 9.74192L18.6743 9.48905C18.6849 9.47842 18.7021 9.47842 18.7127 9.48905C18.7234 9.49968 18.7234 9.51691 18.7127 9.52753L18.4406 9.79965Z" fill="#0F172A"/>
</g>
<g clip-path="url(#clip1_3929_1763)">
<path fill-rule="evenodd" clip-rule="evenodd" d="M18.4031 14.1857C18.4138 14.1751 18.431 14.1751 18.4416 14.1857L18.7137 14.4578C18.7244 14.4684 18.7244 14.4857 18.7137 14.4963C18.7031 14.5069 18.6859 14.5069 18.6752 14.4963L18.4224 14.2434L18.1695 14.4963C18.1589 14.5069 18.1416 14.5069 18.131 14.4963C18.1204 14.4857 18.1204 14.4684 18.131 14.4578L18.4031 14.1857Z" fill="#0F172A"/>
</g>
<rect x="5.22656" y="10.4072" width="5.73255" height="0.18141" rx="0.090705" fill="#D0E3FF"/>
<rect x="5.22656" y="10.7891" width="4.75407" height="0.18141" rx="0.090705" fill="#D0E3FF"/>
<rect x="5.22656" y="11.1719" width="3.69346" height="0.18141" rx="0.090705" fill="#D0E3FF"/>
<rect x="5.22656" y="11.5449" width="1.81143" height="0.18141" rx="0.090705" transform="rotate(0.277161 5.22656 11.5449)" fill="#D0E3FF"/>
<defs>
<clipPath id="clip0_3929_1763">
<rect width="0.870768" height="0.870768" fill="white" transform="translate(18.8574 10.0801) rotate(-180)"/>
</clipPath>
<clipPath id="clip1_3929_1763">
<rect width="0.870768" height="0.870768" fill="white" transform="translate(17.9863 13.9053)"/>
</clipPath>
</defs>
</svg>
