<svg width="24" height="24" viewBox="0 0 24 24" fill="none" xmlns="http://www.w3.org/2000/svg">
<rect width="24" height="24" fill="#E5E5E5"/>
<rect x="4" y="9.9375" width="16" height="4.12541" rx="0.548786" fill="#B1D1FF"/>
<path d="M6.78679 10.9707L7.0178 11.6817H7.7654L7.16058 12.1211L7.3916 12.8321L6.78679 12.3927L6.18197 12.8321L6.41299 12.1211L5.80817 11.6817H6.55577L6.78679 10.9707Z" fill="#1162D4"/>
<path d="M9.39421 10.9707L9.62523 11.6817H10.3728L9.768 12.1211L9.99902 12.8321L9.39421 12.3927L8.78939 12.8321L9.02041 12.1211L8.4156 11.6817H9.16319L9.39421 10.9707Z" fill="#1162D4"/>
<path d="M11.9997 10.9707L12.2307 11.6817H12.9783L12.3735 12.1211L12.6045 12.8321L11.9997 12.3927L11.3949 12.8321L11.6259 12.1211L11.0211 11.6817H11.7687L11.9997 10.9707Z" fill="#1162D4"/>
<path d="M14.6071 10.9707L14.8381 11.6817H15.5857L14.9809 12.1211L15.2119 12.8321L14.6071 12.3927L14.0023 12.8321L14.2333 12.1211L13.6285 11.6817H14.3761L14.6071 10.9707Z" fill="#D0E3FF"/>
<path d="M17.2145 10.9707L17.4455 11.6817H18.1931L17.5883 12.1211L17.8193 12.8321L17.2145 12.3927L16.6097 12.8321L16.8407 12.1211L16.2359 11.6817H16.9835L17.2145 10.9707Z" fill="#D0E3FF"/>
</svg>
