<svg width="24" height="24" viewBox="0 0 24 24" fill="none" xmlns="http://www.w3.org/2000/svg">
<rect width="24" height="24" rx="4" fill="#E5E5E5"/>
<rect x="10.75" y="1.17285" width="2.5" height="21.6545" rx="0.351914" fill="#B1D1FF"/>
<g clip-path="url(#clip0_3933_2576)">
<path fill-rule="evenodd" clip-rule="evenodd" d="M11.6035 2.22245C11.6035 2.20422 11.6183 2.18945 11.6365 2.18945H12.3623C12.3806 2.18945 12.3953 2.20422 12.3953 2.22245C12.3953 2.24067 12.3806 2.25544 12.3623 2.25544H11.6365C11.6183 2.25544 11.6035 2.24067 11.6035 2.22245ZM11.6035 2.45339C11.6035 2.43517 11.6183 2.4204 11.6365 2.4204H12.3623C12.3806 2.4204 12.3953 2.43517 12.3953 2.45339C12.3953 2.47161 12.3806 2.48638 12.3623 2.48638H11.6365C11.6183 2.48638 11.6035 2.47161 11.6035 2.45339ZM11.6035 2.68433C11.6035 2.66611 11.6183 2.65134 11.6365 2.65134H12.3623C12.3806 2.65134 12.3953 2.66611 12.3953 2.68433C12.3953 2.70255 12.3806 2.71732 12.3623 2.71732H11.6365C11.6183 2.71732 11.6035 2.70255 11.6035 2.68433Z" fill="#0F172A"/>
</g>
<rect x="11.4727" y="5.88574" width="1.05574" height="1.05574" rx="0.175957" fill="#D0E3FF"/>
<rect x="11.4727" y="7.64551" width="1.05574" height="1.05574" rx="0.175957" fill="#D0E3FF"/>
<rect x="11.4727" y="9.40527" width="1.05574" height="1.05574" rx="0.175957" fill="#D0E3FF"/>
<rect x="11.4727" y="11.1641" width="1.05574" height="1.05574" rx="0.175957" fill="#D0E3FF"/>
<rect x="11.4727" y="12.9238" width="1.05574" height="1.05574" rx="0.175957" fill="#D0E3FF"/>
<circle cx="12.0007" cy="21.2497" r="0.703828" fill="#1162D4"/>
<defs>
<clipPath id="clip0_3933_2576">
<rect width="1.05574" height="1.05574" fill="white" transform="translate(11.4707 1.92578)"/>
</clipPath>
</defs>
</svg>
