<svg width="24" height="24" viewBox="0 0 24 24" fill="none" xmlns="http://www.w3.org/2000/svg">
<rect width="24" height="24" rx="4" fill="#E5E5E5"/>
<path d="M20 12C20 16.4183 16.4183 20 12 20C7.58172 20 4 16.4183 4 12C4 7.58172 7.58172 4 12 4C16.4183 4 20 7.58172 20 12ZM5.68572 12C5.68572 15.4873 8.51272 18.3143 12 18.3143C15.4873 18.3143 18.3143 15.4873 18.3143 12C18.3143 8.51272 15.4873 5.68572 12 5.68572C8.51272 5.68572 5.68572 8.51272 5.68572 12Z" fill="#B1D1FF"/>
<path d="M19.1571 12C19.6226 12 20.0046 11.6216 19.9556 11.1587C19.8172 9.84952 19.3572 8.59009 18.611 7.49505C17.706 6.167 16.4221 5.14229 14.9264 4.55443C13.4307 3.96657 11.7926 3.84281 10.2255 4.19928C8.65848 4.55574 7.23512 5.37591 6.14088 6.55291C5.04665 7.72992 4.33227 9.2092 4.09081 10.798C3.84935 12.3869 4.09202 14.0116 4.78719 15.4605C5.48236 16.9095 6.59781 18.1155 7.9882 18.9214C9.13466 19.5859 10.4242 19.953 11.74 19.9958C12.2052 20.0109 12.5548 19.6024 12.521 19.1382V19.1382C12.4871 18.6739 12.082 18.3309 11.6174 18.3027C10.6406 18.2434 9.68684 17.9575 8.83355 17.4629C7.73613 16.8268 6.85572 15.875 6.30704 14.7314C5.75835 13.5877 5.56682 12.3054 5.7574 11.0513C5.94797 9.79727 6.51182 8.62969 7.37549 7.7007C8.23915 6.7717 9.36259 6.12436 10.5994 5.84301C11.8363 5.56166 13.1292 5.65934 14.3097 6.12333C15.4903 6.58731 16.5037 7.3961 17.218 8.44431C17.7734 9.25934 18.1279 10.1897 18.2581 11.1596C18.3201 11.621 18.6916 12 19.1571 12V12Z" fill="#1162D4"/>
</svg>
