<svg width="24" height="24" viewBox="0 0 24 24" fill="none" xmlns="http://www.w3.org/2000/svg">
<rect width="24" height="24" rx="4" fill="#E5E5E5"/>
<circle cx="11.9954" cy="12.0775" r="7.70833" stroke="#1476FF" stroke-width="1.25"/>
<circle cx="12" cy="8.66699" r="1.875" stroke="#1476FF" stroke-width="1.25"/>
<path fill-rule="evenodd" clip-rule="evenodd" d="M6.33531 16.87C6.61081 16.87 6.85258 16.6935 6.96415 16.4416C7.81823 14.5133 9.7488 13.168 11.9936 13.168C14.2384 13.168 16.1689 14.5133 17.023 16.4416C17.1346 16.6935 17.3763 16.87 17.6518 16.87C18.0785 16.87 18.3879 16.4624 18.2236 16.0687C17.2062 13.6311 14.7999 11.918 11.9936 11.918C9.1872 11.918 6.78095 13.6311 5.76358 16.0687C5.59924 16.4624 5.90864 16.87 6.33531 16.87Z" fill="#1476FF"/>
</svg>
