<svg width="24" height="24" viewBox="0 0 24 24" fill="none" xmlns="http://www.w3.org/2000/svg">
<rect width="24" height="24" rx="4" fill="#E5E5E5"/>
<path d="M5.24823 16H4.35858L7.74016 6.70408H8.64796L12.0295 16H11.1399L8.22583 7.80706H8.16229L5.24823 16ZM5.88823 12.4369H10.4999V13.1994H5.88823V12.4369ZM15.402 16.1589C14.9814 16.1589 14.5971 16.0772 14.2491 15.9138C13.9011 15.7473 13.6242 15.5083 13.4185 15.1966C13.2127 14.8819 13.1098 14.5006 13.1098 14.0528C13.1098 13.7078 13.1749 13.4173 13.305 13.1813C13.4351 12.9452 13.6197 12.7516 13.8588 12.6003C14.0978 12.449 14.3807 12.3294 14.7076 12.2417C15.0344 12.1539 15.3945 12.0858 15.7878 12.0374C16.1782 11.989 16.508 11.9467 16.7774 11.9103C17.0497 11.874 17.257 11.8165 17.3992 11.7379C17.5414 11.6592 17.6125 11.5321 17.6125 11.3566V11.1932C17.6125 10.7181 17.4703 10.3444 17.1859 10.072C16.9044 9.79667 16.499 9.65898 15.9694 9.65898C15.4671 9.65898 15.0571 9.76943 14.7393 9.99033C14.4246 10.2112 14.2037 10.4715 14.0766 10.771L13.3095 10.4942C13.4669 10.1129 13.6848 9.80877 13.9632 9.58182C14.2416 9.35184 14.5532 9.18692 14.8982 9.08707C15.2432 8.98418 15.5927 8.93274 15.9467 8.93274C16.213 8.93274 16.4899 8.96754 16.7774 9.03714C17.0679 9.10674 17.3372 9.22778 17.5853 9.40026C17.8334 9.56972 18.0347 9.80726 18.189 10.1129C18.3433 10.4155 18.4205 10.7998 18.4205 11.2658V16H17.6125V14.897H17.5626C17.4658 15.1028 17.322 15.3025 17.1314 15.4962C16.9408 15.6898 16.7017 15.8487 16.4142 15.9728C16.1268 16.0968 15.7894 16.1589 15.402 16.1589ZM15.511 15.419C15.9407 15.419 16.3129 15.3237 16.6276 15.133C16.9423 14.9424 17.1844 14.6897 17.3538 14.375C17.5263 14.0573 17.6125 13.7078 17.6125 13.3265V12.3189C17.552 12.3763 17.4506 12.4278 17.3084 12.4732C17.1692 12.5186 17.0073 12.5594 16.8227 12.5957C16.6412 12.629 16.4596 12.6578 16.2781 12.682C16.0965 12.7062 15.9331 12.7274 15.7878 12.7455C15.3945 12.7939 15.0586 12.8696 14.7802 12.9725C14.5018 13.0754 14.2885 13.2176 14.1402 13.3991C13.9919 13.5777 13.9178 13.8077 13.9178 14.0891C13.9178 14.5127 14.0691 14.841 14.3717 15.074C14.6743 15.304 15.054 15.419 15.511 15.419Z" fill="#1476FF"/>
</svg>
